<svg xmlns="http://www.w3.org/2000/svg" viewBox="0 0 310 290"><defs><style>.cls-1{fill:#fff;}.cls-2{fill:#534741;}.cls-3{fill:#e6e6e6;}.cls-4{fill:#162585;}.cls-5{fill:#333;}.cls-6{fill:#c69c6d;}.cls-7{fill:#b3b3b3;}.cls-8{fill:#71a97d;}.cls-9{fill:#5a8764;}.cls-10{fill:#436f3a;}.cls-11{fill:#36592e;}.cls-12{fill:#292929;}.cls-13{fill:#ccc;}.cls-14{fill:#7b655c;}.cls-15{fill:#ff4a46;}</style></defs><title>princess-mulan</title><g id="圖層_1" data-name="圖層 1"><path class="cls-1" d="M271.27,84h-86c-19.81,0-36-15.75-36-35h0c0-19.25,16.21-35,36-35h86c19.81,0,36,15.75,36,35h0C307.29,68.2,291.09,84,271.27,84Z"/><circle class="cls-1" cx="188.83" cy="102.04" r="5.05"/><path class="cls-2" d="M177.41,41.89v4.82h5.92v1.47h-5.92v6.43h7.16v1.47H170.22V54.62h5.62V41.89Z"/><path class="cls-2" d="M193.27,46.71v5.6h-2.67v.91h3.14v1.3h-3.14v2.16h-1.34V54.52h-3.19v-1.3h3.19v-.91h-2.69v-5.6Zm-3.73-4.31v3.65h-3.28V42.4Zm-1.17,1.1h-.93v1.44h.93Zm.88,5.41v-1H187.9v1Zm0,1.15H187.9v1h1.34Zm4.34-7.67v3.65h-3.26V42.4Zm-3,6.51h1.31v-1h-1.31Zm1.31,1.15h-1.31v1h1.31Zm.5-6.56h-.9v1.44h.9Zm8.07,3.23-3.7.85a24.9,24.9,0,0,0,.27,2.48c.06.37.13.72.19,1a21.75,21.75,0,0,0,1.7-3.35l1.2.82A23.13,23.13,0,0,1,197.7,53a4.71,4.71,0,0,0,.22.58c.29.7.53,1.07.69,1.07s.59-.75.9-2.26l1.28.69c-.45,2.19-1.09,3.3-1.94,3.3q-.79,0-1.68-1.44a5.11,5.11,0,0,1-.42-.78,9.11,9.11,0,0,1-2.62,2L193.2,55a10.18,10.18,0,0,0,3-2.4c-.18-.61-.34-1.28-.48-2a25.19,25.19,0,0,1-.37-2.62l-1.5.34-.22-1.46,1.62-.37c-.1-1.34-.13-2.85-.13-4.51h1.52c0,1.57,0,3,.1,4.16l3.55-.82Zm-.78-2.53-1.2.83A18.09,18.09,0,0,0,197.09,43l1.17-.72A15.4,15.4,0,0,1,199.68,44.21Z"/><path class="cls-2" d="M203.81,46V42h1.46V46h1.62v1.47h-1.62v4.88c.53-.21,1-.43,1.55-.66v1.47a30.85,30.85,0,0,1-4.5,1.58l-.38-1.47c.64-.13,1.26-.27,1.87-.45V47.49h-1.71V46Zm12.93,2.1v1.31h-6a6.38,6.38,0,0,1-.43.7h6A36.47,36.47,0,0,1,216,54a4.53,4.53,0,0,1-.61,2,1.76,1.76,0,0,1-1.36.61h-1.36l-.37-1.38c.37,0,.72.06,1,.06a1.06,1.06,0,0,0,1.1-.72,13.52,13.52,0,0,0,.37-3.19h-.59A8.64,8.64,0,0,1,209,56.62l-.82-1.22a7.67,7.67,0,0,0,4.66-4h-1a8.22,8.22,0,0,1-3.91,3.3l-.88-1.07a7.73,7.73,0,0,0,3.33-2.22h-1.2a10.6,10.6,0,0,1-1.46,1.09l-.83-1.12a7.08,7.08,0,0,0,2.35-1.9h-2.06V48.12Zm-1.1-5.71v5h-7.55v-5Zm-1.41,2v-.77h-4.75v.77Zm0,1.09h-4.75v.78h4.75Z"/><path class="cls-2" d="M229.51,42.29a11.07,11.07,0,0,1-1,1.47h4v1.47H218.16V43.76h4.16a12.53,12.53,0,0,0-.94-1.58l1.6-.26a17.92,17.92,0,0,1,1,1.84h2.9a14.38,14.38,0,0,0,1.18-2Zm-7,14.28-.4-1.49,1.15,0c.35,0,.54-.26.54-.75V53.3h-3.14V56.7h-1.49V46.23h6.1v8.48c0,1.23-.51,1.86-1.52,1.86Zm1.3-7.44V47.64h-3.14v1.49Zm0,2.83V50.47h-3.14V52Zm4.42-4.87v6.83h-1.47V47.09Zm-.38,9.43-.32-1.46c.67.06,1.31.1,2,.1.38,0,.58-.22.58-.66V45.89h1.52v9c0,1.09-.53,1.63-1.57,1.63Z"/><path class="cls-2" d="M236.46,43.84a13.35,13.35,0,0,0-.75-1.6l1.46-.4a16.94,16.94,0,0,1,.75,2h2v1.34h-5.79V43.84ZM236,56.63h-1.41V50.82h4.88v5.6H238V55.7H236Zm3.35-10.42v1.31H234.7V46.21Zm0,2.21v1.33H234.7V48.42ZM238,52.17H236v2.19H238Zm5.63-9.33v-.93H245v.93h3.31v1.23H245v.77h2.82v1.23H245v.8h3.66V48.1H240V46.87h3.65v-.8H241V44.84h2.71v-.77h-3.25V42.84Zm1.46,13.75-.32-1.23,1.18,0c.32,0,.48-.21.48-.61v-.61h-4.23v2.5H240.9V48.84h6.9v6.24c0,1-.48,1.5-1.41,1.5Zm1.34-5.67v-.85h-4.23v.85Zm0,2.08v-.86h-4.23V53Z"/><path class="cls-2" d="M264.63,54.39v1.52h-14.5V54.39ZM263.49,43v1.49h-12.2V43Zm-1.09,5.49V50h-10V48.49Z"/><path class="cls-2" d="M269.14,51.59a16.32,16.32,0,0,1-1.87,4.61L266,55.38a13.82,13.82,0,0,0,1.75-4.1Zm9.38-9.19v7.7H268.17V42.4Zm-5.91,3.19V43.83h-2.93v1.76Zm0,1.34h-2.93v1.71h2.93Zm-1,9.52a1.58,1.58,0,0,1-1.78-1.79V51.21h1.5v3.12c0,.45.24.69.75.69h3.44a.59.59,0,0,0,.54-.27,4.47,4.47,0,0,0,.3-1.76l1.46.5a4.69,4.69,0,0,1-.67,2.59,2,2,0,0,1-1.36.38Zm3.76-3.25-1.39.62a19.25,19.25,0,0,0-1.52-2.93l1.38-.45A17.06,17.06,0,0,1,275.36,53.21ZM274,45.59h3V43.83h-3Zm3,1.34h-3v1.71h3Zm3.7,8.07-1.39.62a25.4,25.4,0,0,0-2.24-4.27l1.46-.46A25.81,25.81,0,0,1,280.71,55Z"/><path class="cls-2" d="M284.88,53a1.06,1.06,0,0,1,.34.82,1.12,1.12,0,0,1-.34.83A1.27,1.27,0,0,1,284,55a1.11,1.11,0,0,1-.82-.34,1.07,1.07,0,0,1-.35-.82,1,1,0,0,1,.35-.82,1.09,1.09,0,0,1,.82-.32A1.15,1.15,0,0,1,284.88,53Zm.16-9.46-.37,8.2h-1.26l-.37-8.2Z"/><polygon class="cls-1" points="272.93 166.83 252.65 174.96 277.94 186.37 301.16 169.52 272.93 166.83"/><polygon class="cls-1" points="51.35 247.9 31.07 256.03 56.36 267.44 79.58 250.59 51.35 247.9"/><path class="cls-1" d="M105.15,144.73c-.19,2.12-75.39,23.74-75.39,23.74l62.5,58.86L128.77,290l77.95-9.65,31.79-29.22,64.95-16.21L162.62,144.4Z"/><path class="cls-3" d="M252.62,210.69s4.24-30-7.09-31.49-17.6,32.92-17.6,32.92Z"/><path class="cls-4" d="M227.93,212.51a.4.4,0,0,1-.3-.13.41.41,0,0,1-.09-.33c.25-1.36,6.2-33.29,17.29-33.29a5.72,5.72,0,0,1,.75,0,6.7,6.7,0,0,1,4.56,2.77c2.46,3.23,3.69,9.13,3.65,17.53a96.44,96.44,0,0,1-.78,11.64.39.39,0,0,1-.37.34l-24.69,1.43Zm16.9-33c-5.39,0-9.59,8.81-12.16,16.21a127.1,127.1,0,0,0-4.26,15.94l23.86-1.38c.34-2.68,2.49-21.37-2.76-28.26a5.94,5.94,0,0,0-4-2.46A5,5,0,0,0,244.83,179.55Z"/><path class="cls-5" d="M84.53,165.69c-2.77,3.58-6.95,8.62-8.77,9,0,0-5.62-.21-6.6,4.38s6.37,7.29,11.84,4c3.65-2.18,9.55,1.83,13.12-6.41C87.61,172.05,85.29,168.21,84.53,165.69Z"/><path class="cls-4" d="M94.72,175.67c-3.58-2.57-7.68-5.91-9.05-10.3a1.13,1.13,0,0,0-.58-.7.94.94,0,0,0-1.4.18l0,0a1,1,0,0,0-.23.3,65.68,65.68,0,0,1-6,6.91,11.71,11.71,0,0,1-1.28,1.1c-.18.13-.76.34-.46.35a10.38,10.38,0,0,0-1.77.16,7.41,7.41,0,0,0-5.14,3.12,5.3,5.3,0,0,0,.43,6.46c1.63,1.93,4.55,2.54,7,2.47a11.07,11.07,0,0,0,4.07-.93,11.12,11.12,0,0,1,3-1.21c2-.26,4.08,0,6.08-.58,2.65-.75,4.43-2.91,5.58-5.3l.19-.42A1.23,1.23,0,0,0,94.72,175.67Zm-6.22,5.12c-1.68.48-3.49.25-5.21.42-2.19.23-3.89,1.6-6,2a7.08,7.08,0,0,1-6.35-1.66c-1.44-1.52-.31-3.82,1.2-4.78a6.76,6.76,0,0,1,3.56-.91c1.61,0,3.18-1.83,4.19-2.87a61.44,61.44,0,0,0,4.33-5c1.82,3.69,5.15,6.61,8.43,9A6.82,6.82,0,0,1,88.5,180.79Z"/><path class="cls-6" d="M120.53,157.83c-7.36-4.82-29-5.84-33.33,4.28,0,0-1.12,1.56-2.68,3.58.77,2.53,3.09,6.37,9.6,11l.13-.31s19.83,6.15,27.45-5.85C121.71,170.53,127.89,162.65,120.53,157.83Z"/><path class="cls-4" d="M120.74,169.83c.19-.3.05-.08,0,0Z"/><path class="cls-4" d="M122.63,158a11.84,11.84,0,0,0-1.5-1.15c-3.61-2.32-8.14-3.13-12.34-3.52a34,34,0,0,0-14.65,1.55,16.2,16.2,0,0,0-5.58,3.31c-1.39,1.3-2.12,3-3.23,4.53-.78,1-2.31,2.27-1.84,3.67a13.68,13.68,0,0,0,1.22,2.6,25.32,25.32,0,0,0,5.55,6.24c1,.9,2.15,1.73,3.27,2.53a1.19,1.19,0,0,0,1.16,0c6.2,1.77,13.49,2.15,19.56,0a17.5,17.5,0,0,0,9.11-7.56C125.79,166.26,126.2,161.34,122.63,158Zm.28,6.74a10.4,10.4,0,0,1-1.76,4.55l-.32.47c-.12.17-.12.16-.09.12l-.06.1a14.34,14.34,0,0,1-2.39,2.8,15,15,0,0,1-5.75,3.09c-5.65,1.72-12.36,1.15-18-.58a1.11,1.11,0,0,0-.47,0c-3.27-2.4-6.81-5.44-8.25-9.32a24.15,24.15,0,0,0,2.69-3.84,9,9,0,0,1,2.79-3.14,20.07,20.07,0,0,1,9.29-3.18,38.53,38.53,0,0,1,10.76.24,22.4,22.4,0,0,1,8.54,2.87A6.16,6.16,0,0,1,122.91,164.7Z"/><path class="cls-7" d="M259.16,206.25s-1.26,14.48-6.44,8.09c-2.06-2.54,4.5-43-40.4-75.27,0,0-.91-5.24,5.18-4.31C220.67,135.24,259.66,155.53,259.16,206.25Z"/><path class="cls-4" d="M255.16,217c-1.09,0-2.16-.66-3.26-2-.54-.67-.64-1.84-.84-5.13-.73-11.92-2.67-43.59-39.35-70l-.35-.25-.07-.43a5.49,5.49,0,0,1,1-4.1c1.11-1.32,2.92-1.8,5.38-1.43,1.81.28,12.52,5.51,22.84,17.26a77.81,77.81,0,0,1,13.79,22.39,85.46,85.46,0,0,1,5.93,32.9v.08a36.58,36.58,0,0,1-.85,5C258.42,215.17,257,217,255.16,217Zm-1.59-3.31c.89,1.08,1.41,1.2,1.59,1.2,1.24,0,2.58-4.59,2.94-8.71a83.38,83.38,0,0,0-5.78-32.05,75.68,75.68,0,0,0-13.41-21.78c-9.79-11.15-20.19-16.35-21.57-16.56-1.65-.25-2.83,0-3.43.69a3,3,0,0,0-.57,2c15.82,11.46,27.09,25.29,33.5,41.11a91.27,91.27,0,0,1,6.33,30.15A23,23,0,0,0,253.57,213.71Z"/><path class="cls-7" d="M256.06,180.07c-1.68-4.1-3.19-9.26-4.87-13.36-.1-.23,5.37-1.7,7.2-3,0,1.1,4,4.74-1.42,5.88-.29.06,2.79,9.68,3.47,11.19C260.43,180.78,257,182.26,256.06,180.07Z"/><path class="cls-4" d="M258.13,182.19a2.93,2.93,0,0,1-2.93-1.77c-.85-2.08-1.67-4.44-2.45-6.73s-1.59-4.6-2.42-6.63a1,1,0,0,1,0-.75c.21-.46.5-.56,2.38-1.21a26.59,26.59,0,0,0,5.12-2.14.92.92,0,0,1,1.46.71,5.79,5.79,0,0,0,.4.78c.57,1,1.43,2.55.79,4a3.69,3.69,0,0,1-2.48,1.85c.57,2.22,2.69,8.86,3.26,10.13a.92.92,0,0,1-.48,1.23A7.75,7.75,0,0,1,258.13,182.19Zm-5.76-15c.73,1.87,1.44,3.92,2.13,5.91.78,2.26,1.59,4.61,2.42,6.63.08.19.25.62,1.22.62a4.65,4.65,0,0,0,1.09-.15c-.47-1.29-1.16-3.38-1.72-5.16-1.66-5.28-1.56-5.47-1.36-5.86a1,1,0,0,1,.64-.49c1.12-.24,1.84-.6,2-1s-.31-1.57-.72-2.3l-.17-.31a40.36,40.36,0,0,1-4.59,1.8Z"/><path class="cls-1" d="M250.41,179.57s-5-19.57-33.47-40.24c0,0-1.61-1.69-.12-2.12S246.9,156.18,250.41,179.57Z"/><path class="cls-3" d="M244.36,169.54a54.49,54.49,0,0,0-3.7-6.34c-13.8-20.55-29.25-40.95-47.05-43.23,0,0-8.82,5.37-23.65,7.78,1.18,11.14,7.9,46.12,46.18,65.42C225.88,189.57,238.53,180.54,244.36,169.54Z"/><path class="cls-7" d="M217.28,185.38s2.56-6.26-5-11.15-9,1.85-4.25,4.31,5.21,5.43,4.46,6.67S215.65,190.27,217.28,185.38Z"/><path class="cls-7" d="M182.09,138.89s4.17-4.23-.35-10.74-7.91-1.49-4.89,2.08,2.42,6.16,1.39,6.91S179.13,142.32,182.09,138.89Z"/><path class="cls-4" d="M216.07,194.31l-.41-.21c-16.61-8.37-29.21-20.56-37.47-36.22a85.08,85.08,0,0,1-9.29-30l-.1-1,1-.16a80.66,80.66,0,0,0,17.1-4.7,47.53,47.53,0,0,0,6.17-2.93l.32-.19.37,0c18.64,2.39,34.45,23.81,47.79,43.69a55.5,55.5,0,0,1,3.78,6.46l.24.48-.25.48c-6.11,11.53-19.21,20.59-28.79,24.12Zm-45-65.69a83.24,83.24,0,0,0,9,28.28C188,172,200.2,183.85,216.2,192c9-3.46,21.1-11.85,27-22.49a54.7,54.7,0,0,0-3.39-5.73c-6.31-9.4-13.85-20.12-21.9-28.32-8.44-8.59-16.31-13.31-24.05-14.41C192.1,122,184,126.38,171.11,128.62Z"/><path class="cls-5" d="M244.36,169.54c-5.83,11-18.48,20-28.22,23.62a107.54,107.54,0,0,0,16.32,6.56c7.75-6,12.17-11.14,14.6-14.63C248,180.8,247.43,175.79,244.36,169.54Z"/><path class="cls-4" d="M232.67,200.89l-.52-.16a108.84,108.84,0,0,1-16.48-6.63L213.5,193l2.28-.84c9.21-3.4,21.8-12.08,27.65-23.13l1-1.83.91,1.86c2.94,6,3.85,11.31,2.79,16.25l0,.21-.12.17c-2.36,3.38-6.85,8.7-14.82,14.86Zm-13.93-7.64a108.1,108.1,0,0,0,13.52,5.29,67.67,67.67,0,0,0,13.83-13.88c.79-3.9.19-8.11-1.82-12.82C238.31,181.66,227.49,189.46,218.73,193.25Z"/><path class="cls-8" d="M172.61,155.84a73,73,0,0,0,31.67,49.37,45.31,45.31,0,0,0,11.23,5.48,131.58,131.58,0,0,0,17-11c-52.79-16.5-61.18-59.41-62.51-72a90.08,90.08,0,0,1-20.75.91l-.94-.05C150.12,141.34,160.08,152.68,172.61,155.84Z"/><path class="cls-9" d="M198.84,201.54c4.47,2.8,10.19,6.37,15.24,9.43a178.21,178.21,0,0,0,17.15-10.82c-4.17-1.87-8.69-3.95-12.65-5.77C212.1,196.47,205.41,198.85,198.84,201.54Z"/><path class="cls-4" d="M232.78,198.58a96.57,96.57,0,0,1-32.65-17.21,80.68,80.68,0,0,1-18.46-21.82,82.59,82.59,0,0,1-10.53-31.8,1.22,1.22,0,0,0-1.5-1.14,102,102,0,0,1-21.38.82,1.21,1.21,0,0,0-1.14,1.5,35,35,0,0,0,24.45,27.84,74.55,74.55,0,0,0,16.5,35.59A72.49,72.49,0,0,0,203,205.78a49.94,49.94,0,0,0,10.37,5.43c.68.26,1.7.82,2.45.62a12.55,12.55,0,0,0,2.54-1.39c1.83-1,3.63-2.13,5.42-3.25q4.79-3,9.28-6.45A1.2,1.2,0,0,0,232.78,198.58Zm-17.39,10.81c-11.34-3.75-21.18-12.55-28.22-22a71.87,71.87,0,0,1-13.42-31.89.93.93,0,0,0-.93-.86c-11.67-3.07-20.72-13.08-23.12-24.81a104.54,104.54,0,0,0,19.22-.77,84.85,84.85,0,0,0,12.58,34.78c11.21,17.66,28.81,29.64,48.41,36.26A137.26,137.26,0,0,1,215.38,209.39Z"/><path class="cls-10" d="M202.5,217.18c4.8-2.18,9.12-4.35,13-6.49a45.31,45.31,0,0,1-11.23-5.48,73,73,0,0,1-31.67-49.37c-12.53-3.16-22.49-14.5-24.35-27.23a47.53,47.53,0,0,0-12.59,1.22C136.28,144.4,143.49,185.9,202.5,217.18Z"/><path class="cls-11" d="M186.16,207.24c4.45,2.79,10.57,6.61,16,9.93,3.68-1.79,7.73-3.86,11.91-6.2-5-3.07-10.77-6.63-15.24-9.43C194.53,203.3,190.28,205.2,186.16,207.24Z"/><path class="cls-4" d="M215.82,209.54c-11.52-3.66-21.52-12.58-28.66-22.13a71.87,71.87,0,0,1-13.42-31.89,1.16,1.16,0,0,0-.83-.83c-12.23-3.17-21.62-14-23.52-26.4a1.19,1.19,0,0,0-1.15-.87,50.55,50.55,0,0,0-12.91,1.26,1.18,1.18,0,0,0-.87,1.15c.54,12.7,4.64,25.15,10.69,36.26,11.4,20.89,30.11,36.85,50.46,48.66,2.06,1.2,4.15,2.34,6.25,3.46a1.14,1.14,0,0,0,.92.09,1.31,1.31,0,0,0,.28-.09c4.41-2,8.76-4.16,13-6.49A1.2,1.2,0,0,0,215.82,209.54Zm-67.14-42.08c-6.54-11.1-11-23.82-11.78-36.69a47.88,47.88,0,0,1,10.37-1,35,35,0,0,0,24.29,27,74,74,0,0,0,13.79,32.18c6.88,9.21,16.34,17.74,27.23,22q-5,2.62-10,5C181.08,204.36,161.19,188.68,148.69,167.46Z"/><path class="cls-10" d="M185.63,225.19c-61.31-32.63-66.45-76.29-66.58-89-18.52,10.29-33.15,30.1-26.19,54.46,9.58,33.53,45.31,70.14,76.49,68.35C158.78,254.17,158.22,240.3,185.63,225.19Z"/><path class="cls-11" d="M150.64,236.92S103.92,218.06,93,170.74a42.66,42.66,0,0,0,1,20c8.5,29.77,37.62,61.94,65.86,67.54,1.58-5,4.2-13.31,4.89-15.82.79-2.91,9.09-10.43,20.63-17-5.38-3.31-11-6.81-14.73-9.18C162,222.13,154.9,229,150.64,236.92Z"/><path class="cls-4" d="M186.23,224.17c-21.63-11.54-41.68-27.33-54.23-48.73-6.53-11.14-11-23.89-11.69-36.79q-.06-1.21-.08-2.41a1.2,1.2,0,0,0-1.79-1c-10.6,5.93-19.88,14.77-24.85,26a43,43,0,0,0-3.68,18.12c.1,6.56,1.91,12.92,4.27,19a111.26,111.26,0,0,0,20.61,33.08c8.43,9.54,18.57,18,30.12,23.44,7.6,3.61,16,5.86,24.44,5.41,1.08-.06,1.74-1.68.6-2.21a11,11,0,0,1-5.31-4.73,9.2,9.2,0,0,1-.18-7.23c1.21-3.58,3.86-6.61,6.54-9.18a71.87,71.87,0,0,1,15.23-10.67,1,1,0,0,0,.58-1A1,1,0,0,0,186.23,224.17Zm-17.16,11.28a25.9,25.9,0,0,0-7,10.39,11.13,11.13,0,0,0,3.36,12c-10.26-.47-20-4.76-28.59-10.33a106.69,106.69,0,0,1-28.14-27.65A109.67,109.67,0,0,1,98.75,203a69,69,0,0,1-6-18.36c-2-12.74,2.65-25.28,11.07-34.79a59.68,59.68,0,0,1,14.11-11.53c.47,11.05,3.77,22,8.57,31.88,9.87,20.39,26.85,36.47,45.71,48.58,3.58,2.3,7.26,4.44,11,6.48A71.59,71.59,0,0,0,169.08,235.45Z"/><path class="cls-11" d="M186.07,225l-.44.21c-27.42,15.1-26.86,29-16.28,33.86a35.63,35.63,0,0,0,10.3-2.12c9.49-3.49,17.19-8.71,24-14.32C193.58,236.67,188.51,229.63,186.07,225Z"/><path class="cls-4" d="M204.27,241.59c-7.05-4.2-13.31-9.89-17.17-17.21a1,1,0,0,0-1.29-.53,1.29,1.29,0,0,0-.33.11,65,65,0,0,0-16.64,11.73c-3.09,3-5.93,6.7-7,11a11,11,0,0,0,1.38,8.88,12.71,12.71,0,0,0,3.26,3.25,14.55,14.55,0,0,0,1.95,1.15c1.45.72,3.52.11,5.07-.13,6-.93,11.67-3.59,16.9-6.49a96.3,96.3,0,0,0,14.14-9.84A1.2,1.2,0,0,0,204.27,241.59Zm-20,12.15a44.66,44.66,0,0,1-11.45,3.76c-1,.17-2,.27-3,.34a1.93,1.93,0,0,1-.91-.33,11.87,11.87,0,0,1-1.88-1.27c-6.09-5-2.2-12.72,2.13-17.48a49.21,49.21,0,0,1,7.46-6.52,71.33,71.33,0,0,1,9-5.67,47.1,47.1,0,0,0,16,16.18A87.54,87.54,0,0,1,184.29,253.74Z"/><path class="cls-12" d="M202.13,217.18,186.07,225c2.43,4.65,7.51,11.7,17.6,17.64,3.37-2.76,6.53-5.62,9.58-8.41C207.25,228.46,203.7,221,202.13,217.18Z"/><path class="cls-4" d="M203.77,243.9l-.63-.37c-10.21-6-15.42-13.14-18-18.06l-.51-1,18-8.76.42,1c1.55,3.82,5,11.06,10.88,16.66l.82.78L214,235c-3,2.74-6.21,5.65-9.62,8.45Zm-16.24-18.46c2.55,4.5,7.32,10.59,16,15.88,2.85-2.37,5.57-4.81,8.14-7.15a52,52,0,0,1-10.14-15.56Z"/><path class="cls-11" d="M252.57,212.8c-.19-2.67,0-5.77-10.82-3.14-12.29,3-15,2.56-6.14-7.34L236.8,201c4.46-4.91,8.92-9.66,10.26-15.89-2.43,3.48-6.86,8.65-14.6,14.63a131.58,131.58,0,0,1-17,11l-13.38,6.5c1.57,3.87,5.12,11.28,11.13,17,12.35-11.29,23-21.42,39.11-19.62C252.36,214.58,252.76,215.46,252.57,212.8Z"/><path class="cls-4" d="M213.24,235.65l-.71-.68c-6.14-5.87-9.76-13.41-11.37-17.39l-.37-.91L215,209.75a131.26,131.26,0,0,0,16.79-10.86c7.76-6,12.11-11.13,14.38-14.39l3-4.3-1.1,5.13c-1.36,6.3-5.79,11.18-10.07,15.89l-.44.49L236.4,203c-4.76,5.32-5,6.7-4.93,7a2.36,2.36,0,0,0,1.21.19,47.86,47.86,0,0,0,8.83-1.59,30.08,30.08,0,0,1,6.79-1c5,0,5.19,3,5.32,4.85l0,.27c.14,1.88,0,2.34-.32,2.7a1.11,1.11,0,0,1-.81.35h0a1.11,1.11,0,0,1-.61-.18,31.68,31.68,0,0,0-3.19-.16c-13.33,0-22.82,8.68-33.81,18.74Zm-9.75-18a49.77,49.77,0,0,0,9.8,15.06l.16-.15c11.32-10.35,21.09-19.29,35.24-19.29.94,0,1.91,0,2.87.12,0-.16,0-.35,0-.57l0-.28c-.12-1.85-.19-2.87-3.21-2.87a28.61,28.61,0,0,0-6.29,1c-4.83,1.17-7.53,1.65-9.32,1.65h0c-.62,0-2.49,0-3.13-1.42-.75-1.67.64-4.1,5.28-9.3l1.2-1.33.44-.49a62.27,62.27,0,0,0,6.8-8.38,83.27,83.27,0,0,1-10.16,9.14A133.12,133.12,0,0,1,216,211.61l0,0Z"/><path class="cls-4" d="M186.14,226.12l-1-1.85c3.92-2.16,8.32-4.29,13.1-6.35,1.26-.54,2.55-1.11,3.83-1.7l.87,1.92c-1.3.59-2.6,1.16-3.87,1.71C194.34,221.89,190,224,186.14,226.12Z"/><path class="cls-4" d="M202.93,218.14l-.87-1.92c4.56-2.07,8.92-4.24,12.94-6.46l1,1.85C211.95,213.85,207.54,216,202.93,218.14Z"/><path class="cls-5" d="M147.28,167.39c-6.45-.28-14.17,4.63-17.32,6.85,9.09,16.34,25.64,35,55.68,51,3.79-2.09,8.11-4.2,13-6.31q2-.85,3.85-1.71C173.09,201.59,156.54,183.46,147.28,167.39Z"/><path class="cls-4" d="M203.1,216.16c-21.9-11.64-42.22-27.63-54.8-49.36a1.07,1.07,0,0,0-1-.58h-.05c-6.46-.18-12.79,3.41-17.92,7a1.22,1.22,0,0,0-.43,1.63c12.38,22.17,32.73,38.68,54.77,50.66a4.75,4.75,0,0,0,1.94.88c.7,0,1.49-.65,2.09-1,1.58-.85,3.19-1.65,4.8-2.44,3.48-1.69,7-3.17,10.57-4.77A1.2,1.2,0,0,0,203.1,216.16Zm-17.45,7.69c-21.69-11.67-41.73-27.66-54.11-49.26,4.42-3,9.68-5.92,15.07-6,12.4,21.08,32,36.87,53.23,48.49C195.05,219.23,190.27,221.35,185.65,223.85Z"/><path class="cls-12" d="M170.68,216.2c3.75,2.36,9.35,5.87,14.73,9.18a106.62,106.62,0,0,1,9.57-4.87c2.16-1,4.59-2.08,7.19-3.34-5.44-3.31-11.56-7.14-16-9.93A128.89,128.89,0,0,0,170.68,216.2Z"/><path class="cls-5" d="M139.53,150.17a76.16,76.16,0,0,1-3.86-20.34,63.18,63.18,0,0,0-16.62,6.42,73.54,73.54,0,0,0,3.46,20.67C125,154.69,131.14,150,139.53,150.17Z"/><path class="cls-4" d="M140.68,149.85a75.75,75.75,0,0,1-3.82-20,1.21,1.21,0,0,0-1.5-1.15,65.7,65.7,0,0,0-16.9,6.54,1.18,1.18,0,0,0-.59,1,75.34,75.34,0,0,0,3.5,21,1.2,1.2,0,0,0,2,.52,24.29,24.29,0,0,1,16.18-6.4,1.19,1.19,0,0,0,0-2.37,26.79,26.79,0,0,0-17.86,7.09l2,.52a73,73,0,0,1-3.41-20.36l-.59,1A63.27,63.27,0,0,1,136,131l-1.5-1.14a78.3,78.3,0,0,0,3.9,20.66C138.86,151.93,141.15,151.31,140.68,149.85Z"/><path class="cls-4" d="M219.66,182.76a12.57,12.57,0,0,0-2.49-6.72,11.92,11.92,0,0,0-9.22-5c-1.53-.1-1.52,2.28,0,2.37,4.76.3,9.27,4.58,9.34,9.35a1.19,1.19,0,0,0,2.37,0Z"/><path class="cls-4" d="M183.33,138.17c.49-2.1,1.25-4,1.14-6.24-.17-3.33-2.41-5.73-5.34-7.05-1.38-.62-2.59,1.42-1.2,2.05,2.51,1.13,4.21,2.89,4.18,5.74a22.31,22.31,0,0,1-1.07,4.87c-.35,1.49,1.94,2.12,2.29.63Z"/><path class="cls-4" d="M199.33,152c-.54-.69.48-1.5,1.1-.94s1.87-.43,1.12-1.12a2.4,2.4,0,0,0-3.22,0,2.37,2.37,0,0,0-.12,3.22.79.79,0,0,0,1.12,0,.81.81,0,0,0,0-1.12Z"/><path class="cls-4" d="M209.27,172.86a19.75,19.75,0,0,1-.86,3.94c-.31,1,1.22,1.39,1.53.42a21.81,21.81,0,0,0,.91-4.36c.11-1-1.47-1-1.58,0Z"/><path class="cls-4" d="M211.31,173.62a10.66,10.66,0,0,1-.57,3.58c-.33,1,1.2,1.38,1.53.42a12,12,0,0,0,.63-4,.79.79,0,0,0-1.58,0Z"/><path class="cls-4" d="M213.61,174.8a15.55,15.55,0,0,1-.31,3.13c-.2,1,1.32,1.42,1.53.42a17.66,17.66,0,0,0,.37-3.55.79.79,0,0,0-1.58,0Z"/><path class="cls-1" d="M195.66,162.69a6.77,6.77,0,0,0,1-5.51,11.6,11.6,0,0,0-2.77-5,6.39,6.39,0,0,0-3.72-2.37c-1.49-.2-3.2.79-3.29,2.29-.08,1.29,1,2.35,2.08,3.05a8.38,8.38,0,0,1,3,2.42c1.07,1.82.12,4.22.78,6.22.14.44.49.93,1,.86a1.16,1.16,0,0,0,.63-.43l1.47-1.59"/><path class="cls-4" d="M196.34,163.09c2.36-3.44,1.13-7.78-1.33-10.79a8.12,8.12,0,0,0-4.64-3.25,4,4,0,0,0-3.89,1.71c-1,1.42-.09,3.18,1,4.23,1.6,1.6,4,1.92,4.22,4.56.15,1.66-.5,4.09.84,5.43s2.94-.83,3.82-1.79c.69-.75-.42-1.87-1.12-1.12L194,163.35c-.82.89-.75-.58-.78-1.22a20.12,20.12,0,0,0-.22-4c-.65-2.6-3.71-3-5.08-5-1.13-1.65,1.06-2.74,2.41-2.49,1.54.29,2.78,1.79,3.69,3,1.92,2.5,2.84,5.91.94,8.68-.58.84.79,1.63,1.37.8Z"/><path class="cls-4" d="M190.37,160.91a6.42,6.42,0,0,0-.39-2.8,4.65,4.65,0,0,0-1.81-2,.79.79,0,0,0-.8,1.37,3,3,0,0,1,1.25,1.45,5.29,5.29,0,0,1,.16,2c0,1,1.62,1,1.58,0Z"/><path class="cls-4" d="M199.68,165.42a23.51,23.51,0,0,1-3.47,2.34c-.75.42,0,1.51.75,1.1a23.45,23.45,0,0,0,3.47-2.34c.66-.54-.09-1.64-.76-1.1Z"/><path class="cls-4" d="M201.53,167.62a21.56,21.56,0,0,0-3.08,2.13c-.66.54.09,1.64.75,1.1a21.74,21.74,0,0,1,3.08-2.13c.72-.47,0-1.57-.75-1.1Z"/><path class="cls-4" d="M204.18,169.55,201,171.8a.67.67,0,0,0,.75,1.1l3.21-2.25a.67.67,0,0,0-.76-1.1Z"/><path class="cls-4" d="M206.91,170.63a32.65,32.65,0,0,1-4.55,3.53c-.72.47,0,1.56.75,1.1a34.58,34.58,0,0,0,4.81-3.76c.63-.58-.39-1.45-1-.87Z"/><path class="cls-4" d="M183.65,138.08c-3,2-2.66,1.63-5.69,3.58-.72.47,0,1.56.75,1.1,3-2,2.66-1.62,5.69-3.58.72-.47,0-1.56-.75-1.1Z"/><path class="cls-4" d="M183.86,141.45a47.52,47.52,0,0,1-4.63,3.18.67.67,0,0,0,.75,1.1,47.49,47.49,0,0,0,4.63-3.18c.66-.54-.09-1.64-.75-1.1Z"/><path class="cls-4" d="M185.28,144a34.68,34.68,0,0,0-4.06,2.76c-.67.53.08,1.63.75,1.1a34.82,34.82,0,0,1,4.06-2.76c.75-.43,0-1.53-.76-1.1Z"/><path class="cls-4" d="M190.39,125a5.27,5.27,0,0,0-4.38,2.69c-.43.74.75,1.36,1.18.62a3.88,3.88,0,0,1,3.24-2,.67.67,0,0,0,0-1.33Z"/><path class="cls-4" d="M215,174.59a10.49,10.49,0,0,0,4.17-4.46c.38-.77-.8-1.39-1.18-.62a9.2,9.2,0,0,1-3.71,4c-.74.43,0,1.55.72,1.12Z"/><path class="cls-1" d="M200.74,135.14a5.88,5.88,0,0,0-2.27-3.39,9.42,9.42,0,0,0-10.82-.58,8.32,8.32,0,0,0-2.85,10.23,14,14,0,0,0,2.61,3.36,9.89,9.89,0,0,0,4,2.87,7.9,7.9,0,0,0,8.25-3.14c1.54-2.51,2.95-6.78,1.07-9.34"/><path class="cls-4" d="M183.62,142c2.68,5.46,9,9.28,14.61,5.71,3.92-2.48,6.11-8.93,3.74-13.09-1.62-5.41-8.63-7.5-13.52-5.4A9.65,9.65,0,0,0,183.62,142Zm6.07-10.4c3.55-1.43,8.66.05,9.8,4a1.26,1.26,0,0,0,.28.52c1.43,2.67-.16,7.16-2.39,8.95-4.23,3.38-9.29-.06-11.33-4.22A6.91,6.91,0,0,1,189.69,131.59Z"/><path class="cls-1" d="M217.27,158.1A5.89,5.89,0,0,0,215,154.7a9.42,9.42,0,0,0-10.82-.58,8.32,8.32,0,0,0-2.85,10.23,14,14,0,0,0,2.61,3.36,9.9,9.9,0,0,0,4,2.87,7.9,7.9,0,0,0,8.25-3.14c1.54-2.51,2.95-6.78,1.07-9.34"/><path class="cls-4" d="M200.15,165c2.68,5.46,9,9.28,14.61,5.71,3.92-2.48,6.11-8.93,3.74-13.09-1.62-5.41-8.63-7.5-13.51-5.4A9.65,9.65,0,0,0,200.15,165Zm6.07-10.4c3.55-1.43,8.66.05,9.8,4a1.25,1.25,0,0,0,.28.52c1.43,2.67-.16,7.16-2.39,8.95-4.23,3.38-9.29-.06-11.33-4.22A6.91,6.91,0,0,1,206.22,154.55Z"/><path class="cls-4" d="M212.75,154.58a5.63,5.63,0,0,0,5.17-2.12.5.5,0,0,1,.27-.22.33.33,0,0,1,.35.29.92.92,0,0,1-.11.5,7.56,7.56,0,0,1-1.22,2,3.21,3.21,0,0,1-1.11.86,1.74,1.74,0,0,1-1.37,0,9.34,9.34,0,0,1-2-1.32"/><path class="cls-4" d="M214.58,156a9.9,9.9,0,0,1-1.91-1.29.12.12,0,0,1,.09-.22,5.55,5.55,0,0,0,5.05-2.08.61.61,0,0,1,.34-.27.37.37,0,0,1,.29.06.51.51,0,0,1,.21.33,1,1,0,0,1-.12.56,7.53,7.53,0,0,1-1.24,2,3.28,3.28,0,0,1-1.15.89,1.84,1.84,0,0,1-1.47,0Zm-1.43-1.22a8.05,8.05,0,0,0,1.63,1,1.61,1.61,0,0,0,1.28,0,3.09,3.09,0,0,0,1.07-.83,7.36,7.36,0,0,0,1.2-1.95.81.81,0,0,0,.1-.43.26.26,0,0,0-.11-.17.13.13,0,0,0-.1,0c-.07,0-.13.1-.19.18A5.74,5.74,0,0,1,213.15,154.74Z"/><path class="cls-4" d="M216.78,157.44a4.71,4.71,0,0,0,4.67-.19.41.41,0,0,1,.27-.1.28.28,0,0,1,.19.33.76.76,0,0,1-.23.36,6.29,6.29,0,0,1-1.52,1.21,2.7,2.7,0,0,1-1.12.36A1.46,1.46,0,0,1,218,159a7.79,7.79,0,0,1-1.18-1.6"/><path class="cls-4" d="M218.24,159.38a1.37,1.37,0,0,1-.36-.25,8.09,8.09,0,0,1-1.2-1.63.12.12,0,0,1,0-.15.11.11,0,0,1,.15,0,4.64,4.64,0,0,0,4.55-.18.52.52,0,0,1,.36-.12.32.32,0,0,1,.22.14.43.43,0,0,1,.07.33.85.85,0,0,1-.26.42,6.39,6.39,0,0,1-1.55,1.23,2.79,2.79,0,0,1-1.17.37A1.71,1.71,0,0,1,218.24,159.38Zm-1.14-1.65A6.55,6.55,0,0,0,218,159a1.33,1.33,0,0,0,1,.33,2.59,2.59,0,0,0,1.07-.34,6.12,6.12,0,0,0,1.49-1.19.63.63,0,0,0,.19-.3.2.2,0,0,0,0-.15.09.09,0,0,0-.06,0,.35.35,0,0,0-.19.08A4.82,4.82,0,0,1,217.1,157.73Z"/><path class="cls-4" d="M218.16,162a4.72,4.72,0,0,0,4.31,1.81.42.42,0,0,1,.29,0,.28.28,0,0,1,0,.38.76.76,0,0,1-.36.23,6.34,6.34,0,0,1-1.89.45,7.68,7.68,0,0,1-2,0c-.37-.15.13-.58,0-.95a7.72,7.72,0,0,1-.39-2"/><path class="cls-4" d="M218.49,165c-.28-.13-.18-.4-.12-.59a.64.64,0,0,0,.06-.41,8.16,8.16,0,0,1-.4-2,.12.12,0,0,1,.08-.13.12.12,0,0,1,.14,0,4.63,4.63,0,0,0,4.2,1.76.52.52,0,0,1,.37,0,.33.33,0,0,1,.14.22.45.45,0,0,1-.08.33.85.85,0,0,1-.41.27,6.34,6.34,0,0,1-1.93.46l-.25,0a5.74,5.74,0,0,1-1.79,0Zm-.17-2.6a6.45,6.45,0,0,0,.34,1.51.83.83,0,0,1-.05.59c-.09.24-.07.26,0,.29a6.37,6.37,0,0,0,1.68,0l.25,0a6.1,6.1,0,0,0,1.86-.44.66.66,0,0,0,.3-.19.2.2,0,0,0,0-.15.08.08,0,0,0,0-.06.34.34,0,0,0-.21,0A4.83,4.83,0,0,1,218.33,162.42Z"/><path class="cls-4" d="M201.73,140.31a5.64,5.64,0,0,1,4.7-3,.5.5,0,0,0,.34-.09.33.33,0,0,0,0-.46.89.89,0,0,0-.47-.2,7.56,7.56,0,0,0-2.32-.13,3.24,3.24,0,0,0-1.34.42,1.74,1.74,0,0,0-.82,1.11,9.26,9.26,0,0,0-.05,2.38"/><path class="cls-4" d="M201.67,137.91a1.84,1.84,0,0,1,.87-1.19,3.29,3.29,0,0,1,1.39-.44,7.61,7.61,0,0,1,2.36.13,1,1,0,0,1,.53.23.51.51,0,0,1,.15.36.37.37,0,0,1-.11.27.62.62,0,0,1-.41.13,5.55,5.55,0,0,0-4.59,3,.13.13,0,0,1-.13.07.12.12,0,0,1-.1-.11,10.13,10.13,0,0,1,0-2.3Zm4.76-.74a.43.43,0,0,0,.26-.06.13.13,0,0,0,0-.1.26.26,0,0,0-.08-.18.82.82,0,0,0-.41-.16,7.35,7.35,0,0,0-2.28-.13,3.11,3.11,0,0,0-1.29.4,1.61,1.61,0,0,0-.76,1,8,8,0,0,0-.08,1.93A5.73,5.73,0,0,1,206.42,137.16Z"/><path class="cls-4" d="M201.69,135.37a4.72,4.72,0,0,1,2.83-3.72.42.42,0,0,0,.24-.17.28.28,0,0,0-.16-.35.76.76,0,0,0-.42,0,6.29,6.29,0,0,0-1.86.56,2.68,2.68,0,0,0-.93.71,1.44,1.44,0,0,0-.33,1.1,7.79,7.79,0,0,0,.64,1.88"/><path class="cls-4" d="M201.28,132.3a2.78,2.78,0,0,1,1-.75,6.33,6.33,0,0,1,1.9-.57.87.87,0,0,1,.49,0,.45.45,0,0,1,.23.25.34.34,0,0,1,0,.27.53.53,0,0,1-.3.23,4.63,4.63,0,0,0-2.75,3.62.11.11,0,0,1-.1.11.12.12,0,0,1-.13-.07,8,8,0,0,1-.65-1.92,1.33,1.33,0,0,1,0-.44A1.69,1.69,0,0,1,201.28,132.3Zm3.19-.77c.07,0,.15-.06.18-.11a.09.09,0,0,0,0-.07.21.21,0,0,0-.1-.11.66.66,0,0,0-.36,0,6.06,6.06,0,0,0-1.83.55,2.58,2.58,0,0,0-.89.68,1.33,1.33,0,0,0-.3,1,6.42,6.42,0,0,0,.47,1.48A4.81,4.81,0,0,1,204.47,131.53Z"/><path class="cls-4" d="M198.73,131.61a4.71,4.71,0,0,1,1-4.57.44.44,0,0,0,.14-.25.28.28,0,0,0-.29-.25.75.75,0,0,0-.39.16,6.27,6.27,0,0,0-1.45,1.29,7.69,7.69,0,0,0-1.14,1.62c-.09.38.54.23.76.56a7.77,7.77,0,0,0,1.38,1.44"/><path class="cls-4" d="M196.46,129.59a5.81,5.81,0,0,1,1-1.48l.16-.19a6.37,6.37,0,0,1,1.48-1.32.85.85,0,0,1,.46-.18.44.44,0,0,1,.32.13.33.33,0,0,1,.1.24.52.52,0,0,1-.18.33,4.63,4.63,0,0,0-1,4.45.12.12,0,0,1,0,.14.12.12,0,0,1-.15,0,8,8,0,0,1-1.4-1.46.63.63,0,0,0-.37-.19c-.19-.05-.47-.13-.42-.43Zm3.16-2.63c.05-.06.11-.12.11-.17a.09.09,0,0,0,0-.07.19.19,0,0,0-.14-.06.64.64,0,0,0-.33.14,6.11,6.11,0,0,0-1.42,1.27l-.16.2a6.31,6.31,0,0,0-1,1.38c0,.08,0,.1.24.17a.84.84,0,0,1,.51.29,6.39,6.39,0,0,0,1,1.14A4.82,4.82,0,0,1,199.62,127Z"/><path class="cls-8" d="M171.35,158.81a20.85,20.85,0,0,0-3.08,9.55,62.17,62.17,0,0,0,.14,10.12,14.75,14.75,0,0,0,11.89-17.56,5.51,5.51,0,0,0-1.56-3.12,4.32,4.32,0,0,0-4.12-.62,9,9,0,0,0-3.54,2.47"/><path class="cls-4" d="M170.32,158.21c-3.87,6.06-3.57,13.38-3.1,20.28a1.21,1.21,0,0,0,1.5,1.14,16.07,16.07,0,0,0,13-13.91c.34-3.16.06-7.1-2.66-9.18-2.89-2.2-6.71.16-8.78,2.28-1.07,1.09.61,2.78,1.68,1.68,1.73-1.77,5.06-3.87,6.73-.85,1.24,2.23.88,5.56.27,7.91a13.7,13.7,0,0,1-10.83,9.79l1.5,1.14c-.44-6.46-.86-13.37,2.78-19.08.83-1.29-1.23-2.49-2.05-1.2Z"/><path class="cls-8" d="M173.51,152.41a17.69,17.69,0,0,0-12.27-1.8,42.31,42.31,0,0,0-11.79,4.53,25.74,25.74,0,0,0,18.23,2.92,8.8,8.8,0,0,0,4.14-1.84,3.88,3.88,0,0,0,1.21-4.13"/><path class="cls-4" d="M174.11,151.38c-8.19-4.76-17.57-1.27-25.26,2.73a1.2,1.2,0,0,0,0,2,27.37,27.37,0,0,0,15.72,3.54c4.07-.31,11.46-2.25,9.61-7.94-.47-1.45-2.77-.83-2.29.63,1.48,4.55-6.92,5-9.57,5A24.53,24.53,0,0,1,150,154.12v2c6.89-3.59,15.47-7,22.86-2.73a1.19,1.19,0,0,0,1.2-2.05Z"/><path class="cls-8" d="M168.4,157.44a8.67,8.67,0,0,1,6.16-5,3.89,3.89,0,0,1,2.37.13,1.9,1.9,0,0,1,1.17,1.91c-.15.91-1.06,1.44-1.88,1.86l-4.11,2.07a3.73,3.73,0,0,1-2.41.59c-.83-.19-1.46-1.26-.9-1.9"/><path class="cls-4" d="M173.51,151.44a9.82,9.82,0,0,0-6.14,5.4,1.21,1.21,0,0,0,.09,1.2,2.89,2.89,0,0,0,.82,1.47c1,1,2.52.74,3.64.25,1.66-.73,3.26-1.61,4.89-2.43,1.12-.57,2.41-1.49,2.47-2.88C179.42,151.25,175.88,150.79,173.51,151.44Zm3,3.31a11.1,11.1,0,0,1-1.83,1l-2.28,1.15-1.3.65s-1.49.43-1.31.12A1.14,1.14,0,0,0,170,157a7.13,7.13,0,0,1,5.78-3.54C176.53,153.46,177.34,154.12,176.53,154.75Z"/><path class="cls-5" d="M130.15,173.76A87.29,87.29,0,0,1,123,157.12c2.36-2.13,8.29-6.6,16.34-6.47a88.2,88.2,0,0,0,7.43,16.54C140.59,166.91,133.17,171.63,130.15,173.76Z"/><path class="cls-4" d="M129.8,175.3l-.57-1A88.38,88.38,0,0,1,122,157.43l-.2-.64.5-.45c2.25-2,8.38-6.75,16.73-6.75h1.09l.23.71a87.47,87.47,0,0,0,7.35,16.34l1,1.67-1.92-.08h-.47c-5.81,0-12.78,4.47-15.5,6.39Zm-5.59-17.84a86.25,86.25,0,0,0,6.3,14.77c3.12-2.09,9-5.56,14.48-6.05a89.32,89.32,0,0,1-6.41-14.47A23.63,23.63,0,0,0,124.21,157.46Z"/><path class="cls-5" d="M213.25,143.37S233.34,154.13,240,177c0,0-5.93-48.58-46.43-57C193.6,120,215.92,134.93,213.25,143.37Z"/><path class="cls-4" d="M240,178.07a1.06,1.06,0,0,1-1-.76c-6.49-22.2-26.06-32.9-26.26-33a1.05,1.05,0,0,1-.51-1.25c.94-3-2.08-7.87-8.52-13.75A104.2,104.2,0,0,0,193,120.84a1.06,1.06,0,0,1,.8-1.91,51.9,51.9,0,0,1,24.83,12.74,66.18,66.18,0,0,1,14.29,19.52,87.83,87.83,0,0,1,8.13,25.69,1.06,1.06,0,0,1-.83,1.16Zm-25.57-35.23a60.48,60.48,0,0,1,10.4,8,62,62,0,0,1,11.44,14.61A87,87,0,0,0,231,152.08,64,64,0,0,0,217.2,133.2a49.67,49.67,0,0,0-18.42-10.77c1.9,1.46,4.16,3.29,6.36,5.3C211.92,133.92,215,139,214.46,142.84Z"/><path class="cls-7" d="M223.36,129.29c2.61,3.59,6.2,7.58,8.8,11.17.15.2,4.26-3.67,6.34-4.55-.95-.56-1.93-5.89-5.75-1.88-.2.21-6.77-7.46-7.69-8.83C225.07,125.2,222,127.38,223.36,129.29Z"/><path class="cls-4" d="M232.18,141.39h0a1,1,0,0,1-.76-.39c-1.29-1.77-2.85-3.69-4.37-5.54s-3.12-3.81-4.43-5.63a2.7,2.7,0,0,1-.5-2.07,6.09,6.09,0,0,1,2.41-3.32.92.92,0,0,1,1.3.24c.78,1.15,5.31,6.45,6.9,8.1a4,4,0,0,1,2.55-1.16c1.76,0,2.68,1.67,3.29,2.78a6.1,6.1,0,0,0,.45.75.92.92,0,0,1-.16,1.62,26.54,26.54,0,0,0-4.51,3.23C232.9,141.18,232.64,141.39,232.18,141.39Zm-7.27-14.86a3.24,3.24,0,0,0-1,1.53.85.85,0,0,0,.17.68c1.29,1.77,2.85,3.69,4.37,5.54,1.33,1.63,2.71,3.31,3.91,4.92l.79-.64a40.47,40.47,0,0,1,3.94-3l-.17-.31c-.42-.77-1-1.82-1.67-1.82-.27,0-.86.15-1.85,1.2a1,1,0,0,1-.68.29c-.49,0-.68,0-4.34-4.23C227.19,129.31,225.77,127.62,224.92,126.54Z"/><circle class="cls-7" cx="239.34" cy="129.71" r="6.59" transform="translate(-25.43 192.97) rotate(-41.89)"/><path class="cls-4" d="M239.34,137.22a7.52,7.52,0,1,1,5-1.92A7.53,7.53,0,0,1,239.34,137.22Zm0-13.19a5.67,5.67,0,1,0,4.22,1.88A5.65,5.65,0,0,0,239.34,124Z"/><path class="cls-1" d="M242.9,131.72l-7.81-1.14a5.1,5.1,0,0,0,3.29,3.37C241,134.7,242.9,131.72,242.9,131.72Z"/><path class="cls-7" d="M248.11,180.53s0,15.17-5.43,8.79c-2.12-2.49-.64-43.23-49-69.94,0,0-1.51-5.26,4.63-4.89C201.16,114.66,239.91,130.72,248.11,180.53Z"/><path class="cls-4" d="M245.05,191.95c-1,0-2.06-.63-3.17-1.94-.51-.6-.71-1.65-1.23-4.59a87.68,87.68,0,0,0-9.49-28.51c-8.13-14.85-20.93-27.17-38-36.61l-.38-.21-.12-.42a5.56,5.56,0,0,1,.66-4.47c1-1.31,2.68-1.91,5-1.76,1.69.1,12.27,4.2,23.59,14.69,10,9.3,22.9,25.9,27.24,52.24v.17a41,41,0,0,1-.39,5.33C248.55,187.37,247.88,191.95,245.05,191.95Zm-1.55-3.28c1,1.12,1.46,1.17,1.55,1.17.28,0,1.12-.77,1.63-4.26a39.28,39.28,0,0,0,.37-5c-4.25-25.65-16.76-41.83-26.52-50.89-10.82-10-21-14.08-22.34-14.18l-.54,0a3.21,3.21,0,0,0-2.69.95,3.13,3.13,0,0,0-.4,2.23c17.25,9.61,30.18,22.12,38.44,37.2a89.55,89.55,0,0,1,9.72,29.16A22.85,22.85,0,0,0,243.5,188.66Z"/><path class="cls-1" d="M236.25,155.08s-7.28-18.84-38-36c0,0-1.79-1.49-.37-2.09S230,132.27,236.25,155.08Z"/><path class="cls-13" d="M140.79,146.9c-10.67-.16-18.52,5.75-21.64,8.57a115.47,115.47,0,0,0,9.47,22c4-2.82,13.82-9.07,22-8.71A116.56,116.56,0,0,1,140.79,146.9Zm-10.27,23.2a63.14,63.14,0,0,1-5.17-12,17.72,17.72,0,0,1,11.81-4.68,63.61,63.61,0,0,0,5.37,11.95C138.06,165.15,132.7,168.56,130.52,170.1Z"/><path class="cls-4" d="M128.62,178.56l-.23,0a1.05,1.05,0,0,1-.69-.52,116.84,116.84,0,0,1-9.56-22.23,1.05,1.05,0,0,1,.3-1.09c2.95-2.66,11-8.85,21.92-8.85h.44a1.05,1.05,0,0,1,1,.73,116,116,0,0,0,9.76,21.7,1.05,1.05,0,0,1-1,1.58c-7.93-.35-17.63,5.88-21.36,8.51A1.05,1.05,0,0,1,128.62,178.56Zm-8.26-22.75A114.57,114.57,0,0,0,129,176c4.1-2.78,12.37-7.74,19.86-8.21A117.87,117.87,0,0,1,140,148C130.56,148.07,123.43,153.17,120.36,155.81Zm10.17,15.34-.23,0a1.06,1.06,0,0,1-.69-.52,64.23,64.23,0,0,1-5.25-12.22,1.06,1.06,0,0,1,.3-1.1,18.94,18.94,0,0,1,12.28-5h.25a1.05,1.05,0,0,1,1,.73,62.77,62.77,0,0,0,5.28,11.75,1.05,1.05,0,0,1-1,1.58c-4.18-.18-9.36,3.15-11.35,4.56A1.06,1.06,0,0,1,130.52,171.15Zm-4-12.73a61.94,61.94,0,0,0,4.32,10.14c2.47-1.63,6.25-3.74,9.88-4.19a64.65,64.65,0,0,1-4.37-9.91A16.78,16.78,0,0,0,126.57,158.42Z"/><path class="cls-4" d="M99.15,191.54l.16-.16a.79.79,0,1,0-1.12-1.12l-.16.16a.79.79,0,0,0,1.12,1.12Z"/><path class="cls-4" d="M98.09,190.44a23,23,0,0,0-2.91,7.31c-.21,1,1.32,1.42,1.53.42a21.68,21.68,0,0,1,2.75-6.93c.54-.87-.83-1.67-1.37-.8Z"/><path class="cls-4" d="M102.22,197.45a29.76,29.76,0,0,0-3.28,8.08c-.24,1,1.29,1.41,1.53.42a28.39,28.39,0,0,1,3.12-7.71.79.79,0,0,0-1.37-.8Z"/><path class="cls-4" d="M106,205.2a29.6,29.6,0,0,0-3.22,9.59c-.15,1,1.37,1.43,1.53.42a28.35,28.35,0,0,1,3.06-9.21c.48-.9-.88-1.7-1.37-.8Z"/><path class="cls-4" d="M110.5,212a41.14,41.14,0,0,0-2.37,10.1c-.11,1,1.48,1,1.58,0a39.57,39.57,0,0,1,2.31-9.68c.36-1-1.17-1.37-1.52-.42Z"/><path class="cls-4" d="M117,218.91a71.15,71.15,0,0,0-2.66,11c-.16,1,1.37,1.43,1.53.42a71.35,71.35,0,0,1,2.66-11c.32-1-1.21-1.38-1.53-.42Z"/><path class="cls-4" d="M122,228.15a68.55,68.55,0,0,0-1.26,8.77c-.08,1,1.5,1,1.58,0a65.27,65.27,0,0,1,1.2-8.35c.21-1-1.32-1.42-1.53-.42Z"/><path class="cls-4" d="M127.8,232a43.38,43.38,0,0,0-1.24,10.29.79.79,0,0,0,1.58,0,41.6,41.6,0,0,1,1.19-9.87c.24-1-1.29-1.41-1.53-.42Z"/><path class="cls-4" d="M134.18,235.57a46,46,0,0,0-1.65,10.77c0,1,1.55,1,1.58,0a44.12,44.12,0,0,1,1.6-10.35.79.79,0,0,0-1.53-.42Z"/><path class="cls-4" d="M140.32,241.74,139,249.85c-.17,1,1.36,1.42,1.53.42l1.34-8.11c.17-1-1.36-1.43-1.53-.42Z"/><path class="cls-4" d="M146.42,244l-1.58,9.42c-.17,1,1.36,1.43,1.53.42l1.58-9.42c.17-1-1.36-1.43-1.53-.42Z"/><path class="cls-4" d="M152.05,245.48a85.6,85.6,0,0,0-1.67,11.09c-.09,1,1.5,1,1.58,0a82,82,0,0,1,1.61-10.66c.22-1-1.31-1.42-1.53-.42Z"/><path class="cls-4" d="M157.48,247.79q-.57,4.54-1.14,9.09c-.13,1,1.46,1,1.58,0l1.14-9.09c.13-1-1.46-1-1.58,0Z"/><path class="cls-5" d="M160.75,256.23c-1.39,4.31-3.6,10.46-5.18,11.46,0,0-5.36,1.71-4.72,6.36s8.47,4.7,12.5-.25c2.69-3.3,9.6-1.52,10.16-10.49C165.81,261.17,162.32,258.34,160.75,256.23Z"/><path class="cls-4" d="M173.83,262.17c-4.17-1.19-9.2-2.87-12-6.47a1.27,1.27,0,0,0-2-.23,1,1,0,0,0-.35.76,59.86,59.86,0,0,1-3.32,8.59,12.5,12.5,0,0,1-.85,1.44,2.78,2.78,0,0,1-.35.39,10.9,10.9,0,0,0-1.61.76,7.1,7.1,0,0,0-3.7,5.07A5.2,5.2,0,0,0,152.5,278a9,9,0,0,0,7.08-.07,12.11,12.11,0,0,0,3.38-2,22.45,22.45,0,0,1,2.32-2.2c1.5-.93,3.29-1.32,4.84-2.15a8.44,8.44,0,0,0,4-4.78,13.41,13.41,0,0,0,.61-3.46A1.19,1.19,0,0,0,173.83,262.17Zm-18.66,4.4-.19.08C155.08,266.56,155.36,266.51,155.17,266.57ZM169.69,269a23.8,23.8,0,0,1-4.53,2.07c-1.88.82-2.84,2.4-4.45,3.56a8,8,0,0,1-6.58,1.44c-2.08-.57-2.63-2.8-1.69-4.6a6.42,6.42,0,0,1,3.31-2.63c1.61-.6,2.41-2.64,3.07-4.08a64,64,0,0,0,2.43-6.3c3,2.86,7.07,4.5,11,5.67A6.77,6.77,0,0,1,169.69,269Z"/><path class="cls-6" d="M191.94,236.6c-8.56-2-29.26,4.36-29.89,15.35,0,0-.52,1.84-1.31,4.28,1.58,2.12,5.07,4.94,12.77,7.09,0-.11,0-.22,0-.34s20.74-1,23.83-14.83C197.36,248.15,200.5,238.64,191.94,236.6Z"/><path class="cls-14" d="M167.53,260.3s26.43-8.78,28.34-21.62c0,0,10.21,19.46-22.36,24.64Z"/><path class="cls-4" d="M198,239.62a8.62,8.62,0,0,0-5.78-4.17c-4.25-1-8.87-.21-13,.88A34.18,34.18,0,0,0,165.86,243a15.1,15.1,0,0,0-4,5.1c-.87,1.88-1,3.74-1.56,5.66a9.77,9.77,0,0,0-.73,2.5,2.06,2.06,0,0,0,.67,1.25,13,13,0,0,0,2,1.94,27.06,27.06,0,0,0,7.35,3.89c1.17.44,2.37.81,3.58,1.15a1.13,1.13,0,0,0,1.18-.36,35.15,35.15,0,0,0,16.77-5.39C196.81,254.92,201.44,246.37,198,239.62Zm-1.5,6.88a15.24,15.24,0,0,1-4.94,8.9c-4.72,4.17-11.88,6-18,6.39h0a1.28,1.28,0,0,0-.52.14c-3.89-1.14-8.29-2.78-10.94-6a17.49,17.49,0,0,0,1.18-4.27,8.74,8.74,0,0,1,1.47-4c1.79-2.81,4.78-4.77,7.68-6.28a38.25,38.25,0,0,1,10.37-3.5,21.87,21.87,0,0,1,8.84-.22,6.17,6.17,0,0,1,4.76,4.07A9.82,9.82,0,0,1,196.54,246.5Z"/><path class="cls-4" d="M172.73,257.92l4.63,4.94c.7.75,1.82-.37,1.12-1.12l-4.63-4.94c-.7-.75-1.82.38-1.12,1.12Z"/><path class="cls-4" d="M176.79,257.1,182.3,262c.76.67,1.88-.44,1.12-1.12L177.9,256c-.76-.67-1.89.44-1.12,1.12Z"/><path class="cls-4" d="M181.17,255.76l5.63,4c.84.59,1.63-.79.8-1.37l-5.63-4c-.84-.59-1.63.79-.8,1.37Z"/><path class="cls-4" d="M186.13,253.25l4.4,3.38c.81.62,1.6-.75.8-1.37l-4.4-3.38c-.81-.62-1.6.75-.8,1.37Z"/><path class="cls-4" d="M189.67,251.11a29.57,29.57,0,0,1,3.95,3.12c.74.7,1.86-.42,1.12-1.12a31.77,31.77,0,0,0-4.27-3.37c-.85-.56-1.65.81-.8,1.37Z"/><path class="cls-4" d="M192.25,247.31l4.05,3.58c.76.67,1.88-.44,1.12-1.12l-4.05-3.58c-.76-.67-1.89.44-1.12,1.12Z"/><path class="cls-5" d="M259.32,230l0,.06a16.46,16.46,0,0,0-3.57-1.52s-1.27-.54-3.15-1.53A31.36,31.36,0,0,0,247.4,240a36.34,36.34,0,0,0,6.58-1,28.8,28.8,0,0,0,3.87-1.24,51.55,51.55,0,0,1,1.92-8.06A3.65,3.65,0,0,0,259.32,230Z"/><path class="cls-12" d="M258.25,235a50.61,50.61,0,0,1-10,1c-.37,1.08-.82,2.5-1.2,4a36.88,36.88,0,0,0,7-1,27,27,0,0,0,4.34-1.44l.52-2.7Z"/><path class="cls-6" d="M240,217.33a12.16,12.16,0,0,0-3-2.76c-4.08,1.5-10,6-14.59,18.88,5.83,5.16,16.41,7,25.07,6.53A31.36,31.36,0,0,1,252.57,227C249,225.18,243.34,221.73,240,217.33Z"/><path class="cls-14" d="M224.14,228.46a29.83,29.83,0,0,0-1.7,5.09c5.77,5,16,6.89,24.57,6.45.37-1.48.83-2.89,1.2-4A40.79,40.79,0,0,1,224.14,228.46Z"/><path class="cls-5" d="M236.92,214.58c-6.83-4.44-18.55-3.69-19,9.05a12.15,12.15,0,0,0,4.38,9.83C227,220.56,232.85,216.08,236.92,214.58Z"/><path class="cls-12" d="M218,223.09c0,.18,0,.36,0,.54a12.18,12.18,0,0,0,4.5,9.92,29.83,29.83,0,0,1,1.7-5.09A41.53,41.53,0,0,1,218,223.09Z"/><path class="cls-3" d="M271.37,229.51c-.7-1.39-5,0-5,0l0,.35a6.88,6.88,0,0,0-6.66-.12,51.55,51.55,0,0,0-1.92,8.06c.49-.2.94-.41,1.34-.62a4.93,4.93,0,0,0,1.21,0,11.06,11.06,0,0,0,8.16-5.23C270.14,231.36,271.84,230.46,271.37,229.51Z"/><path class="cls-7" d="M271.37,229.51c-.27-.54-1.06-.66-1.94-.61-3.53,4.25-8.82,5.63-10.57,6l-.52,2.7c.31-.14.6-.27.87-.41a4.93,4.93,0,0,0,1.21,0,11.06,11.06,0,0,0,8.16-5.23C270.14,231.36,271.84,230.46,271.37,229.51Z"/><path class="cls-4" d="M272.58,229.48a1.12,1.12,0,0,0-.19-.58c-1.28-2-4.45-1.15-6.3-.55l-.1,0a8.34,8.34,0,0,0-6.34.06,1.85,1.85,0,0,0-.25.15,1,1,0,0,0-.22.09h0c-1.95-1-4.05-1.67-6-2.69-4.59-2.43-9.12-5.39-12.36-9.52a10.36,10.36,0,0,0-3.17-2.91.91.91,0,0,0-.4-.21c-4.87-3-11.48-3.54-16.15.09-2.76,2.15-3.91,5.67-4.25,9a13.79,13.79,0,0,0,4.66,11.8c6.86,5.94,17.14,7.36,25.91,6.88a36.5,36.5,0,0,0,10.11-2,5.67,5.67,0,0,0,.9-.37,2.78,2.78,0,0,1,1.15-.42,8.29,8.29,0,0,0,2.36-.24,11,11,0,0,0,3.58-1.47,12.89,12.89,0,0,0,3.84-3.76C270.84,232.31,272.91,231.29,272.58,229.48Zm-15.15,4.38c-.09.42-.19.83-.27,1.25-.12.6-.23,1.2-.33,1.8a32.32,32.32,0,0,1-8,1.76A31.23,31.23,0,0,1,253,228.55c1.71.78,3.5,1.43,5.15,2.3-.07.31-.14.61-.22.9s-.15.61-.22.92S257.52,233.47,257.42,233.87ZM219.21,222.5a10.42,10.42,0,0,1,3.55-7.35c3.16-2.6,7.84-2.23,11.51-.63a16.39,16.39,0,0,0-1.7,1.08,25.1,25.1,0,0,0-6.49,7.15h0q-.55.88-1.06,1.79l-.36.67q-.29.54-.56,1.08c-.14.28-.28.55-.41.83q-.36.75-.69,1.5l-.37.86q-.25.59-.49,1.19l-.24.61A11.63,11.63,0,0,1,219.21,222.5Zm4.53,10.57c2.42-6.52,6.26-14.32,13-17.14a12.28,12.28,0,0,1,2.36,2.25c3.09,3.94,7.37,6.89,11.75,9.3a32.94,32.94,0,0,0-4.46,11.37C238.77,239.14,229.84,238,223.74,233.07Zm45-2.45a2.65,2.65,0,0,0-1.38,1,11.2,11.2,0,0,1-1.83,2.07,9.34,9.34,0,0,1-3.52,2,7.66,7.66,0,0,1-2.47.34h-.17l0-.13c.35-1.72.78-3.42,1.3-5.1l.07-.24a6.13,6.13,0,0,1,5.07.3,1.34,1.34,0,0,0,1.68-.47A9.27,9.27,0,0,1,270,230C269.61,230.21,268.86,230.57,268.75,230.62Z"/><path class="cls-4" d="M226.41,234.75l1.3-5.24a.79.79,0,0,0-1.53-.42l-1.3,5.24a.79.79,0,0,0,1.53.42Z"/><path class="cls-4" d="M229.58,236l.67-4.52c.15-1-1.38-1.43-1.53-.42l-.67,4.52c-.15,1,1.38,1.43,1.53.42Z"/><path class="cls-4" d="M233.6,237.68l1-5.09c.2-1-1.33-1.42-1.53-.42l-1,5.09c-.2,1,1.33,1.42,1.53.42Z"/><path class="cls-4" d="M237.54,238.38a16.26,16.26,0,0,0,1-4.08c.13-1-1.46-1-1.58,0a14.8,14.8,0,0,1-1,3.66c-.38.95,1.15,1.36,1.53.42Z"/><path class="cls-4" d="M240.88,239.66a12.22,12.22,0,0,0,1.63-4.59c.14-1-1.38-1.43-1.53-.42a11.16,11.16,0,0,1-1.47,4.21.79.79,0,0,0,1.37.8Z"/><path class="cls-4" d="M144,137.37h0a2.25,2.25,0,0,1-2.67-1.71L122.85,50.81a2.25,2.25,0,0,1,1.71-2.67h0a2.25,2.25,0,0,1,2.67,1.71l18.46,84.84A2.25,2.25,0,0,1,144,137.37Z"/><polygon class="cls-1" points="126.09 55.14 111.41 49.64 118.14 80.55 132.79 85.94 126.09 55.14"/><path class="cls-4" d="M133.94,85.62l-6.7-30.8a1,1,0,0,0-.84-.83l-14.66-5.5c-.91-.34-1.64.66-1.46,1.46l3.92,18,2.31,10.6L117,80.8c.19.87,1.37,1.09,2.09,1.36l13.4,4.93C133.38,87.42,134.11,86.43,133.94,85.62ZM113,51.51l12,4.51,6.11,28.07-12-4.42Z"/><polygon class="cls-1" points="126.09 55.14 137.16 44.04 143.88 74.95 132.79 85.94 126.09 55.14"/><path class="cls-4" d="M145,74.5l-4.28-19.65L138.3,43.72a1.2,1.2,0,0,0-2-.52L125.25,54.3a1.08,1.08,0,0,0-.32,1,1.28,1.28,0,0,0,0,.15l6.7,30.8a1.2,1.2,0,0,0,2,.52l6.57-6.51L144,76.52C144.59,75.92,145.21,75.46,145,74.5Zm-11.51,9.07-6.1-28.06,9.08-9.1,6.12,28.15Z"/><line class="cls-1" x1="142.39" y1="68.08" x2="131.3" y2="79.07"/><path class="cls-4" d="M141.55,67.24l-11.09,11a1.19,1.19,0,0,0,1.68,1.68l11.09-11a1.19,1.19,0,0,0-1.68-1.68Z"/><line class="cls-1" x1="140.61" y1="59.89" x2="129.51" y2="70.88"/><path class="cls-4" d="M139.77,59.06,128.67,70a1.19,1.19,0,0,0,1.68,1.68l11.09-11a1.19,1.19,0,0,0-1.68-1.68Z"/><line class="cls-1" x1="139.02" y1="52.59" x2="127.92" y2="63.57"/><path class="cls-4" d="M138.18,51.75l-11.09,11a1.19,1.19,0,0,0,1.68,1.68l11.09-11a1.19,1.19,0,0,0-1.68-1.68Z"/><line class="cls-1" x1="116.64" y1="73.68" x2="131.3" y2="79.07"/><path class="cls-4" d="M116.32,74.83,131,80.21c1.44.53,2.06-1.77.63-2.29L117,72.54c-1.44-.53-2.06,1.77-.63,2.29Z"/><line class="cls-1" x1="114.86" y1="65.5" x2="129.51" y2="70.88"/><path class="cls-4" d="M114.54,66.64,129.2,72c1.44.53,2.06-1.77.63-2.29l-14.66-5.38c-1.44-.53-2.05,1.77-.63,2.29Z"/><line class="cls-1" x1="113.27" y1="58.19" x2="127.92" y2="63.57"/><path class="cls-4" d="M113,59.33l14.66,5.38c1.44.53,2.05-1.77.63-2.29L113.59,57c-1.44-.53-2.06,1.77-.63,2.29Z"/><path class="cls-4" d="M276.75,175h0a1.84,1.84,0,0,1-2.18-1.4l-15.08-69.31a1.83,1.83,0,0,1,1.4-2.18h0a1.84,1.84,0,0,1,2.18,1.4l15.08,69.31A1.84,1.84,0,0,1,276.75,175Z"/><polygon class="cls-1" points="262.14 107.8 250.14 103.3 255.64 128.56 267.61 132.96 262.14 107.8"/><path class="cls-4" d="M268.75,132.64l-5.47-25.16a1,1,0,0,0-.84-.83l-12-4.49c-.91-.34-1.64.65-1.46,1.46l4.17,19.16,1,4.57c.15.69.2,1.84.88,2.24a20.88,20.88,0,0,0,3.31,1.23l5.91,2.17,3,1.11C268.2,134.43,268.93,133.45,268.75,132.64Zm-12.09-5-4.89-22.5,9.35,3.5L266,131.1Z"/><polygon class="cls-1" points="262.14 107.8 271.18 98.73 276.67 123.98 267.61 132.96 262.14 107.8"/><path class="cls-4" d="M277.45,122l-4.74-21.79-.39-1.8a1.2,1.2,0,0,0-2-.52l-9,9.07a1.08,1.08,0,0,0-.32,1,1.25,1.25,0,0,0,0,.15l5.47,25.16a1.2,1.2,0,0,0,2,.52l6.93-6.86c.67-.66,2.17-1.66,2.44-2.63A5.77,5.77,0,0,0,277.45,122Zm-14-13.83,7.05-7.07,4.89,22.49-7.07,7Z"/><line class="cls-1" x1="275.45" y1="118.37" x2="266.39" y2="127.34"/><path class="cls-4" d="M274.61,117.53l-9.06,9a1.19,1.19,0,0,0,1.68,1.68l9.06-9a1.19,1.19,0,0,0-1.68-1.68Z"/><line class="cls-1" x1="274" y1="111.68" x2="264.93" y2="120.66"/><path class="cls-4" d="M273.16,110.84l-9.06,9a1.19,1.19,0,0,0,1.68,1.68l9.06-9a1.19,1.19,0,0,0-1.68-1.68Z"/><line class="cls-1" x1="272.7" y1="105.71" x2="263.63" y2="114.69"/><path class="cls-4" d="M271.86,104.87l-9.06,9a1.19,1.19,0,0,0,1.68,1.68l9.06-9a1.19,1.19,0,0,0-1.68-1.68Z"/><line class="cls-1" x1="254.42" y1="122.94" x2="266.39" y2="127.34"/><path class="cls-4" d="M254.1,124.09l12,4.4c1.44.53,2.06-1.77.63-2.29l-12-4.4c-1.44-.53-2.06,1.77-.63,2.29Z"/><line class="cls-1" x1="252.96" y1="116.26" x2="264.93" y2="120.66"/><path class="cls-4" d="M252.65,117.4l12,4.4c1.44.53,2.06-1.77.63-2.29l-12-4.4c-1.44-.53-2.05,1.77-.63,2.29Z"/><line class="cls-1" x1="251.66" y1="110.29" x2="263.63" y2="114.69"/><path class="cls-4" d="M251.35,111.43l12,4.4c1.44.53,2.05-1.77.63-2.29l-12-4.4c-1.44-.53-2.06,1.77-.63,2.29Z"/><path class="cls-4" d="M55.76,258.23h0a2.68,2.68,0,0,1-3.17-2L34.1,170.38a2.67,2.67,0,0,1,2-3.17h0a2.68,2.68,0,0,1,3.17,2L57.8,255.05A2.68,2.68,0,0,1,55.76,258.23Z"/><polygon class="cls-1" points="37.95 175.52 20.49 168.98 28.49 205.75 45.92 212.16 37.95 175.52"/><path class="cls-4" d="M47.07,211.84l-7.87-36.19-.1-.45a1,1,0,0,0-.84-.83L20.8,167.84c-.91-.34-1.64.65-1.46,1.46l7.9,36.32c.2.93.81,1.24,1.65,1.55l5.79,2.13,10.92,4C46.51,213.64,47.24,212.65,47.07,211.84Zm-17.56-7-7.4-34,14.82,5.55,7.37,33.9Z"/><polygon class="cls-1" points="37.95 175.52 51.12 162.32 59.12 199.09 45.92 212.16 37.95 175.52"/><path class="cls-4" d="M59.53,195.4l-2.32-10.67L52.26,162a1.2,1.2,0,0,0-2-.52L37.11,174.68a1.08,1.08,0,0,0-.32,1,1.31,1.31,0,0,0,0,.16L44.68,212l.1.45a1.2,1.2,0,0,0,2,.52l13.07-12.95C60.83,199.07,59.78,196.55,59.53,195.4ZM39.25,175.9,50.42,164.7l7.4,34-11.2,11.09Z"/><line class="cls-1" x1="57.34" y1="190.92" x2="44.14" y2="203.99"/><path class="cls-4" d="M56.5,190.08,43.3,203.15A1.19,1.19,0,0,0,45,204.82l13.2-13.07a1.19,1.19,0,0,0-1.68-1.68Z"/><line class="cls-1" x1="55.22" y1="181.18" x2="42.02" y2="194.25"/><path class="cls-4" d="M54.38,180.34l-13.2,13.07a1.19,1.19,0,0,0,1.68,1.68L56.06,182a1.19,1.19,0,0,0-1.68-1.68Z"/><line class="cls-1" x1="53.33" y1="172.49" x2="40.13" y2="185.56"/><path class="cls-4" d="M52.49,171.65,39.29,184.72A1.19,1.19,0,0,0,41,186.39l13.2-13.07a1.19,1.19,0,0,0-1.68-1.68Z"/><line class="cls-1" x1="26.71" y1="197.58" x2="44.14" y2="203.99"/><path class="cls-4" d="M26.4,198.72l17.43,6.41c1.44.53,2.06-1.77.63-2.29L27,196.44c-1.44-.53-2.05,1.77-.63,2.29Z"/><line class="cls-1" x1="24.59" y1="187.84" x2="42.02" y2="194.25"/><path class="cls-4" d="M24.28,189l17.43,6.41c1.44.53,2.05-1.77.63-2.29l-17.43-6.4c-1.44-.53-2.06,1.77-.63,2.29Z"/><line class="cls-1" x1="22.7" y1="179.15" x2="40.13" y2="185.56"/><path class="cls-4" d="M22.39,180.3l17.43,6.4c1.44.53,2.06-1.77.63-2.29L23,178c-1.44-.53-2.06,1.77-.63,2.29Z"/><polygon class="cls-15" points="118.67 88.04 86.68 101.03 93.42 117.94 125.41 104.95 133.44 91.95 118.67 88.04"/><path class="cls-4" d="M133.76,90.8,119.31,87a.94.94,0,0,0-1-.09h0l-.15.06L86.36,99.88a1.2,1.2,0,0,0-.83,1.46l6.75,16.91a1.2,1.2,0,0,0,1.46.83l16.36-6.64,11-4.48,3.49-1.42c.56-.23,1.49-.46,1.82-1l8-13A1.2,1.2,0,0,0,133.76,90.8ZM124.6,104,94.08,116.4l-5.87-14.72,30.52-12.39,12.86,3.4Z"/><polygon class="cls-15" points="33.2 213.11 1.21 226.1 7.96 243 39.94 230.02 47.97 217.02 33.2 213.11"/><path class="cls-4" d="M48.29,215.87l-14.45-3.82a.94.94,0,0,0-1-.09h0l-.16.06L.9,225a1.2,1.2,0,0,0-.83,1.46l6.75,16.91a1.2,1.2,0,0,0,1.46.83l16.36-6.64,11-4.48,3.49-1.41c.56-.23,1.49-.46,1.82-1l8-13A1.2,1.2,0,0,0,48.29,215.87Zm-9.16,13.21L8.61,241.47,2.74,226.75l30.52-12.39,12.86,3.4Z"/><path class="cls-1" d="M96.64,110.36a1.29,1.29,0,0,1,0-.81.8.8,0,0,1,.46-.59.86.86,0,0,1,.48,0,3.24,3.24,0,0,1,.56.17,2,2,0,0,0,.68.13,2,2,0,0,0,.81-.14,1.85,1.85,0,0,0,.78-.54.73.73,0,0,0,.12-.77,1,1,0,0,0-.7-.57A5.22,5.22,0,0,0,98.6,107c-.46,0-.93-.06-1.41-.12a3.1,3.1,0,0,1-1.37-.52,2.62,2.62,0,0,1-1-1.26,2.45,2.45,0,0,1,.17-2.38,4.18,4.18,0,0,1,2-1.56,7.24,7.24,0,0,1,.71-.23,6.64,6.64,0,0,1,.87-.17,1.84,1.84,0,0,1,.87.07.83.83,0,0,1,.52.49,1.5,1.5,0,0,1,.06.78.69.69,0,0,1-.44.58,2.2,2.2,0,0,1-.74,0,2.61,2.61,0,0,0-1.18.18,1.78,1.78,0,0,0-.86.59.69.69,0,0,0-.11.66.74.74,0,0,0,.51.42,2.94,2.94,0,0,0,.9.12,10.11,10.11,0,0,1,1.14.07,7.92,7.92,0,0,1,1.2.22,2.69,2.69,0,0,1,1.09.62,3.12,3.12,0,0,1,.82,1.21,2.69,2.69,0,0,1-.08,2.38,3.71,3.71,0,0,1-2,1.62,4.66,4.66,0,0,1-2.34.33Q96.89,111,96.64,110.36Z"/><path class="cls-1" d="M103.48,108.5a.71.71,0,0,1,0-.15l-.66-8.65a.89.89,0,0,1,.27-.67,2.25,2.25,0,0,1,1.66-.65.88.88,0,0,1,.65.31l5.39,6.8.08.13a.73.73,0,0,1-.19.73,1.81,1.81,0,0,1-.76.57c-.36.14-.63.1-.79-.12l-1-1.41-2.67,1,.19,1.75c0,.27-.14.48-.5.62a1.79,1.79,0,0,1-.95.09A.73.73,0,0,1,103.48,108.5Zm1.71-3.73L107,104l-2.25-3Z"/><path class="cls-1" d="M111.65,105.54l-3.15-8.06a.52.52,0,0,1,.12-.56,1.8,1.8,0,0,1,1.39-.54.52.52,0,0,1,.47.33l2.71,6.94,2.89-1.13a.5.5,0,0,1,.52.09,1.38,1.38,0,0,1,.47,1.22.5.5,0,0,1-.32.42l-4,1.56a1.2,1.2,0,0,1-.67.08A.54.54,0,0,1,111.65,105.54Z"/><path class="cls-1" d="M117.88,103.11l-3.14-8a.54.54,0,0,1,.08-.55,1.2,1.2,0,0,1,.55-.4l4.51-1.76a.53.53,0,0,1,.54.08,1.36,1.36,0,0,1,.47,1.22.53.53,0,0,1-.34.43l-3.39,1.33.84,2.14,1.9-.74a.54.54,0,0,1,.53.06,1,1,0,0,1,.37.48,1,1,0,0,1,0,.58.53.53,0,0,1-.35.4l-1.9.74.84,2.15,3.39-1.33a.53.53,0,0,1,.54.08,1.36,1.36,0,0,1,.48,1.21.52.52,0,0,1-.34.43L119,103.38a1.19,1.19,0,0,1-.67.08A.54.54,0,0,1,117.88,103.11Z"/><polygon class="cls-15" points="283.3 148.92 308.79 138.57 303.41 125.11 277.92 135.45 271.52 145.81 283.3 148.92"/><path class="cls-4" d="M309.93,138.26l-5.38-13.47a1.2,1.2,0,0,0-1.46-.83l-17.85,7.25-7.49,3c-.84.34-1.15,1.09-1.61,1.83L273,141.14l-2.52,4.08a1.2,1.2,0,0,0,.71,1.74l11.44,3a.94.94,0,0,0,1,.09h0l.15-.06,25.31-10.28A1.2,1.2,0,0,0,309.93,138.26Zm-31.2-1.87,24-9.75,4.5,11.28-24,9.75-9.86-2.6Z"/><path class="cls-1" d="M280.56,144.89a1,1,0,0,1,0-.65.63.63,0,0,1,.37-.47.67.67,0,0,1,.38,0,2.54,2.54,0,0,1,.45.14,1.57,1.57,0,0,0,.54.1,1.6,1.6,0,0,0,.64-.11,1.49,1.49,0,0,0,.62-.43.58.58,0,0,0,.1-.61.78.78,0,0,0-.56-.46,4,4,0,0,0-1-.15c-.37,0-.74,0-1.13-.1a2.49,2.49,0,0,1-1.09-.42,2.09,2.09,0,0,1-.77-1,2,2,0,0,1,.13-1.9,3.34,3.34,0,0,1,1.62-1.24,5.21,5.21,0,0,1,.56-.18,5,5,0,0,1,.69-.13,1.48,1.48,0,0,1,.7.06.66.66,0,0,1,.41.39,1.17,1.17,0,0,1,0,.62.55.55,0,0,1-.35.47,1.77,1.77,0,0,1-.59,0,2.09,2.09,0,0,0-.94.15,1.42,1.42,0,0,0-.69.47.55.55,0,0,0-.08.53.58.58,0,0,0,.4.33,2.31,2.31,0,0,0,.72.1,8.24,8.24,0,0,1,.91.05,6.31,6.31,0,0,1,1,.17,2.14,2.14,0,0,1,.87.49,2.46,2.46,0,0,1,.65,1,2.14,2.14,0,0,1-.06,1.89,3,3,0,0,1-1.6,1.29,3.7,3.7,0,0,1-1.86.26C281.05,145.43,280.69,145.22,280.56,144.89Z"/><path class="cls-1" d="M286,143.41a.47.47,0,0,1,0-.12l-.53-6.89a.69.69,0,0,1,.21-.53,1.79,1.79,0,0,1,1.32-.52.69.69,0,0,1,.52.24l4.29,5.42.06.1a.58.58,0,0,1-.15.58,1.44,1.44,0,0,1-.61.46q-.44.17-.63-.09l-.84-1.13-2.13.83.15,1.4c0,.22-.11.38-.4.49a1.44,1.44,0,0,1-.76.07A.58.58,0,0,1,286,143.41Zm1.36-3,1.47-.58-1.79-2.42Z"/><path class="cls-1" d="M292.52,141.05,290,134.63a.41.41,0,0,1,.09-.45,1.43,1.43,0,0,1,1.11-.43.41.41,0,0,1,.37.26l2.16,5.53,2.3-.9a.4.4,0,0,1,.41.07,1.09,1.09,0,0,1,.38,1,.4.4,0,0,1-.25.33l-3.19,1.25a1,1,0,0,1-.53.06A.44.44,0,0,1,292.52,141.05Z"/><path class="cls-1" d="M297.49,139.11,295,132.7a.43.43,0,0,1,.06-.44,1,1,0,0,1,.44-.32l3.59-1.4a.42.42,0,0,1,.43.06,1.08,1.08,0,0,1,.37,1,.42.42,0,0,1-.27.34l-2.7,1.06.67,1.71,1.51-.59a.43.43,0,0,1,.42,0,.8.8,0,0,1,.29.38.77.77,0,0,1,0,.46.43.43,0,0,1-.28.32l-1.51.59.67,1.72,2.71-1.06a.42.42,0,0,1,.43.07,1,1,0,0,1,.32.45,1,1,0,0,1,.07.52.42.42,0,0,1-.28.34l-3.59,1.4a1,1,0,0,1-.53.06A.44.44,0,0,1,297.49,139.11Z"/><path class="cls-1" d="M11.74,236.42,8.32,228.5a.54.54,0,0,1,.06-.55,1.21,1.21,0,0,1,.53-.41l4.33-1.87a.52.52,0,0,1,.54.06,1.36,1.36,0,0,1,.51,1.2.53.53,0,0,1-.32.44l-3.23,1.4.91,2.11,1.88-.81a.55.55,0,0,1,.53,0,1,1,0,0,1,.39.47,1,1,0,0,1,.07.58.54.54,0,0,1-.34.41l-1.88.81,1.39,3.22a.53.53,0,0,1-.1.57,1.73,1.73,0,0,1-1.37.59A.53.53,0,0,1,11.74,236.42Z"/><path class="cls-1" d="M18.17,233.65l-3.43-7.94a.62.62,0,0,1,0-.49.63.63,0,0,1,.36-.36l2.58-1.12q3.07-1.33,4.22,1.35a2.64,2.64,0,0,1-.42,3.19l2.71,2.1a.4.4,0,0,1,.16.2,1,1,0,0,1-.1.86,1.4,1.4,0,0,1-.69.68.71.71,0,0,1-.78-.09l-3.14-2.58-.82.36,1.3,3a.52.52,0,0,1-.1.57,1.52,1.52,0,0,1-.62.45,1.54,1.54,0,0,1-.75.14A.53.53,0,0,1,18.17,233.65Zm0-5.35,1.24-.53a1.37,1.37,0,0,0-.05-2.42,1.28,1.28,0,0,0-1,.09l-1.24.53Z"/><path class="cls-1" d="M25.46,230.5,22,222.57a.53.53,0,0,1,.06-.55,1.2,1.2,0,0,1,.53-.42l4.44-1.92a.53.53,0,0,1,.55.06,1.23,1.23,0,0,1,.4.52,1.24,1.24,0,0,1,.11.68.52.52,0,0,1-.32.44l-3.35,1.45.91,2.11,1.87-.81a.54.54,0,0,1,.53,0,1,1,0,0,1,.39.47,1,1,0,0,1,.07.58.54.54,0,0,1-.34.41l-1.87.81.92,2.12,3.35-1.45a.53.53,0,0,1,.54.06,1.24,1.24,0,0,1,.42.54,1.21,1.21,0,0,1,.1.65.52.52,0,0,1-.33.44l-4.45,1.92a1.19,1.19,0,0,1-.67.1A.54.54,0,0,1,25.46,230.5Z"/><path class="cls-1" d="M32.19,227.59l-3.42-7.93a.54.54,0,0,1,.06-.55,1.22,1.22,0,0,1,.53-.41l4.45-1.92a.52.52,0,0,1,.54.06,1.22,1.22,0,0,1,.4.52,1.24,1.24,0,0,1,.11.68.53.53,0,0,1-.32.44l-3.35,1.44L32.1,222l1.87-.81a.55.55,0,0,1,.53,0,1,1,0,0,1,.39.47,1,1,0,0,1,.07.58.54.54,0,0,1-.34.41l-1.87.81.92,2.12L37,224.21a.53.53,0,0,1,.54.06,1.37,1.37,0,0,1,.52,1.2.52.52,0,0,1-.33.44l-4.44,1.92a1.2,1.2,0,0,1-.67.1A.54.54,0,0,1,32.19,227.59Z"/><circle class="cls-7" cx="293.54" cy="227.04" r="6.59" transform="translate(-52.12 92) rotate(-16.38)"/><path class="cls-4" d="M293.54,234.56h0a7.52,7.52,0,1,1,2.12-.31A7.55,7.55,0,0,1,293.54,234.56Zm0-13.19a5.67,5.67,0,0,0,0,11.34h0a5.67,5.67,0,0,0,0-11.34Z"/><path class="cls-1" d="M293.7,223l-3.13,7.24a5.1,5.1,0,0,1-1.14-4.57C290.16,223,293.7,223,293.7,223Z"/><circle class="cls-13" cx="134.27" cy="162.32" r="17.44" transform="translate(-60.49 82.04) rotate(-28)"/><path class="cls-4" d="M141.66,176.35a15.85,15.85,0,1,1,8.35-12,16.09,16.09,0,0,1-8.35,12c-1.79,1-.19,3.71,1.6,2.73A19,19,0,1,0,121,175.93a19.19,19.19,0,0,0,22.28,3.16C145.07,178.14,143.47,175.41,141.66,176.35Z"/><path class="cls-4" d="M144.42,162.2,147,167l-1.83,1-2.55-4.8-1,.52-1-1.85,1-.52-2.39-4.51-1,.52-1-1.87,1-.52-2.55-4.8,1.83-1L140,154l1-.53,1,1.87-1,.53,2.4,4.5,1-.53,1,1.85Zm-8.84-5.82,1.23,2.31-3.63-.59-9.84,5.23-1-1.83,7.39-3.93-1.81-.28L126.72,155Zm-3.93,9.77-3.14,1.67,3.72,7-1.83,1L125.71,167l12.08-6.42,1,1.83-4.85,2.58,3.71,1.91L139.3,170Z"/></g></svg>