<svg xmlns="http://www.w3.org/2000/svg" viewBox="0 0 310 290"><defs><style>.cls-1{fill:#fff;}.cls-2{fill:#162585;}.cls-3{fill:#e6e6e6;}.cls-4{fill:#b3b3b3;}.cls-5{fill:#ccc;}.cls-6{fill:#754c24;}.cls-7{fill:#fbd23b;}.cls-8{fill:#c9a82f;}.cls-9{fill:#fbe66d;}.cls-10{fill:#93278f;}.cls-11{fill:#ff4a46;}.cls-12{fill:#436f3a;}.cls-13{fill:#d21e1e;}.cls-14{fill:#534741;}</style></defs><title>princess-bell</title><g id="圖層_1" data-name="圖層 1"><polygon class="cls-1" points="231.98 97.56 260.25 84.44 291.49 107.41 280.91 126.98 244.48 122.07 231.98 97.56"/><path class="cls-2" d="M247.38,98c-.62-1.13-2.52.92-3.58,1.53a38.26,38.26,0,0,1-5.49,2.6c-4.24,1.62-9.18,1.13-13.63,1.11a1.5,1.5,0,0,0,0,3c6.72,0,12.72.08,18.76-3.21,1.82-1,8.26-3.45,6.54-6.55-.94-1.69-3.53-.18-2.59,1.51Z"/><path class="cls-1" d="M215,130.9c.2,2.19,77.69,24.47,77.69,24.47l-40.51,45.19-51,85.45-90.87-15.35L77.62,240.54l-66.93-16.7,145.13-93.28Z"/><path class="cls-3" d="M199.19,144.39c7.58-5,29.88-6,34.34,4.41,0,0,1.15,1.6,2.77,3.69,2.86,3.69,7.16,8.88,9,9.3,0,0,5.8-.22,6.8,4.52s-6.57,7.52-12.21,4.14c-3.76-2.25-9.84,1.89-13.52-6.61l-.14-.32s-20.44,6.34-28.29-6C198,157.48,191.61,149.36,199.19,144.39Z"/><path class="cls-4" d="M228,154.47s3.53,10,8.73,9.81,17.71,1.19,15.2,4.27-8.76,3.53-13.38,1.11-10.63.43-11.88-1.11S228,154.47,228,154.47Z"/><path class="cls-2" d="M252.78,164.46c-.89-2-3.1-3.22-5.18-3.67a11,11,0,0,0-2-.23c-.32,0-.09,0-.1,0a6.19,6.19,0,0,1-1.41-1,53.83,53.83,0,0,1-6.43-7.29,30.16,30.16,0,0,1-3.36-4.71,11.35,11.35,0,0,0-3.34-3.8,22.4,22.4,0,0,0-10.62-3.84,42.59,42.59,0,0,0-12.06.21,25,25,0,0,0-9.68,3.25,9.07,9.07,0,0,0-4.3,6.75,11.52,11.52,0,0,0,1.54,6.23,17.74,17.74,0,0,0,8.47,8c6.48,2.88,14.52,2.45,21.32.6a10,10,0,0,0,5.2,5.2c2,.8,4.22.58,6.3.72a5.68,5.68,0,0,1,2.55.79,12.09,12.09,0,0,0,4.52,1.4,9.8,9.8,0,0,0,7.5-2.11C253.65,169.29,253.76,166.71,252.78,164.46Zm-2,3.62c-.43,1.3-2,2-3.23,2.34a9.28,9.28,0,0,1-5.6-.33c-1.36-.47-2.41-1.3-3.87-1.53a33.36,33.36,0,0,0-3.72-.21,8,8,0,0,1-3.64-.89c-1.72-1-2.7-2.84-3.43-4.57a1.21,1.21,0,0,0-1.38-.56,33.59,33.59,0,0,1-18.23.68,15.83,15.83,0,0,1-6-3.06,13.63,13.63,0,0,1-2.33-2.54c-.19-.27-.36-.54-.56-.8l.12.15c-.12-.16-.23-.32-.34-.49a12,12,0,0,1-1.86-4.59c-.45-2.61,1-4.81,3-6.24,3.68-2.37,8.43-3.11,12.71-3.39,4.9-.32,10.22.08,14.71,2.25a11,11,0,0,1,4.69,4,65.15,65.15,0,0,0,4.46,6.25,48.19,48.19,0,0,0,6.4,7.07,4.53,4.53,0,0,0,2.55,1.38,6.74,6.74,0,0,1,1.21.07C248.94,163.44,251.74,165.28,250.82,168.09Z"/><path class="cls-5" d="M63.08,198.86s-4.37-30.95,7.31-32.45,18.14,33.92,18.14,33.92Z"/><path class="cls-2" d="M88.52,200.74h0l-25.45-1.47a.41.41,0,0,1-.38-.35,100.05,100.05,0,0,1-.8-12c0-8.66,1.23-14.74,3.77-18.07a6.91,6.91,0,0,1,4.7-2.85,6.06,6.06,0,0,1,.77-.05c11.3,0,17.41,32.11,17.81,34.24a.4.4,0,0,1,0,.14.41.41,0,0,1-.41.41Zm-25.09-2.27L88,199.9c-.83-4.23-6.89-33.12-16.92-33.12a5.16,5.16,0,0,0-.67,0,6.13,6.13,0,0,0-4.15,2.54C60.87,176.46,63.08,195.71,63.44,198.48Z"/><path class="cls-4" d="M56.33,194.29s1.3,14.92,6.63,8.34c2.12-2.62-4.64-44.31,41.63-77.57,0,0,.93-5.4-5.34-4.44C96,121.11,55.82,142,56.33,194.29Z"/><path class="cls-2" d="M60.45,205.39h0c-1.94,0-3.36-1.91-4.33-5.83a37.6,37.6,0,0,1-.87-5.17v-.08a88.1,88.1,0,0,1,6.11-33.9,80.19,80.19,0,0,1,14.21-23.07c10.64-12.11,21.67-17.5,23.53-17.79,2.53-.39,4.4.11,5.54,1.47a5.66,5.66,0,0,1,1,4.23l-.08.44-.36.26c-37.8,27.17-39.8,59.8-40.55,72.09-.21,3.38-.31,4.59-.87,5.28C62.68,204.71,61.58,205.39,60.45,205.39Zm-3-11.15c.38,4.25,1.75,9,3,9h0c.19,0,.72-.12,1.64-1.24a24,24,0,0,0,.42-4.08A94,94,0,0,1,69,166.82c6.61-16.3,18.22-30.55,34.52-42.36a3.12,3.12,0,0,0-.59-2.06c-.62-.73-1.84-1-3.54-.71-1.42.22-12.14,5.58-22.23,17.07a78,78,0,0,0-13.82,22.45A85.91,85.91,0,0,0,57.42,194.23Z"/><path class="cls-4" d="M59.53,167.32c1.73-4.23,3.29-9.54,5-13.77.1-.24-5.53-1.75-7.42-3.09,0,1.13-4.12,4.88,1.46,6.06.29.06-2.87,10-3.57,11.53C55,168,58.61,169.57,59.53,167.32Z"/><path class="cls-2" d="M57.4,169.5h0a8,8,0,0,1-2.75-.58,1,1,0,0,1-.49-1.27c.59-1.3,2.77-8.14,3.36-10.43A3.8,3.8,0,0,1,55,155.31c-.66-1.47.22-3,.81-4.09a6.11,6.11,0,0,0,.41-.8,1,1,0,0,1,1.5-.74A27.46,27.46,0,0,0,63,151.89c1.94.67,2.24.77,2.46,1.25a1,1,0,0,1,0,.77c-.85,2.09-1.69,4.5-2.49,6.83s-1.65,4.8-2.53,6.94A3,3,0,0,1,57.4,169.5Zm-1.12-2.05a4.86,4.86,0,0,0,1.12.15c1,0,1.18-.45,1.26-.64.86-2.09,1.69-4.5,2.49-6.84.71-2.05,1.44-4.17,2.19-6.09l-1-.35a41.3,41.3,0,0,1-4.73-1.85l-.18.32c-.42.75-1,1.78-.74,2.37s.95.82,2.1,1.06a1,1,0,0,1,.67.51c.2.4.31.6-1.41,6C57.47,164,56.76,166.12,56.28,167.45Z"/><path class="cls-1" d="M65.36,166.8s5.14-20.17,34.5-41.47c0,0,1.66-1.74.12-2.18S69,142.69,65.36,166.8Z"/><circle class="cls-4" cx="51.38" cy="150.38" r="6.79" transform="translate(-107.39 157.27) rotate(-73.62)"/><path class="cls-2" d="M51.38,158.13a7.75,7.75,0,1,1,7.43-5.56A7.76,7.76,0,0,1,51.38,158.13Zm0-13.59a5.87,5.87,0,0,0-5.6,4.2,5.84,5.84,0,0,0,4,7.25A5.84,5.84,0,0,0,57,152a5.85,5.85,0,0,0-5.61-7.49Z"/><path class="cls-1" d="M51.22,146.17l3.23,7.47a5.26,5.26,0,0,0,1.17-4.71C54.87,146.24,51.22,146.17,51.22,146.17Z"/><path class="cls-6" d="M132.72,212.76c-4.3-2.36-8.72-4.47-13.22-6.42-1.42-.61-2.67,1.41-1.24,2.11l13.22,6.42c1.41.69,2.65-1.42,1.24-2.11l-13.22-6.42-1.24,2.11c4.5,1.95,8.92,4.06,13.22,6.42C132.87,215.63,134.1,213.52,132.72,212.76Z"/><path class="cls-7" d="M102.57,199.55q3.22,1.73,6.8,3.49,2.58,1.26,5.36,2.52,1.94.88,4,1.76l.19.08,12.76,6.2.46.22c28.25,15.56,27.67,29.86,16.78,34.9a36.72,36.72,0,0,1-10.61-2.18c-9.78-3.6-17.71-9-24.75-14.75-3.47-2.85-6.73-5.79-9.87-8.67C90.91,211.47,80,201,63.34,202.88c0,0-.41.9-.22-1.84s0-5.95,11.15-3.24c12.66,3.07,15.45,2.63,6.33-7.56l-1.23-1.36c-4.59-5.06-9.19-10-10.57-16.38,2.5,3.59,7.07,8.91,15,15.07,2.48,1.92,5.3,3.91,8.49,6Z"/><path class="cls-2" d="M152.42,227.95c-4-5.05-9.39-9-14.79-12.32a153,153,0,0,0-14.46-7.5c-6.66-3.23-13.46-6.12-20-9.63-4-2.36-8.12-4.61-12-7.18-8-5.27-15.79-11.55-21.32-19.43a1.23,1.23,0,0,0-2.24.94c1.68,7.39,7.23,12.83,12.12,18.28a29.31,29.31,0,0,1,4.78,6.3,2.91,2.91,0,0,1,.22.7l-.06,0a2.87,2.87,0,0,1-.92.12,29.32,29.32,0,0,1-7.14-1.15c-3.12-.71-6.28-1.62-9.5-1.54a5.26,5.26,0,0,0-4.32,1.86,6.34,6.34,0,0,0-.87,3.37c-.06.9-.35,2.38.41,3.1a1.3,1.3,0,0,0,1.51.19,33,33,0,0,1,19.11,4.13c6.23,3.41,11.57,8.25,16.79,13,5.85,5.32,11.64,10.69,18,15.41a81.75,81.75,0,0,0,20.21,11.1,36.82,36.82,0,0,0,5.73,1.58c.91.18,1.83.3,2.76.42s2.21.46,3.07.05a15.62,15.62,0,0,0,4-2.71,11.08,11.08,0,0,0,3.5-8.28C157,234.73,154.84,231,152.42,227.95Zm-88.1-25.42c0,.1,0,.12,0,0Zm-2-.26c-.17.34-.18-.29.45-.44A1,1,0,0,0,62.29,202.26Zm91.2,41a9.81,9.81,0,0,1-2.85,3.06,14.84,14.84,0,0,1-2,1.18,7,7,0,0,1-2.2-.21,34.29,34.29,0,0,1-3.55-.64c-7.67-1.73-14.95-5.9-21.37-10.32-6.58-4.53-12.48-9.93-18.35-15.31-6.11-5.59-12.31-11.35-19.66-15.29a35.93,35.93,0,0,0-11-3.82,33.44,33.44,0,0,0-6.07-.43c-.69,0-1.39.06-2.08.12,0-.18,0-.35,0-.53s0-.51.05-.77a5.24,5.24,0,0,1,.24-1.21,1.27,1.27,0,0,1,.76-.75,6.71,6.71,0,0,1,2.81-.3c3.36.13,6.65,1.24,9.92,1.92a20.48,20.48,0,0,0,6.3.71c1.44-.16,2.64-.9,2.74-2.46s-1.36-3.49-2.31-4.74c-3.45-4.57-7.8-8.45-11.08-13.12a97.49,97.49,0,0,0,14.87,12.23c4.27,2.93,8.83,5.42,13.29,8,5.63,3,11.49,5.51,17.24,8.3L129.67,214a75.88,75.88,0,0,1,14.11,8.91c3.89,3.11,7.86,6.9,9.82,11.58A9.8,9.8,0,0,1,153.49,243.23Z"/><path class="cls-7" d="M109.37,203q2.58,1.26,5.36,2.52,1.94.88,4,1.76-2-.88-4-1.76Q111.95,204.29,109.37,203Z"/><path class="cls-2" d="M108.75,204.09q4.61,2.24,9.33,4.28c1.43.62,2.68-1.49,1.24-2.11q-4.71-2-9.33-4.28c-1.41-.69-2.65,1.42-1.24,2.11q4.61,2.24,9.33,4.28c1.43.62,2.68-1.49,1.24-2.11q-4.71-2-9.33-4.28C108.58,201.29,107.33,203.4,108.75,204.09Z"/><path class="cls-7" d="M200.72,122.14a65.2,65.2,0,0,0-17.12-6.61,49.07,49.07,0,0,0-13-1.26l-1,.05a94.11,94.11,0,0,1-11.69.1c2.89,22.16-12.2,37.55-12.2,37.55-6.67,27.51-31.75,42.18-43.12,47.53l12.46,6.05,3.78,1.83,1.68.73c4.29,1.9,8.13,3.8,11.54,5.68-3.42-1.88-7.25-3.78-11.54-5.68,4.29,1.9,8.13,3.8,11.54,5.68,28.25,15.56,27.67,29.86,16.78,34.9,32.13,1.85,69-35.88,78.82-70.44C234.88,153.17,219.8,132.75,200.72,122.14Z"/><path class="cls-7" d="M132.1,213.81c-3.42-1.88-7.25-3.78-11.54-5.68C124.85,210,128.69,211.93,132.1,213.81Z"/><path class="cls-8" d="M226,148.76c-8.46,56.76-60.08,78.42-60.08,78.42-11.54-20.41-47.86-30.36-47.86-30.36,19.35-8.09,25.95-32.63,28.1-45.28l-.4.43c-6.67,27.51-31.75,42.18-43.12,47.53l12.46,6.05,3.78,1.83,1.68.73c4.29,1.9,8.13,3.8,11.54,5.68,28.25,15.56,27.67,29.86,16.78,34.9,32.13,1.85,69-35.88,78.82-70.44A43.12,43.12,0,0,0,226,148.76Z"/><path class="cls-2" d="M222.33,139.68a62.42,62.42,0,0,0-21-18.59,65.57,65.57,0,0,0-21-7.42c-7.43-1.21-14.9-.07-22.38-.46a1.22,1.22,0,0,0-1.22,1.22,46.82,46.82,0,0,1-8.65,32.73q-1.15,1.62-2.44,3.13a5.14,5.14,0,0,0-1.36,2.56,58.34,58.34,0,0,1-8,17.57c-8.27,12.39-20.86,21.73-34.22,28a1.23,1.23,0,0,0,0,2.11l11.65,5.66c2.07,1,4.15,2,6.23,2.94l0,0,.41.19c3.7,1.72,7.4,3.46,11,5.43a98.64,98.64,0,0,1,9.69,6c4.47,3.18,8.86,7,11.63,11.79,1.6,2.78,2.5,6.06,1.48,9.19-.9,2.76-3.35,4.66-5.88,5.85-1.18.55-.5,2.22.62,2.28,11.93.63,23.51-3.89,33.47-10.13,11.4-7.14,21.16-16.83,29.23-27.54,7.91-10.5,14.54-22.58,17.77-35.39A45.54,45.54,0,0,0,222.33,139.68Zm5.77,30.13c-.61,6.67-3,13.21-5.64,19.3a115.28,115.28,0,0,1-23,33.58c-9,9.25-19.8,17.36-32,21.81a48.93,48.93,0,0,1-14.36,3,11.45,11.45,0,0,0,3.1-4.09,12.41,12.41,0,0,0-.26-9.77c-2-4.68-5.62-8.48-9.45-11.7a95.32,95.32,0,0,0-19.6-12.22c-1.8-.88-3.62-1.72-5.45-2.54-2.12-1-4.24-2-6.35-3l-9.6-4.66c18.14-9.09,34.31-23.93,40.53-43.67.16-.51.31-1,.46-1.55l.21-.79c0-.1.48-1.16,0-.66l.24-.25c.5-.54,1-1.12,1.44-1.69a52.57,52.57,0,0,0,5.13-7.72,47.9,47.9,0,0,0,5.87-27.49c6.81.19,13.61-.7,20.37.33a62.1,62.1,0,0,1,20.42,7.18c11,6.15,20.65,15.47,25.33,27.35A42,42,0,0,1,228.1,169.81Z"/><path class="cls-9" d="M140.65,149.9c-26.34,14.61-43.39,36.73-48.3,43.63,2.71,1.75,5.7,3.53,9,5.33h0l1.33.64c11.36-5.35,36.45-20,43.12-47.53,0,0,15.08-15.38,12.2-37.55-3-.16-5.84-.46-8.49-.85C135.1,133,140.65,149.9,140.65,149.9Z"/><path class="cls-2" d="M159.18,114.43a1.26,1.26,0,0,0-1.22-1.22c-2.73-.16-5.46-.42-8.17-.81a1.3,1.3,0,0,0-1.38.56,49.93,49.93,0,0,0-9.95,25.77,32.41,32.41,0,0,0,.74,10.59,151.33,151.33,0,0,0-47.92,43.59,1.23,1.23,0,0,0,.44,1.67,99,99,0,0,0,9,5.33h0a5.25,5.25,0,0,0,1.95.81,7.22,7.22,0,0,0,2.55-1.11c1.73-.86,3.43-1.78,5.11-2.74a98.17,98.17,0,0,0,12-8.15c9.29-7.34,17.16-16.71,21.74-27.7a60.35,60.35,0,0,0,2.68-7.94c.09-.35,0-.38,0-.36l.1-.11.62-.7a49.71,49.71,0,0,0,5-7A48.08,48.08,0,0,0,159.18,114.43Zm-11.1,32.73q-1.15,1.62-2.44,3.13a5.14,5.14,0,0,0-1.36,2.56,58.34,58.34,0,0,1-8,17.57c-8.14,12.2-20.47,21.44-33.6,27.74l-.7-.34h0a86.72,86.72,0,0,1-7.84-4.61A148.29,148.29,0,0,1,141.26,151a1.25,1.25,0,0,0,.31-.24l.05-.06,0-.06a1.06,1.06,0,0,0,.15-1,29,29,0,0,1-1-10.25c.45-8.89,4.06-17.27,9.17-24.46q3.39.46,6.81.7A47,47,0,0,1,148.08,147.16Z"/><path class="cls-3" d="M149.47,113.58l-1.2-.19c-15.29-2.48-24.37-8-24.37-8-17.14,2.2-32.18,20.7-45.68,40.41a16.71,16.71,0,0,1,8.41,18.86c-.62,2.45-1.79,4.78-2,7.3s.89,5.46,3.32,6.16c3.17.92,6.51-2.37,9.63-1.28,2.62.92,3.21,4.35,2.34,7.06,8.35-9.79,22.26-23.74,40.74-34C140.65,149.9,135.1,133,149.47,113.58Z"/><path class="cls-4" d="M99.49,172.79s-2.64-6.45,5.16-11.5,9.24,1.91,4.38,4.44-5.37,5.6-4.59,6.88S101.17,177.83,99.49,172.79Z"/><path class="cls-4" d="M135.76,124.88s-4.3-4.36.35-11.07,8.15-1.54,5,2.15-2.49,6.34-1.44,7.12S138.81,128.41,135.76,124.88Z"/><path class="cls-2" d="M150.52,114.19a1,1,0,0,0,.12-1.08,1,1,0,0,0-.85-.72,84.46,84.46,0,0,1-19.67-5.35c-1.59-.65-3.15-1.39-4.66-2.2l-.87-.48c-.79-.46-2,0-2.79.11-6.18,1.16-11.84,4.42-16.75,8.24a98.46,98.46,0,0,0-15.57,15.75c-4.38,5.36-8.41,11-12.32,16.7a1.23,1.23,0,0,0,.44,1.67,15.75,15.75,0,0,1,8.2,12,16.91,16.91,0,0,1-.89,7.34c-.76,2.35-1.7,4.69-1.5,7.21a7.37,7.37,0,0,0,2.22,4.83c1.54,1.44,3.67,1.49,5.61,1s4.32-2.06,6.33-1c1.84.95,1.65,3.76,1.17,5.4-.33,1.13,1.23,2.14,2,1.19A149.54,149.54,0,0,1,141.26,151a1.22,1.22,0,0,0,.56-1.38,29,29,0,0,1-1-10.25C141.34,130.16,145.15,121.53,150.52,114.19Zm-12.06,24.54a32.41,32.41,0,0,0,.74,10.59,150.45,150.45,0,0,0-37.85,31.05c-.4-2.66-2.08-4.92-5.25-5-2.35,0-4.4,1.46-6.7,1.66-2.47.21-3.54-2.33-3.6-4.4-.09-2.76,1.48-5.47,2.1-8.11a18.37,18.37,0,0,0,0-7.84,17.84,17.84,0,0,0-8-11.29c6.16-8.94,12.66-17.75,20.44-25.37,6.43-6.3,14.18-12,23.26-13.38a50.69,50.69,0,0,0,6.64,3.1,82.68,82.68,0,0,0,17,4.71A49.36,49.36,0,0,0,138.46,138.73Z"/><path class="cls-6" d="M97.56,176.83c-3.12-1.09-6.46,2.2-9.62,1.28-2.43-.71-3.55-3.64-3.32-6.16s1.4-4.85,2-7.3a16.71,16.71,0,0,0-8.41-18.86q-1.41,2.07-2.81,4.14a56.25,56.25,0,0,0-3.82,6.53c-3.16,6.44-3.74,11.6-2.79,16,2.5,3.59,7.07,8.91,15,15.07,2.48,1.92,5.3,3.91,8.49,6,1.47-2.06,4-5.47,7.56-9.64C100.78,181.18,100.18,177.75,97.56,176.83Z"/><path class="cls-2" d="M97.89,175.65a8.17,8.17,0,0,0-5.07.45c-1.64.56-3.52,1.47-5.19.55-1.45-.8-1.84-2.85-1.82-4.35,0-2.18,1.1-4.36,1.74-6.41a18.19,18.19,0,0,0-8.72-21.16,1.25,1.25,0,0,0-1.67.44c-3.37,4.93-6.71,9.86-8.65,15.57a25.52,25.52,0,0,0-1.34,7.19c-.08,2,0,4.35,1.14,6C74.46,182.36,83,189,91.73,194.59a1.24,1.24,0,0,0,1.67-.44q1.43-2,2.93-3.94c.72-.93,1.45-1.84,2.19-2.75a26.55,26.55,0,0,0,2.44-2.95c.82-1.4.63-3.65.26-5.15a5.37,5.37,0,0,0-3.33-3.71c-1.46-.59-2.1,1.78-.65,2.36s1.77,2.07,1.82,3.4a3.39,3.39,0,0,1-.35,2q-1,1.14-1.91,2.3-2.87,3.5-5.5,7.19l1.67-.44c-8.15-5.26-16.14-11.4-22.06-19.17a4.44,4.44,0,0,1-1-1.8,17.25,17.25,0,0,1-.24-3.2,22.72,22.72,0,0,1,1.26-6.91c1.78-5.49,5.18-10.27,8.41-15l-1.67.44a15.83,15.83,0,0,1,7.74,9.62,15.57,15.57,0,0,1,.38,6.53c-.35,2.33-1.37,4.5-2,6.77-.86,3.27-.29,7.37,2.93,9.15a6.48,6.48,0,0,0,4.91.17c1.83-.51,3.7-1.65,5.64-1.08A1.22,1.22,0,0,0,97.89,175.65Z"/><path class="cls-5" d="M101.32,198.86h0l1.25.68h0Z"/><path class="cls-2" d="M101.94,197.81h0a1.22,1.22,0,1,0-1.24,2.11l1.25.68,1.24-2.11-1.25-.68a1.22,1.22,0,0,0-1.24,2.11l1.25.68a1.22,1.22,0,0,0,1.24-2.11l-1.25-.68-1.24,2.11h0a1.24,1.24,0,0,0,1.67-.44A1.23,1.23,0,0,0,101.94,197.81Z"/><path class="cls-5" d="M102.57,199.55q3.22,1.73,6.8,3.49-3.59-1.75-6.8-3.49Z"/><path class="cls-2" d="M102,200.6q3.37,1.81,6.8,3.49c1.41.69,2.65-1.42,1.24-2.11q-3.43-1.68-6.8-3.49c-1.39-.75-2.62,1.37-1.24,2.11q3.37,1.81,6.8,3.49c1.41.69,2.65-1.42,1.24-2.11q-3.43-1.68-6.8-3.49C101.8,197.74,100.56,199.85,102,200.6Z"/><path class="cls-5" d="M102.57,199.55l.08,0-1.33-.64Z"/><path class="cls-2" d="M103.19,200.6l.08,0a1.23,1.23,0,0,0,0-2.11l-1.33-.64a1.25,1.25,0,0,0-1.67.44,1.23,1.23,0,0,0,.44,1.67l1.25.68a1.22,1.22,0,0,0,1.24-2.11l-1.25-.68-1.24,2.11,1.33.64v-2.11l-.08,0a1.23,1.23,0,0,0-.44,1.67A1.25,1.25,0,0,0,103.19,200.6Z"/><path class="cls-5" d="M109.37,203q2.58,1.26,5.36,2.52,1.94.88,4,1.76l.19.08-3.78-1.83-12.46-6.05-.08,0Q105.79,201.28,109.37,203Z"/><path class="cls-2" d="M108.75,204.09c3.14,1.53,6.32,3,9.52,4.36,1.42.62,2.67-1.41,1.24-2.11l-7.75-3.76-6-2.92c-1-.49-2.64-1.7-3.78-1.16a1.23,1.23,0,0,0,0,2.11q3.37,1.81,6.8,3.49c1.41.69,2.65-1.42,1.24-2.11q-3.43-1.68-6.8-3.49v2.11l.08,0H102l16.24,7.89,1.24-2.11c-3.2-1.4-6.38-2.83-9.52-4.36C108.58,201.29,107.33,203.4,108.75,204.09Z"/><path class="cls-6" d="M103.64,129.49s-20.7,11.09-27.59,34.67c0,0,6.11-50.06,47.84-58.78C123.89,105.38,100.9,120.8,103.64,129.49Z"/><path class="cls-2" d="M76.05,165.25l-.22,0A1.09,1.09,0,0,1,75,164a90.42,90.42,0,0,1,8.38-26.47,68.2,68.2,0,0,1,14.73-20.12,53.48,53.48,0,0,1,25.59-13.13,1.09,1.09,0,0,1,.83,2,107.48,107.48,0,0,0-11,8.71c-6.63,6.06-9.75,11.1-8.78,14.17a1.09,1.09,0,0,1-.52,1.29,58,58,0,0,0-11,8.37,58.6,58.6,0,0,0-16,25.65A1.09,1.09,0,0,1,76.05,165.25Zm42.5-57.33a51.17,51.17,0,0,0-19,11.1,66,66,0,0,0-14.25,19.45,89.78,89.78,0,0,0-5.43,13.78,63.93,63.93,0,0,1,11.79-15.06,62.3,62.3,0,0,1,10.72-8.25c-.61-4,2.62-9.19,9.6-15.57C114.27,111.31,116.6,109.42,118.56,107.92Z"/><path class="cls-4" d="M93.22,115c-2.69,3.7-6.39,7.82-9.07,11.51-.15.21-4.39-3.78-6.53-4.69,1-.58,2-6.08,5.92-1.94.21.22,7-7.69,7.93-9.1C91.47,110.77,94.66,113,93.22,115Z"/><path class="cls-2" d="M84.13,127.46c-.47,0-.74-.22-2.23-1.44a27.41,27.41,0,0,0-4.65-3.33,1,1,0,0,1-.16-1.67,6.3,6.3,0,0,0,.46-.77c.63-1.14,1.58-2.86,3.39-2.86a4.07,4.07,0,0,1,2.63,1.19c1.64-1.71,6.31-7.16,7.11-8.35A1,1,0,0,1,92,110c.22.16,2.18,1.59,2.49,3.42a2.78,2.78,0,0,1-.51,2.13c-1.36,1.87-3,3.87-4.57,5.8s-3.18,3.89-4.5,5.71A1,1,0,0,1,84.13,127.46Zm-5.09-6a41.5,41.5,0,0,1,4.06,3.05l.82.66c1.24-1.65,2.65-3.38,4-5.07,1.56-1.91,3.18-3.89,4.5-5.71a.88.88,0,0,0,.17-.7,3.33,3.33,0,0,0-1-1.57c-.88,1.11-2.34,2.86-3.6,4.32-3.76,4.36-4,4.36-4.47,4.36a1,1,0,0,1-.7-.3c-1-1.07-1.64-1.23-1.91-1.23-.68,0-1.28,1.09-1.72,1.88Z"/><circle class="cls-4" cx="76.76" cy="115.41" r="6.79" transform="translate(-60.41 95.49) rotate(-48.11)"/><path class="cls-2" d="M76.76,123.16h0a7.75,7.75,0,1,1,5.77-2.57A7.73,7.73,0,0,1,76.76,123.16Zm0-13.59a5.84,5.84,0,1,0,0,11.68h0a5.84,5.84,0,1,0,0-11.68Z"/><path class="cls-1" d="M73.09,117.49l8-1.18a5.26,5.26,0,0,1-3.39,3.47C75.07,120.56,73.09,117.49,73.09,117.49Z"/><path class="cls-4" d="M67.72,167.79s0,15.64,5.6,9.06c2.19-2.56.66-44.55,50.54-72.08,0,0,1.56-5.42-4.77-5C116.11,99.91,76.17,116.46,67.72,167.79Z"/><path class="cls-2" d="M70.87,179.55h0c-2.91,0-3.61-4.72-3.84-6.27a42.38,42.38,0,0,1-.4-5.5v-.18c4.47-27.13,17.73-44.25,28.07-53.83,11.66-10.8,22.57-15,24.31-15.13,2.43-.15,4.18.47,5.2,1.82a5.73,5.73,0,0,1,.68,4.61l-.12.43-.39.22c-17.63,9.73-30.82,22.42-39.2,37.73a90.34,90.34,0,0,0-9.78,29.38c-.53,3-.74,4.12-1.26,4.73C73,178.9,71.93,179.55,70.87,179.55Zm-2.07-11.68a41.18,41.18,0,0,0,.38,5.11c.53,3.6,1.4,4.39,1.69,4.39h0c.09,0,.61-.06,1.59-1.21a23.22,23.22,0,0,0,.8-3.72,92.33,92.33,0,0,1,10-30c8.51-15.54,21.84-28.44,39.62-38.34a3.17,3.17,0,0,0-.42-2.3c-.55-.73-1.68-1-3.32-.95-1.4.11-11.87,4.26-23,14.62C86.08,124.77,73.18,141.44,68.81,167.87Z"/><path class="cls-1" d="M79.94,141.56s7.5-19.42,39.18-37.08c0,0,1.85-1.53.38-2.15S86.39,118.06,79.94,141.56Z"/><path class="cls-2" d="M222.38,178l-.17-.17a.82.82,0,1,0-1.15,1.15l.17.17a.82.82,0,0,0,1.15-1.15Z"/><path class="cls-2" d="M220.91,178.82a22.33,22.33,0,0,1,2.83,7.14c.22,1,1.79.59,1.57-.43a23.64,23.64,0,0,0-3-7.53c-.55-.89-2-.08-1.41.82Z"/><path class="cls-2" d="M216.66,186.05a29.19,29.19,0,0,1,3.22,7.94c.25,1,1.82.59,1.57-.43a30.72,30.72,0,0,0-3.38-8.33.82.82,0,0,0-1.41.82Z"/><path class="cls-2" d="M212.71,194a29.2,29.2,0,0,1,3.16,9.49c.16,1,1.73.59,1.57-.43a30.51,30.51,0,0,0-3.32-9.88c-.5-.93-1.91-.1-1.41.82Z"/><path class="cls-2" d="M208,200.7a40.69,40.69,0,0,1,2.38,10c.11,1,1.74,1,1.63,0a42.42,42.42,0,0,0-2.44-10.41c-.37-1-1.94-.55-1.57.43Z"/><path class="cls-2" d="M201.29,207.77A73.3,73.3,0,0,1,204,219.08c.17,1,1.74.6,1.57-.43a73.3,73.3,0,0,0-2.74-11.31c-.33-1-1.9-.57-1.57.43Z"/><path class="cls-2" d="M196.08,217.29a67.07,67.07,0,0,1,1.24,8.6c.08,1,1.71,1,1.63,0a70.52,70.52,0,0,0-1.3-9c-.22-1-1.79-.59-1.57.43Z"/><path class="cls-2" d="M190.12,221.25a42.8,42.8,0,0,1,1.22,10.17.82.82,0,0,0,1.63,0,44.74,44.74,0,0,0-1.28-10.6c-.25-1-1.82-.59-1.57.43Z"/><path class="cls-2" d="M183.56,224.94a45.58,45.58,0,0,1,1.65,10.66c0,1,1.67,1.05,1.63,0a47.5,47.5,0,0,0-1.71-11.09.82.82,0,0,0-1.57.43Z"/><path class="cls-2" d="M177.22,231.3l1.39,8.36c.17,1,1.74.59,1.57-.43l-1.39-8.36c-.17-1-1.74-.59-1.57.43Z"/><path class="cls-2" d="M170.94,233.63l1.63,9.71c.17,1,1.75.6,1.57-.43l-1.63-9.71c-.17-1-1.75-.59-1.57.43Z"/><path class="cls-2" d="M165.14,235.15a84.48,84.48,0,0,1,1.66,11c.09,1,1.72,1,1.63,0a87.89,87.89,0,0,0-1.72-11.42c-.23-1-1.8-.59-1.57.43Z"/><path class="cls-2" d="M159.49,237.1l1.18,9.37c.13,1,1.76,1,1.63,0l-1.18-9.37c-.13-1-1.76-1-1.63,0Z"/><path class="cls-3" d="M125.6,225.57c8.82-2.09,30.15,4.49,30.8,15.82,0,0,.54,1.9,1.35,4.41,1.43,4.44,3.71,10.78,5.34,11.81,0,0,5.53,1.76,4.86,6.56s-8.73,4.84-12.88-.26c-2.77-3.4-9.89-1.57-10.47-10.81,0-.12,0-.23,0-.35s-21.38-1-24.55-15.28C120,237.47,116.78,227.67,125.6,225.57Z"/><path class="cls-4" d="M147.14,247c-13.87,2.29-22.73-12.64-25.83-19-3.23,3.63-1.29,9.51-1.29,9.51,3.18,14.3,24.55,15.28,24.55,15.28s0,.23,0,.35c.58,9.24,7.7,7.41,10.47,10.81,4,4.95,11.75,5.05,12.81.67C153.23,266.21,147.14,247,147.14,247Z"/><path class="cls-2" d="M167.46,259a9.54,9.54,0,0,0-4-2.56c.48.17-.07-.23-.26-.51a13.49,13.49,0,0,1-.88-1.57,44.06,44.06,0,0,1-2-4.73c-.93-2.55-1.76-5.14-2.53-7.74a35.72,35.72,0,0,0-1.21-4.51c-1.56-3.61-5-6.25-8.29-8.17a40.49,40.49,0,0,0-12-4.47,26.17,26.17,0,0,0-11-.34c-4.71,1.2-7.23,5-7,9.74a18.15,18.15,0,0,0,3,9.24c4.65,6.81,13.6,9.49,21.39,10.43l.78.07A10.34,10.34,0,0,0,146,260a13.11,13.11,0,0,0,5.09,2.88,12.87,12.87,0,0,1,2.19,1,25.46,25.46,0,0,1,2.5,2.39,11.43,11.43,0,0,0,7.51,2.66,6,6,0,0,0,5.48-3.17A6.36,6.36,0,0,0,167.46,259Zm-2.22,7c-3,1.67-7.07-.49-9.08-2.7-1.69-1.86-3.8-2.44-6-3.44-3-1.36-4.16-3.9-4.34-7.13a1.25,1.25,0,0,0-1.22-1.22c-6.12-.29-12.83-2.22-17.8-5.93a15.54,15.54,0,0,1-5.79-9.29c-.83-3.56-.14-7.64,3.61-9.15a10.55,10.55,0,0,1,1.34-.41c4.33-1,9.16,0,13.33,1.25,4.79,1.41,9.66,3.7,13.11,7.4a10.15,10.15,0,0,1,2.77,5.48,40.58,40.58,0,0,0,2.3,7.84,39.09,39.09,0,0,0,3.64,8.44c.89,1.39,2,1.63,3.22,2.38C166.52,260.89,168.09,264.44,165.24,266Z"/><path class="cls-2" d="M144.25,246.38l-4.77,5.09c-.72.77.43,1.92,1.15,1.15l4.77-5.09c.72-.77-.43-1.92-1.15-1.15Z"/><path class="cls-2" d="M140.07,245.54l-5.68,5c-.79.7.37,1.85,1.15,1.15l5.68-5c.79-.7-.37-1.85-1.15-1.15Z"/><path class="cls-2" d="M135.88,243.9l-5.8,4.09c-.85.6,0,2,.82,1.41l5.8-4.09c.85-.6,0-2-.82-1.41Z"/><path class="cls-2" d="M130.77,241.32l-4.54,3.49c-.82.63,0,2,.82,1.41l4.54-3.49c.82-.63,0-2-.82-1.41Z"/><path class="cls-2" d="M127.12,239.12a33,33,0,0,0-4.4,3.47c-.77.72.39,1.87,1.15,1.15a30.59,30.59,0,0,1,4.07-3.21c.87-.58.06-2-.82-1.41Z"/><path class="cls-2" d="M124.13,235.45,120,239.14c-.79.7.37,1.85,1.15,1.15l4.18-3.69c.79-.7-.37-1.85-1.15-1.15Z"/><path class="cls-3" d="M45.79,224.17c.88,1.39,4.42,1.58,9.26,2a5.07,5.07,0,0,0,1.24,0c.41.21.87.43,1.38.63a29.4,29.4,0,0,0,4,1.27,37.52,37.52,0,0,0,6.78,1c8.93.54,19.83-1.41,25.84-6.73A12.52,12.52,0,0,0,98.8,212.2c-.44-13.12-12.51-13.9-19.55-9.33a12.56,12.56,0,0,0-3.14,2.84c-3.48,4.53-9.34,8.09-13,10-1.93,1-3.24,1.57-3.24,1.57a17,17,0,0,0-3.68,1.57l0-.06S41.26,214.29,45.79,224.17Z"/><path class="cls-2" d="M96.34,202.42c-4.62-4.73-12.55-3.9-17.71-.61-2.19,1.39-3.57,3.45-5.35,5.27a36.39,36.39,0,0,1-6.11,4.85,58.56,58.56,0,0,1-5.9,3.36c-1.67.84-3.44,1.38-5.09,2.22a14.54,14.54,0,0,0-1.83-.41,21.2,21.2,0,0,0-5.36-.53,5.86,5.86,0,0,0-4.62,2.06c-1.23,1.61-.58,3.91.14,5.65a1.16,1.16,0,0,0,.21.5,1,1,0,0,0,.51.55c1.62,1.5,4.39,1.56,6.44,1.77,1.58.16,3.59,0,5,.59a29.64,29.64,0,0,0,5.09,1.66,46.49,46.49,0,0,0,21.62-.44c6.07-1.5,12.64-4.63,15.42-10.59C101.14,213.35,100.22,206.4,96.34,202.42Zm.53,14.25c-1.09,3.09-3.79,5.35-6.53,6.95-6.43,3.74-14.59,4.62-21.89,4.21a35.75,35.75,0,0,1-6.46-.95c-1-.24-2-.54-2.94-.87s-1.6-.81-2.43-1a4,4,0,0,0-1.11,0,18.45,18.45,0,0,1-2-.16c-1-.09-2.08-.19-3.12-.3-.86-.1-3-.16-3.58-1-.47-1.06-1.17-2.82-.26-3.77.77-.79,2.32-.79,3.37-.78a21.34,21.34,0,0,1,5.74.94,1.21,1.21,0,0,0,1.12,0,40.26,40.26,0,0,1,3.88-1.66c1.32-.58,2.61-1.25,3.88-1.93a52.28,52.28,0,0,0,8.19-5.47c2.7-2.21,4.55-5.36,7.54-7.19a14.57,14.57,0,0,1,6-2c4.44-.47,8.69,1.45,10.37,5.76A13.64,13.64,0,0,1,96.87,216.67Z"/><path class="cls-2" d="M91.66,223.23l-1.34-5.4a.82.82,0,0,0-1.57.43l1.34,5.4a.82.82,0,0,0,1.57-.43Z"/><path class="cls-2" d="M88.39,224.47l-.69-4.66c-.15-1-1.73-.59-1.57.43l.69,4.66c.15,1,1.73.6,1.57-.43Z"/><path class="cls-2" d="M84.25,226.25l-1-5.24c-.2-1-1.78-.59-1.57.43l1,5.24c.2,1,1.78.59,1.57-.43Z"/><path class="cls-2" d="M80.19,227a15.23,15.23,0,0,1-1-3.77c-.13-1-1.76-1-1.63,0a16.8,16.8,0,0,0,1.06,4.21c.39,1,2,.54,1.57-.43Z"/><path class="cls-2" d="M76.58,227.9a11.48,11.48,0,0,1-1.51-4.34c-.14-1-1.72-.59-1.57.43a12.61,12.61,0,0,0,1.68,4.73.82.82,0,0,0,1.41-.82Z"/><path class="cls-2" d="M52.25,218.39a4.9,4.9,0,0,0,.88-1.49c.12-.3.29-1.17.74-1.1a1.78,1.78,0,0,1,1.2,2.23,1.22,1.22,0,0,0,2.36.65A4.29,4.29,0,0,0,55,213.62a2.82,2.82,0,0,0-3,.39c-.79.77-.83,1.86-1.5,2.65-1,1.19.71,2.93,1.73,1.73Z"/><path class="cls-2" d="M45.89,222.15a12.19,12.19,0,0,1,6.18-.31c1,.21,1.46-1.36.43-1.57a13.93,13.93,0,0,0-7.05.31c-1,.31-.57,1.88.43,1.57Z"/><path class="cls-7" d="M76.24,205.56l-.12.16c-3.48,4.53-9.34,8.09-13,10-1.93,1-3.24,1.57-3.24,1.57a17,17,0,0,0-3.68,1.57l0-.06s-14.91-4.51-10.38,5.36c.88,1.39,4.42,1.58,9.26,2a5.07,5.07,0,0,0,1.24,0c.41.21.87.43,1.38.63a29.4,29.4,0,0,0,4,1.27,37.52,37.52,0,0,0,6.78,1c8.89.53,19.73-1.39,25.75-6.66C90.42,213,81.14,207.76,76.24,205.56Z"/><path class="cls-2" d="M95.38,222C92,213.8,84.77,208,76.86,204.42l-.09,0a1,1,0,0,0-1.4.22,37,37,0,0,1-9.87,8.28c-1.68,1-3.43,1.94-5.21,2.79-1.36.65-2.78,1.08-4.12,1.74-.46-.15-1-.22-1.37-.31a25.63,25.63,0,0,0-4.66-.64c-3.21-.12-6.83,1.18-6.4,5,.27,2.4,1.24,4.15,3.61,4.85a23.9,23.9,0,0,0,4.32.66l2.85.26a12.64,12.64,0,0,0,1.38.06,3.29,3.29,0,0,1,1.05.39c6.63,2.79,14.31,3,21.36,2.06,6-.82,12.07-2.64,16.73-6.62A1.18,1.18,0,0,0,95.38,222Zm-21.17,5.76A42.73,42.73,0,0,1,62.87,227,29.35,29.35,0,0,1,58,225.53a4.15,4.15,0,0,0-2.08-.64,17.46,17.46,0,0,1-3.33-.23A28.46,28.46,0,0,1,48,224c-1.22-.32-1.42-1-1.72-2.13s0-2.28,1.26-2.69c2.46-.79,5.53,0,7.95.62l.19.05a1.21,1.21,0,0,0,1.14,0c1.5-.86,3.16-1.31,4.71-2A59.06,59.06,0,0,0,66.74,215a39.07,39.07,0,0,0,9.82-8c6.7,3.21,13,8.1,16.15,15C87.59,226,80.55,227.37,74.21,227.76Z"/><path class="cls-7" d="M145.76,152s10.06-2.85,25.7,10.65"/><path class="cls-2" d="M146.09,153.15l.39-.08a1.08,1.08,0,0,1,.29,0l.76-.06a18.59,18.59,0,0,1,4.91.45c6.84,1.46,12.95,5.59,18.18,10.07,1.19,1,2.93-.7,1.73-1.73-5.58-4.78-12-9.08-19.25-10.7a16.45,16.45,0,0,0-7.64-.26,1.22,1.22,0,0,0,.65,2.36Z"/><circle class="cls-9" cx="142.34" cy="151.64" r="3.66"/><path class="cls-2" d="M144.78,151.64a2.44,2.44,0,0,1-4.88,0c-.16-3.15,4.72-3.13,4.88,0,.08,1.57,2.53,1.58,2.45,0a5,5,0,0,0-4.89-4.89c-2.75-.14-4.76,2.34-4.89,4.89-.14,2.75,2.34,4.76,4.89,4.89,2.75.14,4.76-2.34,4.89-4.89C147.3,150.07,144.86,150.07,144.78,151.64Z"/><path class="cls-2" d="M123,210a132.15,132.15,0,0,0,23.82-16.76c14.64-12.53,27.29-28.25,33.29-46.78A72.55,72.55,0,0,0,183,115.12c-.19-1.54-2.64-1.56-2.45,0A71.65,71.65,0,0,1,177,147.88a90.41,90.41,0,0,1-15,26.22,139.85,139.85,0,0,1-34.79,30.52c-1.8,1.13-3.63,2.26-5.52,3.25-1.4.74-.16,2.85,1.24,2.11Z"/><path class="cls-10" d="M143.87,232.64l-2.45,5.57c-.42,1,1,1.79,1.41.82l2.45-5.57c.42-1-1-1.78-1.41-.82Z"/><path class="cls-10" d="M147.49,233.7a20.46,20.46,0,0,0-2.19,5.12.82.82,0,0,0,1.57.43,18.89,18.89,0,0,1,2-4.73.82.82,0,0,0-1.41-.82Z"/><path class="cls-10" d="M150.16,235.28,149,238.79c-.33,1,1.25,1.43,1.57.43l1.16-3.51c.33-1-1.25-1.43-1.57-.43Z"/><path class="cls-10" d="M236.36,154.45l-5,3.49c-.86.6,0,2,.82,1.41l5-3.49c.86-.6,0-2-.82-1.41Z"/><path class="cls-10" d="M238.91,157.23a20.26,20.26,0,0,0-4.53,3.24c-.77.72.39,1.88,1.15,1.15a18.63,18.63,0,0,1,4.2-3c.93-.49.11-1.9-.82-1.41Z"/><path class="cls-10" d="M240.37,160l-2.82,2.4c-.8.68.36,1.83,1.15,1.15l2.82-2.39c.8-.68-.36-1.83-1.15-1.15Z"/><path class="cls-10" d="M148.07,254.32l.65,4.08c.16,1,1.74.59,1.57-.43l-.65-4.08c-.16-1-1.74-.59-1.57.43Z"/><path class="cls-10" d="M151.19,255.22l.81,4.21c.2,1,1.77.59,1.57-.43l-.81-4.21c-.2-1-1.77-.59-1.57.43Z"/><path class="cls-10" d="M154.49,257.11q.07,1.9.13,3.81c0,1,1.67,1.05,1.63,0l-.13-3.81c0-1-1.67-1.05-1.63,0Z"/><path class="cls-3" d="M205.23,125.72a10.89,10.89,0,0,1-5.42,10.48c2.24,2,2.68,5.43,1.88,8.32s-2.63,5.36-4.43,7.76c.16-1.64,2.32-2.51,3.81-1.8a4.58,4.58,0,0,1,2.28,4.1,17.13,17.13,0,0,1-.92,4.83,9.47,9.47,0,0,0-.34,4.87c.58-3,1.18-6,2.8-8.56s4.49-4.54,7.49-4.21a18.1,18.1,0,0,1-4.15-3.61,6.52,6.52,0,0,1-1.44-5.16,4,4,0,0,1,3.86-3.3,5.83,5.83,0,0,1,.65-10.22,9.9,9.9,0,0,1-5.52-3.93"/><path class="cls-2" d="M212.79,150.81c-2-1.43-4.1-3-5-5.38-.81-2.18.21-5.15,2.85-5.18a.82.82,0,0,0,.41-1.52,5.09,5.09,0,0,1,.65-8.81.82.82,0,0,0-.19-1.49,9.35,9.35,0,0,1-5-3.56A.88.88,0,0,0,205,125a.66.66,0,0,0-.61.76,10.19,10.19,0,0,1-5,9.77.82.82,0,0,0-.17,1.28c4,3.84,1.42,9.18-1.29,13.16a3,3,0,0,0-1.46,2.13.82.82,0,0,0,1.49.63l1.05-1.44a2.24,2.24,0,0,1,2,.1c1.43.78,1.6,2.78,1.5,4.2-.22,3.1-1.89,5.74-1.19,8.93a.82.82,0,0,0,1.57,0c1-5,2.92-12.66,9.5-12.17C213.25,152.39,213.39,151.23,212.79,150.81Zm-8,3.66a11.37,11.37,0,0,0-.74,1.06,6.32,6.32,0,0,0-.88-4.24,4,4,0,0,0-2.95-1.76,16.25,16.25,0,0,0,2.51-5.93,9.06,9.06,0,0,0-1.67-7.22,11.82,11.82,0,0,0,5-9.45,11,11,0,0,0,3.46,2.51,6.71,6.71,0,0,0-.63,9.55,5.33,5.33,0,0,0-3,5.44c.23,2.76,2.14,4.8,4.23,6.46A9.73,9.73,0,0,0,204.78,154.46Z"/><path class="cls-3" d="M146,223.25a10.89,10.89,0,0,1,8.89-7.75c-1.35-2.68-.5-6,1.31-8.43s4.42-4,7-5.6c-.75,1.46-3.08,1.48-4.2.28a4.58,4.58,0,0,1-.61-4.65,17.15,17.15,0,0,1,2.63-4.16,9.47,9.47,0,0,0,2.11-4.4c-1.62,2.54-3.31,5.15-5.74,6.93s-5.84,2.57-8.51,1.17a18.07,18.07,0,0,1,2.54,4.89,6.52,6.52,0,0,1-.56,5.33,4,4,0,0,1-4.8,1.65,5.83,5.83,0,0,1-4.36,9.26c1.85,1.38,3.85,3.23,4.36,5.48"/><path class="cls-2" d="M162.74,200.76l-1.63,1a2.4,2.4,0,0,1-1.9-1.06c-.88-1.34-.28-3.17.4-4.44,1.38-2.6,3.77-4.49,4.25-7.54a.82.82,0,0,0-1.49-.63c-2.66,4.17-7.31,10.63-13.14,7.81-.68-.33-1.6.38-1.12,1.12,1.33,2,2.64,4.1,2.74,6.59s-2,5.09-4.64,4.08a.82.82,0,0,0-.92,1.2,5.09,5.09,0,0,1-3.66,8,.82.82,0,0,0-.41,1.52c1.69,1.28,3.36,2.8,4,4.91v.09h0a.7.7,0,0,0,.12.24.73.73,0,0,0,.68.32l.16,0h0a.74.74,0,0,0,.52-.46.82.82,0,0,0,0-.08,10.2,10.2,0,0,1,8.32-7.18c.57-.08.68-.77.49-1.2-2.3-5,2.16-9,6.11-11.71a3.32,3.32,0,0,0,2.16-1.5A.82.82,0,0,0,162.74,200.76ZM155,207.32a9,9,0,0,0-1.23,7.55,11.79,11.79,0,0,0-7.82,6.24,12,12,0,0,0-2.55-2.94,6.7,6.7,0,0,0,4-8.59,5.42,5.42,0,0,0,4.68-3.65c1-2.67-.08-5.49-1.48-7.9a9.79,9.79,0,0,0,6.4-1.41c.29-.17.56-.36.83-.55a6,6,0,0,0-.63,3.87,4.13,4.13,0,0,0,2.11,3A17.22,17.22,0,0,0,155,207.32Z"/><path class="cls-2" d="M202.88,158.28l3.8,6.8a.82.82,0,0,0,1.41-.82l-3.8-6.8a.82.82,0,0,0-1.41.82Z"/><path class="cls-2" d="M205.3,155.68a66.14,66.14,0,0,1,3.67,6.76c.45,1,1.85.12,1.41-.82a65.71,65.71,0,0,0-3.67-6.76c-.55-.89-2-.07-1.41.82Z"/><path class="cls-2" d="M207.57,153.08l2.91,6c.46.95,1.86.12,1.41-.82l-2.91-6c-.46-.95-1.87-.12-1.41.82Z"/><path class="cls-2" d="M210.48,152l1.9,4.08c.44,1,1.85.12,1.41-.82l-1.9-4.08c-.44-1-1.85-.12-1.41.82Z"/><path class="cls-2" d="M154.63,213.34a8.51,8.51,0,0,1,4.21,1.25.82.82,0,0,0,.82-1.41,10.23,10.23,0,0,0-5-1.47c-1.05,0-1,1.6,0,1.63Z"/><path class="cls-2" d="M154.94,210.14l5.71.83c1,.15,1.47-1.42.43-1.57l-5.71-.83c-1-.15-1.47,1.42-.43,1.57Z"/><path class="cls-2" d="M157.08,207.29l6.53.52c1,.08,1-1.55,0-1.63l-6.53-.52c-1-.08-1,1.55,0,1.63Z"/><path class="cls-3" d="M65.16,215.83a7.07,7.07,0,0,1,2.75,8.59,4.39,4.39,0,0,1,7.82-.67,11.53,11.53,0,0,1-2.42-4.54c-.32-1.7.34-3.72,1.93-4.39A3.28,3.28,0,0,1,70.42,211a15.2,15.2,0,0,1-5.41,4l.72-.52"/><path class="cls-2" d="M64.75,216.54a6.31,6.31,0,0,1,2.38,7.67c-.34.86,1.11,1.47,1.49.63a3.63,3.63,0,0,1,6.41-.67l1.41-.82c-1.48-2-4.15-6.14-.77-7.81l-.82-1.41a2.5,2.5,0,0,1-3.63-2.94.82.82,0,0,0-1.36-.79,15.48,15.48,0,0,1-5.25,3.85l.82,1.41.72-.52c.85-.61,0-2-.82-1.41l-.72.52a.82.82,0,0,0,.82,1.41A16.59,16.59,0,0,0,71,211.54l-1.36-.79a4.14,4.14,0,0,0,6,4.78c.94-.49.11-1.87-.82-1.41a4.63,4.63,0,0,0-2.41,4c-.17,2.24,1.35,4.3,2.6,6,.61.83,2,.06,1.41-.82a5.26,5.26,0,0,0-9.23.67l1.49.63a7.93,7.93,0,0,0-3.12-9.51c-.89-.57-1.71.84-.82,1.41Z"/><path class="cls-3" d="M152.66,113.6a13,13,0,0,0-4.43,11.07c.42-1.14,3.47-.85,4.69-.86-2.15,3.15-5.78,5.46-7.06,9.05a8.5,8.5,0,0,1,4.36-.43l-5.07,6.83,3.62-.4-5.24,7.36a6,6,0,0,0,.52,2.7,2.07,2.07,0,0,0,2.3,1.13,2.92,2.92,0,0,0,1.18-.91A45.3,45.3,0,0,0,159,117.95a5.23,5.23,0,0,0-.67-2.87c-1.17-1.69-3.66-1.56-5.69-1.25"/><path class="cls-2" d="M158.73,114.22c-1.26-1.61-3.74-1.51-5.65-1.26a.8.8,0,0,0-1,.07,14,14,0,0,0-4.67,11.64c.07.75,1.11,1.19,1.52.41.29-.55,1.4-.6,2.41-.55-2.2,2.65-5,4.79-6.27,8.12a.82.82,0,0,0,1,1,8.74,8.74,0,0,1,2.58-.47l-4.2,5.67a.82.82,0,0,0,.7,1.23l1.9-.21-1.76,2.48-1.54,2.16c-.32.45-1.06,1.12-1,1.71.08,1.89.82,5.18,3.47,4.69a4.57,4.57,0,0,0,2.51-1.87c.93-1.06,1.79-2.19,2.62-3.33a45.14,45.14,0,0,0,4.45-7.76,46.55,46.55,0,0,0,4-16.42C159.95,119.15,160.28,116.21,158.73,114.22Zm-.65,8.65a44.7,44.7,0,0,1-3.09,12.8,43.79,43.79,0,0,1-6.56,11.18,12.21,12.21,0,0,1-2.13,2.33c-1,.69-1.6-.82-1.76-1.34a2.09,2.09,0,0,1,.33-2.08l4.63-6.49a.82.82,0,0,0-.7-1.23l-1.86.21,4-5.41c.42-.56-.17-1.16-.7-1.23a9.74,9.74,0,0,0-2.88,0c1.62-2.79,4.44-4.82,6.29-7.45a.82.82,0,0,0-.7-1.23,14.19,14.19,0,0,0-3.92.17,12.4,12.4,0,0,1,3.8-8.56h.09c1.94-.28,4.5-.48,5.18,1.84C158.63,118.38,158.24,120.91,158.08,122.87Z"/><path class="cls-11" d="M267,113.56a17.49,17.49,0,0,1-8.9,2.19c-1.17,0-2.53-.1-3.29.79a2.4,2.4,0,0,0,.24,3,6.14,6.14,0,0,0,2.83,1.6A13.37,13.37,0,0,0,264,122a6.18,6.18,0,0,0,4.87-3.46,4.08,4.08,0,0,0-2-5.25"/><path class="cls-11" d="M269.11,107.71a9.68,9.68,0,0,1,10.42-.35,5.41,5.41,0,0,1,2.1,2.13,2.94,2.94,0,0,1-.09,2.89,4,4,0,0,1-3.13,1.4,13.2,13.2,0,0,1-6.1-1,6.47,6.47,0,0,1-3-2.25,3.25,3.25,0,0,1-.1-3.6"/><path class="cls-2" d="M267.28,112.56a.87.87,0,0,0-1.18.51,17.33,17.33,0,0,1-6.2,1.81c-1.76.17-3.71-.32-5.28.69a2.93,2.93,0,0,0-.73,3.77c.88,1.59,2.53,2.21,4.17,2.74,3.58,1.15,7.8,1.29,10.54-1.69C270.73,118.08,270.28,113.91,267.28,112.56Zm-.82,7.59c-2.47,1.79-5.75,1.08-8.42.22-1.33-.43-3.2-1.26-2.83-3,.28-1.29,3.35-.79,4.23-.83a17.62,17.62,0,0,0,5.8-1.29,29.06,29.06,0,0,1-4.79,3.32c-.92.51-.1,1.92.82,1.41a30.68,30.68,0,0,0,6.42-4.75.77.77,0,0,0,.11-.15C268.83,116.64,268.08,119,266.46,120.14Z"/><path class="cls-2" d="M278.66,106a10.65,10.65,0,0,0-8.93.39.8.8,0,0,0-1.24.16c-3.92,6.39,10,10.87,13.63,6.4C284.35,110.2,281.1,107,278.66,106Zm-4.3,6.63c-1.75-.41-4.76-1.78-4.87-3.8a13.62,13.62,0,0,0,5.85,2.78c1,.21,1.46-1.36.43-1.57a12.15,12.15,0,0,1-5.05-2.31,9.39,9.39,0,0,1,5-.86c2.17.19,5.33,1.59,5.46,4.08C281.29,113.84,275.9,113,274.36,112.64Z"/><path class="cls-11" d="M209.57,250.49c-1.58-3.28-5.2-5.19-8.8-5.67s-7.25.22-10.82.93c-1.32.26-2.83.66-3.42,1.87a3.94,3.94,0,0,0,.13,3,16.77,16.77,0,0,0,12.51,10.7c3,.55,6.27.18,8.56-1.77s3.09-5.75,1.16-8.06"/><path class="cls-2" d="M210.28,250.08c-3.1-6.06-10.44-6.71-16.44-5.86a45.28,45.28,0,0,0-5.21,1,4.08,4.08,0,0,0-2.89,2.18c-1,2.67,1.09,6,2.64,8.06,3.4,4.52,9.21,7.48,14.91,6.78A8.55,8.55,0,0,0,210,258a6.48,6.48,0,0,0-.52-7c-.64-.83-1.79.33-1.15,1.15,1.4,1.81.9,4.25-.3,6-1.45,2.12-4.4,2.69-6.78,2.66-4.58-.07-9-2.8-11.67-6.39-1.08-1.44-3.46-5-2-6.72.69-.84,2.17-1,3.16-1.17,1.63-.32,3.27-.62,4.93-.81,4.93-.56,10.79.44,13.26,5.28.48.94,1.89.11,1.41-.82Z"/><path class="cls-2" d="M209.52,250.24a18.15,18.15,0,0,0-10.63-.21.82.82,0,0,0,.43,1.57,16.57,16.57,0,0,1,9.76.21c1,.33,1.43-1.25.43-1.57Z"/><path class="cls-11" d="M42.53,196.33c-2.61-1.5-6-1.11-8.65.24a27.43,27.43,0,0,0-6.94,5.69c-.78.8-1.62,1.77-1.46,2.87a3.25,3.25,0,0,0,1.48,2,13.85,13.85,0,0,0,13.53,1.46,8.54,8.54,0,0,0,5-5.2c.65-2.4-.58-5.37-3-6"/><path class="cls-2" d="M43.37,196.8a.93.93,0,0,0-.07-.3.71.71,0,0,0-.36-.87c-5-2.66-10.23.1-14,3.52-1.65,1.5-4.37,3.52-4.28,6s3.55,3.82,5.4,4.52a13.86,13.86,0,0,0,14.26-2.73C47.21,204.07,47.28,198.62,43.37,196.8Zm-1.23,9.88c-3,2.32-7.26,2.65-10.85,1.66-1.43-.4-5.3-1.82-5-3.79.15-.91,1.22-1.73,1.83-2.35s1.5-1.49,2.28-2.2c2.79-2.53,6.77-4.67,10.51-3.45a15,15,0,0,0-6,4.32c-.67.8.48,2,1.15,1.15A13.63,13.63,0,0,1,42,197.89a.81.81,0,0,0,.34.22,4,4,0,0,1,2.55,3.9C44.92,203.91,43.56,205.59,42.14,206.68Z"/><path class="cls-11" d="M193.44,264.13c-2.4-1.59-5.63-1.42-8.28-.29a26.27,26.27,0,0,0-7,5c-.79.71-1.66,1.59-1.57,2.65a3.12,3.12,0,0,0,1.3,2,13.26,13.26,0,0,0,12.83,2.22,8.18,8.18,0,0,0,5.1-4.67c.77-2.25-.22-5.16-2.47-5.95"/><path class="cls-2" d="M193.85,263.42c-4.71-2.9-10-.36-13.84,2.75-1.49,1.21-4.63,3.24-4.18,5.54s3.1,3.69,5,4.47a13.44,13.44,0,0,0,13.57-1.71c3.26-2.7,3.49-8.43-.83-10.18-1-.39-1.4,1.18-.43,1.57a3.84,3.84,0,0,1,2.13,3.82c0,1.94-1.62,3.49-3.14,4.44-3.1,1.95-7.13,1.87-10.47.64-1.3-.48-4.87-2.17-4.1-4a6.75,6.75,0,0,1,1.87-2c.85-.76,1.72-1.51,2.64-2.21,3.08-2.34,7.35-4,11-1.78.9.55,1.72-.86.82-1.41Z"/><path class="cls-2" d="M193.26,263.81a14.55,14.55,0,0,0-7.37,4.19c-.73.76.43,1.92,1.15,1.15a13,13,0,0,1,6.66-3.77c1-.23.59-1.8-.43-1.57Z"/><path class="cls-12" d="M202.84,262.76c-2.15-1.78-2.1-5.13-1.18-7.77,1.75-5,5.78-8.86,9.66-12.49,2,3.73,3.65,7.9,3.22,12.12s-3.43,8.42-7.63,9a4.15,4.15,0,0,1-2.66-.37A2.22,2.22,0,0,1,203.1,261"/><path class="cls-2" d="M212,242.09a.82.82,0,0,0-1.28-.16c-3.39,3.17-6.8,6.44-8.94,10.63-1.67,3.28-2.63,8,.45,10.78a.79.79,0,0,0,.92.13,5.52,5.52,0,0,0,4.32.9,9.61,9.61,0,0,0,6.12-4.57C217.17,254.25,214.87,247.37,212,242.09Zm1.24,14.59a9.72,9.72,0,0,1-3.32,4.81c-1.35,1-6.39,2.77-6-.52.1-1-1.25-1-1.56-.22-1.34-2.75.26-6.48,1.71-8.91a38.23,38.23,0,0,1,7-8C213.11,247.79,214.61,252.28,213.27,256.68Z"/><path class="cls-2" d="M203.78,261.67a11.31,11.31,0,0,1,4.51-8.48c.83-.62,0-2-.82-1.41a13.07,13.07,0,0,0-5.32,9.88c-.06,1.05,1.58,1,1.63,0Z"/><path class="cls-2" d="M205.31,257.45a6.84,6.84,0,0,1,4.52-.36.82.82,0,0,0,.43-1.57,8.66,8.66,0,0,0-5.78.53c-1,.43-.13,1.83.82,1.41Z"/><path class="cls-2" d="M203.21,259.31l3.07,2c.88.59,1.69-.83.82-1.41l-3.07-2c-.88-.59-1.69.83-.82,1.41Z"/><path class="cls-12" d="M255.79,162.83c-.5-2.74,1.69-5.28,4.08-6.71,4.57-2.73,10.12-3.09,15.43-3.37-.84,4.16-2.27,8.39-5.31,11.36s-8,4.25-11.64,2a4.14,4.14,0,0,1-1.8-2,2.22,2.22,0,0,1,.59-2.49"/><path class="cls-2" d="M256.58,162.62c-.54-3.94,4.16-6.33,7.21-7.38,3.68-1.27,7.66-1.46,11.51-1.67l-.79-1c-.93,4.5-2.52,9.33-6.44,12.09a10,10,0,0,1-6.16,1.79c-1.57-.07-6.52-2-4.21-4.2.77-.72-.39-1.87-1.15-1.15-2,1.91-.53,4.5,1.38,5.76,2.33,1.54,5.41,1.48,8,.67,6.28-2,9-8.64,10.18-14.54a.82.82,0,0,0-.79-1c-4.62.25-9.32.56-13.63,2.37-3.55,1.5-7.25,4.48-6.66,8.75.14,1,1.71.6,1.57-.43Z"/><path class="cls-2" d="M257.17,162.66a11.39,11.39,0,0,1,9.08-3.65c1.05.06,1-1.57,0-1.63A13,13,0,0,0,256,161.51c-.72.77.43,1.92,1.15,1.15Z"/><path class="cls-2" d="M261,160.33a6.78,6.78,0,0,1,3.75,2.59c.61.85,2,0,1.41-.82a8.55,8.55,0,0,0-4.72-3.34.82.82,0,0,0-.43,1.57Z"/><path class="cls-2" d="M258.27,160.37l1,3.54a.82.82,0,0,0,1.57-.43l-1-3.54a.82.82,0,0,0-1.57.43Z"/><path class="cls-2" d="M103.88,188.9a116.55,116.55,0,0,1,26-23.89c.87-.58.05-2-.82-1.41a118,118,0,0,0-26.32,24.14c-.65.81.5,2,1.15,1.15Z"/><path class="cls-2" d="M109.26,188.81l22.43-20.14c.78-.7-.37-1.85-1.15-1.15L108.1,187.66c-.78.7.37,1.85,1.15,1.15Z"/><path class="cls-11" d="M253.08,96.91a7.55,7.55,0,0,0,.49-7,22.38,22.38,0,0,0-4-6.06c-.58-.69-1.3-1.45-2.2-1.41a2.63,2.63,0,0,0-1.72,1,11.24,11.24,0,0,0-2.25,10.81,7,7,0,0,0,3.81,4.46c1.89.72,4.38,0,5.11-1.93"/><path class="cls-2" d="M252.4,96.46c1.76-2.66.86-5.83-.66-8.37a29.37,29.37,0,0,0-3.1-4c-1.57-1.82-3,.47-3.74,1.8a10.37,10.37,0,0,0-.67,8.47A6.09,6.09,0,0,0,247.43,98a3.24,3.24,0,0,0,4.08-1.41c.43-1,2-.44,1.55.52a4.66,4.66,0,0,1-4,2.73,5.84,5.84,0,0,1-4.91-2.3c-2.79-3.23-2.67-8.34-.91-12,.77-1.6,2-3.55,3.9-3.88,2.05-.37,3.82,2.64,4.82,4,2.54,3.32,4.32,7.93,1.78,11.77a.82.82,0,0,1-1.36-.9Z"/><path class="cls-2" d="M251.88,97.07a11,11,0,0,0-3-5.68c-.74-.75.5-1.82,1.23-1.07a12.62,12.62,0,0,1,3.36,6.45.82.82,0,0,1-1.6.31Z"/><path class="cls-13" d="M250.94,87a10,10,0,0,0-3.7,4.16,26.91,26.91,0,0,0,3.2,3.28A14.51,14.51,0,0,1,250.94,87Z"/><path class="cls-2" d="M249.43,84.4a13.73,13.73,0,0,0-4.78,5.24,3.12,3.12,0,0,0,.47,3.64,30,30,0,0,0,3.2,3.28,3,3,0,0,0,5-2.92,12.1,12.1,0,0,1,.51-5.85c1.21-3.69-4.58-5.25-5.79-1.59a18.43,18.43,0,0,0-.51,9l5-2.92a30.3,30.3,0,0,1-3.2-3.28l.47,3.64a7.67,7.67,0,0,1,2.63-3.09C255.65,87.44,252.65,82.24,249.43,84.4Z"/><path class="cls-13" d="M262.08,99.5a4,4,0,0,0,.54-1.85c.11-1.9-.87-4.24-1.73-6.06-.28-.6-.56-1.15-.84-1.67-.79-1.35-2.16-2.39-3.41-1.7s-.63,2.68-.35,3.42c.95,2.53,1.88,3.67,2.39,3.88a.21.21,0,0,0,.2,0,.19.19,0,0,0,.13-.16c.22-.77-.69-2.67-1.37-3.72a.92.92,0,0,1,1.54-1c.36.55,2.11,3.38,1.59,5.22A2.06,2.06,0,0,1,258,97.22c-1-.39-1.88-1.5-2.74-3.31-.23-.49-.46-1-.68-1.63-.78-2.07-.71-4.62,1.18-5.67A3.52,3.52,0,0,1,257,86.2a4.27,4.27,0,0,0-3.52-.37,13,13,0,0,0-.65,10.43,20.51,20.51,0,0,0,4.82,2.38A16.23,16.23,0,0,0,262.08,99.5Z"/><path class="cls-2" d="M264.67,101c2-4.23.14-9.62-2.47-13.25S253.56,84,253,89.19c-.32,3,1.55,7.9,4.53,9.07a3.28,3.28,0,0,0,4.37-2.1c.7-2.27-1.12-4-1.49-6l-.3,2.31.4-.58-1.79,1.38.69-.13-2.31-.3q-.62-.86-.14-.1.27.47.51,1a6.25,6.25,0,0,1,.38,1.12q2.12.06.89-.86c-.09-1-3.06-4.38-.94-4.88,2.42-.57,3-4.34.72-5.48-2.53-1.25-6.27-1.7-7.85,1.16a15.09,15.09,0,0,0-1.41,9.44c.42,2.8,1.19,4.28,3.81,5.68a21.78,21.78,0,0,0,9,2.6c3.86.23,3.84-5.77,0-6a16.37,16.37,0,0,1-7.75-2.83l1.38,1.79a10.23,10.23,0,0,1,.35-8.12l-1.79,1.38a1.29,1.29,0,0,1,1.2.07l.72-5.48c-11.71,2.75-.61,22.86,6.28,15.45C265,96,263.65,90.59,261,88.3a3.85,3.85,0,0,0-5.87.86,3.78,3.78,0,0,0-.37,3.29c.32,1,1.31,1.88,1.26,2.92l.88-2.12-.12.16,2.12-.88c1.88,0,1.58,1.07.7-.75a7.7,7.7,0,0,1-.53-1.32q-.18-1.71-1.59,1c-.09.7,1.36,2.77,1.62,3.51s.85,2.14.41,3C257.82,101.45,263,104.49,264.67,101Z"/><path class="cls-13" d="M259.39,101.71a8.89,8.89,0,0,0,1-.53,19.29,19.29,0,0,1-3.21-.76,24.47,24.47,0,0,1-10.59-7.23,7.83,7.83,0,0,0,.57,4.92C249.14,102.34,254.64,104,259.39,101.71Z"/><path class="cls-2" d="M260.9,104.3a9.07,9.07,0,0,0,1-.53c2.07-1.22,2-5-.72-5.48-5-.84-9-3.49-12.48-7.22-1.41-1.53-4.68-.92-5,1.32-1.54,10.29,8.41,15.69,17.23,11.91,3.55-1.52.49-6.69-3-5.18-3.74,1.6-9.13-.34-8.42-5.13l-5,1.32c4,4.39,9.16,7.77,15.12,8.76l-.72-5.48a8.77,8.77,0,0,1-1,.53C254.42,100.87,257.46,106,260.9,104.3Z"/><path class="cls-11" d="M250.57,86.06a11.22,11.22,0,0,0-4.14,4.65A30.31,30.31,0,0,0,250,94.39,16.22,16.22,0,0,1,250.57,86.06Z"/><path class="cls-11" d="M263,100a4.48,4.48,0,0,0,.61-2.06c.12-2.13-1-4.74-1.94-6.78-.31-.67-.63-1.29-.94-1.87-.89-1.51-2.41-2.68-3.81-1.9-1.25.69-.71,3-.4,3.82,1.06,2.83,2.11,4.11,2.68,4.34a.24.24,0,0,0,.23,0,.22.22,0,0,0,.14-.17c.24-.86-.77-3-1.53-4.16a1,1,0,0,1,1.72-1.12c.4.62,2.36,3.78,1.78,5.84a2.3,2.3,0,0,1-3.11,1.51c-1.08-.44-2.1-1.68-3.06-3.7Q255,93,254.63,92c-.87-2.31-.79-5.17,1.33-6.34a4,4,0,0,1,1.38-.46,4.78,4.78,0,0,0-3.93-.42,14.57,14.57,0,0,0-.73,11.66,23,23,0,0,0,5.39,2.67A18.15,18.15,0,0,0,263,100Z"/><path class="cls-11" d="M260,102.52a10.31,10.31,0,0,0,1.09-.6,21.75,21.75,0,0,1-3.59-.85A27.33,27.33,0,0,1,245.68,93a8.74,8.74,0,0,0,.64,5.5C248.56,103.22,254.71,105,260,102.52Z"/><path class="cls-2" d="M99.48,170.08c.06-4.92,4.71-9.33,9.62-9.64,1.57-.1,1.58-2.55,0-2.45a12.41,12.41,0,0,0-9.5,5.16A12.69,12.69,0,0,0,97,170.08a1.22,1.22,0,0,0,2.45,0Z"/><path class="cls-2" d="M136.84,123.48a26,26,0,0,1-1.1-5c-.1-2.92,1.78-4.78,4.31-5.92,1.44-.65.19-2.75-1.23-2.11-3.1,1.4-5.22,3.82-5.5,7.27-.18,2.25.67,4.29,1.17,6.43.36,1.54,2.72.88,2.36-.65Z"/><path class="cls-2" d="M119.15,139.52a2.37,2.37,0,0,0-3.44-3.27c-.78.71.38,1.87,1.15,1.15s1.69.26,1.13,1a.84.84,0,0,0,0,1.15.82.82,0,0,0,1.15,0Z"/><path class="cls-2" d="M106.12,159.89a22.45,22.45,0,0,0,.94,4.49c.32,1,1.9.57,1.57-.43a20.45,20.45,0,0,1-.88-4.06c-.11-1-1.74-1-1.63,0Z"/><path class="cls-2" d="M104,160.67a12.35,12.35,0,0,0,.65,4.12c.33,1,1.91.57,1.57-.43a11,11,0,0,1-.59-3.69.82.82,0,0,0-1.63,0Z"/><path class="cls-2" d="M101.64,161.89a18.16,18.16,0,0,0,.38,3.65c.21,1,1.78.59,1.57-.43a16,16,0,0,1-.32-3.22.82.82,0,0,0-1.63,0Z"/><path class="cls-1" d="M123.64,146.54a3.79,3.79,0,0,1-.55-3.08,6.5,6.5,0,0,1,1.55-2.8,3.57,3.57,0,0,1,2.08-1.32,1.6,1.6,0,0,1,1.84,1.28,2.1,2.1,0,0,1-1.16,1.71,4.7,4.7,0,0,0-1.67,1.35c-.6,1-.07,2.36-.43,3.48-.08.25-.28.52-.53.48a.65.65,0,0,1-.35-.24l-.82-.89"/><path class="cls-2" d="M124.35,146.13a3.65,3.65,0,0,1,.26-4.09,4.54,4.54,0,0,1,1.93-1.82,1,1,0,0,1,1.07.18c.62.49-.67,1.27-.92,1.42a3.82,3.82,0,0,0-2,2.37,7,7,0,0,0-.07,1.8.69.69,0,0,0,.36.84c-.29-.28-.55-.6-.82-.89-.72-.77-1.87.38-1.15,1.15s1.15,1.53,2.2,1.29,1-1.65,1-2.39-.15-1.61.51-2.27c.42-.42,1.05-.63,1.51-1a2.4,2.4,0,0,0,.93-2.78c-1.14-2.31-3.79-1.27-5.14.18-1.73,1.85-2.58,4.62-1.12,6.87.57.88,2,.06,1.41-.82Z"/><path class="cls-2" d="M128.86,147.56a6.58,6.58,0,0,1,.17-2,2.93,2.93,0,0,1,1.29-1.49.82.82,0,0,0-.82-1.41,4.78,4.78,0,0,0-1.86,2,6.64,6.64,0,0,0-.4,2.88c0,1.05,1.59,1,1.63,0Z"/><path class="cls-2" d="M117.63,152.21a24.24,24.24,0,0,0,3.57,2.42c.77.43,0,1.56-.78,1.13a24.25,24.25,0,0,1-3.57-2.42c-.68-.56.09-1.69.78-1.13Z"/><path class="cls-2" d="M115.72,154.48a22.55,22.55,0,0,1,3.17,2.2c.68.56-.09,1.69-.78,1.13a22.49,22.49,0,0,0-3.17-2.2c-.74-.48,0-1.61.78-1.13Z"/><path class="cls-2" d="M113,156.47l3.31,2.32a.69.69,0,0,1-.78,1.13l-3.31-2.32a.69.69,0,0,1,.78-1.13Z"/><path class="cls-2" d="M110.18,157.59a33.77,33.77,0,0,0,4.69,3.63c.74.48,0,1.61-.78,1.13a35.86,35.86,0,0,1-5-3.87c-.65-.6.4-1.49,1-.89Z"/><path class="cls-2" d="M134.15,124c3.12,2,2.74,1.67,5.86,3.69.74.48,0,1.61-.78,1.13-3.12-2-2.74-1.67-5.86-3.69-.75-.48,0-1.61.78-1.13Z"/><path class="cls-2" d="M133.93,127.51a48.87,48.87,0,0,0,4.77,3.27.69.69,0,0,1-.78,1.13,48.71,48.71,0,0,1-4.77-3.28c-.68-.55.09-1.69.78-1.13Z"/><path class="cls-2" d="M132.47,130.11a35.75,35.75,0,0,1,4.19,2.84c.69.54-.08,1.68-.78,1.13a35.89,35.89,0,0,0-4.19-2.84c-.77-.44,0-1.57.78-1.13Z"/><path class="cls-2" d="M127.2,110.53a5.42,5.42,0,0,1,4.51,2.77c.44.77-.78,1.41-1.22.64a4,4,0,0,0-3.34-2,.69.69,0,0,1,0-1.37Z"/><path class="cls-2" d="M101.84,161.67a10.78,10.78,0,0,1-4.29-4.6c-.39-.79.82-1.43,1.22-.64a9.48,9.48,0,0,0,3.82,4.08c.76.44,0,1.6-.74,1.16Z"/><path class="cls-1" d="M116.54,121a6.06,6.06,0,0,1,2.34-3.5,9.71,9.71,0,0,1,11.15-.6A8.58,8.58,0,0,1,133,127.46a14.38,14.38,0,0,1-2.69,3.46,10.18,10.18,0,0,1-4.13,3,8.14,8.14,0,0,1-8.5-3.23c-1.58-2.59-3-7-1.1-9.63"/><path class="cls-2" d="M129.2,114.91c-5-2.16-12.26,0-13.93,5.56-2.44,4.28-.18,10.93,3.86,13.49,5.82,3.68,12.29-.26,15.05-5.88A9.94,9.94,0,0,0,129.2,114.91Zm2.49,12c-2.11,4.29-7.32,7.83-11.68,4.35-2.3-1.84-3.94-6.47-2.46-9.22a1.31,1.31,0,0,0,.29-.53c1.17-4.07,6.43-5.59,10.09-4.12A7.12,7.12,0,0,1,131.69,126.88Z"/><path class="cls-2" d="M112.16,138.56c-5-2.16-12.26,0-13.93,5.56-2.44,4.28-.18,10.93,3.85,13.49,5.82,3.68,12.29-.26,15.05-5.88A9.94,9.94,0,0,0,112.16,138.56Zm2.49,12c-2.11,4.29-7.32,7.83-11.68,4.35-2.31-1.84-3.94-6.47-2.46-9.22a1.33,1.33,0,0,0,.29-.53c1.17-4.07,6.43-5.59,10.09-4.12A7.12,7.12,0,0,1,114.65,150.53Z"/><path class="cls-2" d="M104.16,141a5.81,5.81,0,0,1-5.32-2.19.53.53,0,0,0-.28-.23.34.34,0,0,0-.36.3.94.94,0,0,0,.11.51,7.73,7.73,0,0,0,1.26,2,3.33,3.33,0,0,0,1.14.88,1.79,1.79,0,0,0,1.41,0,9.6,9.6,0,0,0,2-1.36"/><path class="cls-2" d="M102.17,142.52a1.91,1.91,0,0,1-1.52,0,3.41,3.41,0,0,1-1.19-.92,7.8,7.8,0,0,1-1.28-2.07,1,1,0,0,1-.12-.58.52.52,0,0,1,.21-.34.39.39,0,0,1,.3-.07.63.63,0,0,1,.35.28,5.72,5.72,0,0,0,5.21,2.14.13.13,0,0,1,.1.22,10.21,10.21,0,0,1-2,1.33Zm-3.44-3.58c-.06-.08-.13-.17-.2-.18a.14.14,0,0,0-.11,0,.27.27,0,0,0-.11.17.83.83,0,0,0,.1.44,7.54,7.54,0,0,0,1.23,2,3.17,3.17,0,0,0,1.1.85,1.66,1.66,0,0,0,1.31,0,8.25,8.25,0,0,0,1.68-1.07A5.91,5.91,0,0,1,98.73,138.94Z"/><path class="cls-2" d="M100,144a4.86,4.86,0,0,1-4.81-.2.44.44,0,0,0-.28-.1.29.29,0,0,0-.2.34.79.79,0,0,0,.23.37,6.53,6.53,0,0,0,1.57,1.24,2.79,2.79,0,0,0,1.15.37,1.5,1.5,0,0,0,1.12-.37A8,8,0,0,0,100,144"/><path class="cls-2" d="M97.66,146.15a2.88,2.88,0,0,1-1.2-.38,6.53,6.53,0,0,1-1.6-1.27.88.88,0,0,1-.27-.43.46.46,0,0,1,.07-.35.35.35,0,0,1,.23-.14.54.54,0,0,1,.37.12,4.77,4.77,0,0,0,4.69.19.11.11,0,0,1,.15,0,.13.13,0,0,1,0,.15,8.24,8.24,0,0,1-1.24,1.68,1.4,1.4,0,0,1-.37.26A1.74,1.74,0,0,1,97.66,146.15Zm-2.53-2.24a.36.36,0,0,0-.2-.08.1.1,0,0,0-.06,0,.21.21,0,0,0,0,.15.68.68,0,0,0,.2.31,6.29,6.29,0,0,0,1.54,1.22,2.63,2.63,0,0,0,1.1.35,1.36,1.36,0,0,0,1-.34,6.71,6.71,0,0,0,1-1.26A5,5,0,0,1,95.13,143.9Z"/><path class="cls-2" d="M98.59,148.71a4.86,4.86,0,0,1-4.44,1.86.43.43,0,0,0-.3,0,.28.28,0,0,0,0,.39.79.79,0,0,0,.37.24,6.53,6.53,0,0,0,1.95.46,7.93,7.93,0,0,0,2,0c.38-.15-.13-.59,0-1a8,8,0,0,0,.4-2"/><path class="cls-2" d="M98.21,151.82a5.94,5.94,0,0,1-1.84,0l-.25,0a6.56,6.56,0,0,1-2-.47.89.89,0,0,1-.42-.28.46.46,0,0,1-.08-.34.34.34,0,0,1,.15-.23.53.53,0,0,1,.38,0,4.77,4.77,0,0,0,4.33-1.81.13.13,0,0,1,.23.09,8.29,8.29,0,0,1-.41,2,.66.66,0,0,0,.06.43c.07.19.17.47-.12.61Zm-4.09-1.12a.36.36,0,0,0-.21,0,.09.09,0,0,0,0,.06.21.21,0,0,0,0,.15.67.67,0,0,0,.31.19,6.3,6.3,0,0,0,1.91.45l.26,0a6.55,6.55,0,0,0,1.73,0c.08,0,.09,0,0-.3a.86.86,0,0,1-.06-.6,6.68,6.68,0,0,0,.35-1.56A5,5,0,0,1,94.13,150.7Z"/><path class="cls-2" d="M115.52,126.34a5.81,5.81,0,0,0-4.84-3.12.53.53,0,0,1-.35-.09.34.34,0,0,1,0-.47.94.94,0,0,1,.48-.2,7.77,7.77,0,0,1,2.39-.14,3.34,3.34,0,0,1,1.38.43,1.79,1.79,0,0,1,.84,1.14,9.56,9.56,0,0,1,.06,2.45"/><path class="cls-2" d="M115.6,124a10.38,10.38,0,0,1,0,2.38.13.13,0,0,1-.1.12.13.13,0,0,1-.14-.07,5.72,5.72,0,0,0-4.73-3,.64.64,0,0,1-.43-.13.39.39,0,0,1-.12-.28.52.52,0,0,1,.16-.37,1,1,0,0,1,.55-.23,7.81,7.81,0,0,1,2.43-.14,3.44,3.44,0,0,1,1.43.45,1.9,1.9,0,0,1,.9,1.22Zm-.19,1.93a8.28,8.28,0,0,0-.08-2,1.65,1.65,0,0,0-.78-1.06,3.17,3.17,0,0,0-1.33-.41,7.53,7.53,0,0,0-2.35.14.83.83,0,0,0-.42.17.27.27,0,0,0-.08.19.14.14,0,0,0,0,.1.44.44,0,0,0,.27.06A5.91,5.91,0,0,1,115.42,125.9Z"/><path class="cls-2" d="M115.56,121.25a4.86,4.86,0,0,0-2.92-3.83.44.44,0,0,1-.25-.17.28.28,0,0,1,.17-.36.78.78,0,0,1,.44,0,6.5,6.5,0,0,1,1.92.58,2.76,2.76,0,0,1,1,.73,1.5,1.5,0,0,1,.33,1.13,8,8,0,0,1-.66,1.94"/><path class="cls-2" d="M116.33,118.87a1.39,1.39,0,0,1,0,.45,8.25,8.25,0,0,1-.67,2,.13.13,0,0,1-.13.07.11.11,0,0,1-.11-.11,4.77,4.77,0,0,0-2.84-3.73.55.55,0,0,1-.31-.23.35.35,0,0,1,0-.27.46.46,0,0,1,.24-.26.88.88,0,0,1,.51,0,6.55,6.55,0,0,1,2,.59,2.88,2.88,0,0,1,1,.77A1.74,1.74,0,0,1,116.33,118.87Zm-.72,1.94a6.67,6.67,0,0,0,.48-1.52,1.36,1.36,0,0,0-.31-1,2.65,2.65,0,0,0-.92-.7A6.28,6.28,0,0,0,113,117a.68.68,0,0,0-.37,0,.21.21,0,0,0-.11.11.1.1,0,0,0,0,.07s.11.08.18.11A5,5,0,0,1,115.61,120.81Z"/><path class="cls-2" d="M118.61,117.38a4.86,4.86,0,0,0-1-4.71.44.44,0,0,1-.15-.26.29.29,0,0,1,.3-.25.79.79,0,0,1,.4.17,6.53,6.53,0,0,1,1.49,1.33,8,8,0,0,1,1.17,1.67c.09.4-.56.24-.79.57a8,8,0,0,1-1.42,1.48"/><path class="cls-2" d="M120.95,115.33c.05.31-.24.39-.43.44a.67.67,0,0,0-.38.2,8.18,8.18,0,0,1-1.44,1.5.13.13,0,0,1-.2-.13,4.77,4.77,0,0,0-1-4.58.53.53,0,0,1-.18-.34.34.34,0,0,1,.1-.25.46.46,0,0,1,.33-.13.89.89,0,0,1,.47.19,6.54,6.54,0,0,1,1.52,1.36l.16.2a5.91,5.91,0,0,1,1,1.52Zm-2.1,1.68a6.77,6.77,0,0,0,1.08-1.18.86.86,0,0,1,.53-.3c.26-.07.26-.1.24-.18a6.57,6.57,0,0,0-1-1.42l-.16-.2a6.32,6.32,0,0,0-1.46-1.31.68.68,0,0,0-.34-.15.21.21,0,0,0-.14.06.09.09,0,0,0,0,.07c0,.06.06.12.12.18A5,5,0,0,1,118.85,117Z"/><path class="cls-10" d="M111.22,140.6c-4-1.71-9.71,0-11,4.41-1.93,3.39-.15,8.66,3.05,10.69,4.61,2.92,9.74-.2,11.92-4.66A7.88,7.88,0,0,0,111.22,140.6Z"/><path class="cls-2" d="M111.84,139.55l-.17-.06-.12-.06c-4.27-1.73-9.86-.19-12,4a10.27,10.27,0,0,0,2.85,13.13c4.79,3.58,10.82.23,13.5-4.22A9.14,9.14,0,0,0,111.84,139.55Zm1.9,11.57c-2,3.64-6.4,5.86-10.15,3.35a7.72,7.72,0,0,1-2-9.78c1.51-3.34,6-4.14,9.11-3A6.71,6.71,0,0,1,113.74,151.11Z"/><path class="cls-2" d="M113.44,143a19.72,19.72,0,0,0-9.66,10c-.15.35-.35.76-.72.83a.78.78,0,0,1-.82-.65,2.12,2.12,0,0,1,.16-1.13,17.07,17.07,0,0,1,3.83-6.48,11.83,11.83,0,0,1,6.57-3.52,1.68,1.68,0,0,1,.83,0,.64.64,0,0,1,.45.63c0,.28-.42.47-.62.27"/><path class="cls-2" d="M114.21,142c-.77-1-3.08,0-4,.32-3.68,1.43-6.24,4.71-7.75,8.25-.43,1-1.33,2.77,0,3.54s2-1.7,2.35-2.4a19.53,19.53,0,0,1,8.68-8.31C114.31,143.5,114.71,142.67,114.21,142Z"/><path class="cls-1" d="M129.09,81h-86c-19.81,0-36-15.75-36-35h0c0-19.25,16.21-35,36-35h86c19.81,0,36,15.75,36,35h0C165.11,65.27,148.9,81,129.09,81Z"/><circle class="cls-1" cx="46.64" cy="99.11" r="5.05"/><path class="cls-14" d="M36.37,29.94c-.14,1-.29,2-.42,2.87h2.46v.85A18.89,18.89,0,0,1,37,40.42c.58.64,1.07,1.22,1.47,1.73l-1,1.14c-.34-.46-.74-.94-1.18-1.46A12.06,12.06,0,0,1,34,44.71l-1-1.2a10.32,10.32,0,0,0,2.29-2.82c-.61-.66-1.26-1.34-2-2,.35-1.36.66-2.82.93-4.39H33.06V32.81h1.42c.14-1,.27-2,.4-3ZM37,34.26H35.71c-.29,1.57-.59,2.9-.9,4,.42.38.79.75,1.14,1.1A16.59,16.59,0,0,0,37,34.26Zm4.63,2.85a21.83,21.83,0,0,1-1.78,5.54l-1.28-.82a19.56,19.56,0,0,0,1.68-5Zm-.72,7.46-.34-1.46a9.47,9.47,0,0,0,1.31.1c.32,0,.48-.16.48-.45v-9.3H41.22a13.55,13.55,0,0,1-1.71,2.79L38.58,35a12.36,12.36,0,0,0,2.19-5.33l1.55.19A18.92,18.92,0,0,1,41.8,32h5.33v1c-.16,1.06-.37,2.11-.61,3.17L45,35.7a16.89,16.89,0,0,0,.56-2.24H43.86v9.67a1.29,1.29,0,0,1-1.47,1.44Zm6.72-2.45-1.36.61a47.24,47.24,0,0,0-1.66-5.54l1.33-.45A45.1,45.1,0,0,1,47.61,42.12Z"/><path class="cls-14" d="M51.84,30.12v10.6a33.35,33.35,0,0,0,3.3-1.62l.45,1.44a37.3,37.3,0,0,1-5.94,2.67l-.53-1.47c.4-.13.8-.27,1.2-.42V30.12ZM57.72,36l-1.3.88a34.43,34.43,0,0,0-3.19-4.55l1.3-.78A35.59,35.59,0,0,1,57.72,36Zm-2.77,8.5-1-1.25a11.33,11.33,0,0,0,5.23-5.78,25.21,25.21,0,0,0,1-7.48h1.57a25.75,25.75,0,0,1-1,7.73c-.06.21-.14.42-.21.62a37.16,37.16,0,0,1,3.2,4.77L62.53,44.3a31.25,31.25,0,0,0-2.69-4.53A13,13,0,0,1,54.95,44.49Z"/><path class="cls-14" d="M79.32,38.15q0,4.66-.62,5.57a2.35,2.35,0,0,1-2.1.93c-.45,0-1,0-1.58-.06l-.38-1.44,1.62.11c.66,0,1.07-.24,1.23-.64a11.65,11.65,0,0,0,.3-3.11H68.13a14.66,14.66,0,0,1-2.45,2l-.75-1.34a13.68,13.68,0,0,0,5.2-6.47H66V32.33h2.43a16.68,16.68,0,0,0-1.14-1.6l1.2-.75a13.67,13.67,0,0,1,1.33,1.81l-.77.54h1.54a22.8,22.8,0,0,0,.59-2.45l1.49.19c-.16.8-.34,1.55-.54,2.26H77l-.59,2.83h1.94l-.53,3ZM69.27,40.75a10.74,10.74,0,0,1-1.76,3.44l-1.33-.83a8.88,8.88,0,0,0,1.7-2.91Zm0-2.59h7.06l.37-1.65H70.4A17.2,17.2,0,0,1,69.31,38.15Zm2.55,5.39-1.46.18a10.28,10.28,0,0,0-.51-2.88l1.3-.16A8.59,8.59,0,0,1,71.86,43.55Zm-.14-9.88c-.19.51-.4,1-.61,1.49H75l.38-1.49Zm2.77,9.14-1.38.5a20.93,20.93,0,0,0-.88-2.61l1.18-.34A18.76,18.76,0,0,1,74.48,42.81Zm2.43-.58-1.39.35a16.35,16.35,0,0,0-.9-2.27l1.22-.38A14.18,14.18,0,0,1,76.92,42.23Z"/><path class="cls-14" d="M89.17,38.41c0,.32-.11.61-.18.9h6v1.41H88.48A6.24,6.24,0,0,1,87,42.55c-1.06.93-2.91,1.66-5.59,2.21l-.62-1.47a11.9,11.9,0,0,0,5-1.75,5.12,5.12,0,0,0,.83-.83H81.58V39.3h5.84a8.31,8.31,0,0,0,.26-1.06Zm-4-7a8.32,8.32,0,0,0-.67-1.3l1.59-.26a16.39,16.39,0,0,1,.64,1.55h3.17a9.41,9.41,0,0,0,.54-1.6L92,30a5.82,5.82,0,0,1-.58,1.39h3.34v1.38H89V34h4.91v1.28H89v1.25H95.3v1.41H81.22V36.52h6.29V35.27H82.64V34h4.87V32.76H81.74V31.38ZM95.69,43.45l-.87,1.33a30.78,30.78,0,0,0-5.87-2.51l.8-1.18A34.52,34.52,0,0,1,95.69,43.45Z"/><path class="cls-14" d="M101,29.86c-.18,1.06-.35,2-.53,2.95h2.67v.83a17.21,17.21,0,0,1-1.47,6.53A22.34,22.34,0,0,1,103.81,42l-1,1.2c-.51-.53-1.14-1.1-1.84-1.71A12.29,12.29,0,0,1,98,44.75l-1-1.28a10.51,10.51,0,0,0,2.79-2.93c-.74-.59-1.54-1.2-2.4-1.84.48-1.38.9-2.85,1.28-4.43H97.09V32.81h1.86c.19-1,.38-2,.54-3.07Zm.66,4.4h-1.49a37.11,37.11,0,0,1-1.14,4c.51.35,1,.7,1.42,1A14.32,14.32,0,0,0,101.63,34.26ZM107,36.47V34.63a17.54,17.54,0,0,0,2.32-2.58H104V30.58H111v1.47a23.91,23.91,0,0,1-2.55,3v1.38h3.12v1.47H108.5V42.7c0,1.18-.46,1.78-1.36,1.78h-2.37l-.4-1.44,2.14,0c.3,0,.46-.27.46-.82V37.94h-3.47V36.47Z"/><path class="cls-14" d="M118.87,43.66h-1.46v-.83h-2.53v1.3h-1.46V32.52h1.52a14.77,14.77,0,0,0,.64-2.67l1.52.21a12.94,12.94,0,0,1-.7,2.46h2.46Zm-1.46-6.75V34h-2.53V36.9Zm0,4.51V38.26h-2.53v3.15Zm9.48,1.33c-.16,1.15-.93,1.73-2.29,1.73-.32,0-.9,0-1.7-.08L122.53,43c.7,0,1.31.06,1.82.06a1,1,0,0,0,1.1-1c.1-.8.14-3.49.18-8.05h-4a14.38,14.38,0,0,1-1.57,2.64l-.91-1.2a14,14,0,0,0,2.18-5.62l1.5.19a18.68,18.68,0,0,1-.64,2.51h4.95C127.13,38.06,127,41.47,126.89,42.75Zm-2.71-2.95-1.2.85a30.11,30.11,0,0,0-2.46-3.52l1.23-.77A26.76,26.76,0,0,1,124.18,39.8Z"/><path class="cls-14" d="M137.27,36.42a2.11,2.11,0,0,1,.4,1.31,3.37,3.37,0,0,1-.72,2.15A3.59,3.59,0,0,1,135,41.11v-1a2.35,2.35,0,0,0,1.09-.75,2,2,0,0,0,.4-1.12,1.19,1.19,0,0,1-.38.06,1.14,1.14,0,0,1-.83-.35,1.16,1.16,0,0,1-.34-.85,1.12,1.12,0,0,1,.35-.86,1.24,1.24,0,0,1,.91-.34A1.27,1.27,0,0,1,137.27,36.42Z"/><path class="cls-14" d="M44.49,50.61V52.1H39.31c-.29.61-.59,1.2-.93,1.76v.7a34,34,0,0,1,6.51,4.75l-1,1.26a28.92,28.92,0,0,0-5.47-4.42v8.52H36.81V56a22.49,22.49,0,0,1-5.6,4.59l-1-1.33a17.53,17.53,0,0,0,7.39-7.19H30.7V50.61Z"/><path class="cls-14" d="M60.83,56.38v1.5H46.34v-1.5Z"/><path class="cls-14" d="M74.37,54.5v1.44H70.43v2.4H75v1.44H70.43v2.95a30.46,30.46,0,0,0,4,.26c.8,0,1.63,0,2.46-.11l-.29,1.5h-1.5c-3.36,0-5.78-.3-7.22-.91a6.15,6.15,0,0,1-2.5-2.11,11.6,11.6,0,0,1-2.26,3.26l-1-1.22a12.31,12.31,0,0,0,3-6.31l1.47.26A22.2,22.2,0,0,1,66,60a5.15,5.15,0,0,0,2.82,2.42l.14,0V55.94H64.86V54.5ZM76.3,55H74.81V52.79H64.38v2.3H62.89V51.38h6A11.51,11.51,0,0,0,68.17,50l1.63-.26c.22.5.45,1,.66,1.65H76.3Z"/><path class="cls-14" d="M92.72,56v1.28H85.63v7.41H84.14V63.34c-1.28.21-3.09.4-5.43.56l-.19-1.28,1.36-.06V57.27H78.5V56Zm-1.87-.7H89.36V51.53H81.93v3.81H80.46v-5H90.84Zm-6.71,2.9v-.91H81.32v.91Zm0,2.07v-1H81.32v1Zm0,1.89v-.8H81.32v1.12C82.39,62.36,83.34,62.27,84.14,62.14Zm4.72-8.05v1h-6.4v-1Zm0-1.74v1H82.49v-1Zm-2.56,6.95V58h5.59v1.18a7.51,7.51,0,0,1-1.49,3,12.07,12.07,0,0,0,2.4,1.3L92,64.73a13,13,0,0,1-2.61-1.6,11.12,11.12,0,0,1-2.79,1.59l-.78-1.18a10.09,10.09,0,0,0,2.54-1.39,7.17,7.17,0,0,1-1.57-2.85Zm4.19,0H88.09a5.33,5.33,0,0,0,1.22,2A6.22,6.22,0,0,0,90.46,59.29Z"/><path class="cls-14" d="M98.3,53.78V55a22.13,22.13,0,0,1-1.76,2.48h1.92v1a17,17,0,0,1-.8,3l.37.3a4.84,4.84,0,0,0,1.46,1.06,6.32,6.32,0,0,0,2,.32c.86,0,1.84,0,3,0s2.66,0,4.51-.11l-.34,1.42h-4q-1.68,0-3.22,0A7.92,7.92,0,0,1,99,64a5.24,5.24,0,0,1-1.81-1.26.48.48,0,0,0-.37-.18c-.32,0-.82.69-1.5,2.07l-1.1-1a4.94,4.94,0,0,1,2.1-2.45A15.2,15.2,0,0,0,97,58.73h-2.3V57.58a21.14,21.14,0,0,0,1.89-2.42H94.44V53.78Zm-.1-1.54-1,1a15.61,15.61,0,0,0-2.43-2.32l1-.94A16.71,16.71,0,0,1,98.2,52.25Zm2.47,2.85v7.32H99.34v-8.6h2.1a10.13,10.13,0,0,0-.8-1.18l1-.37H98.91V51h4.16q-.22-.48-.43-.86l1.54-.26c.14.34.29.7.43,1.12h4.08v1.3h-2.56l1,.32a10.19,10.19,0,0,1-.8,1.23h2.06V61a1.34,1.34,0,0,1-1.49,1.54H105.2l-.26-.91h-3.38V58.14h1.65v-.94h-2V56h2v-.91Zm1.39-2.83a10.79,10.79,0,0,1,.82,1.55h1.94a12.12,12.12,0,0,0,.93-1.55Zm2.9,6.91h-2.27v1.36H105Zm1.49,2.08c.35,0,.54-.21.54-.61V55.09h-2.53V56h1.91v1.18h-1.91v.94h1.62v3.11Z"/><path class="cls-14" d="M118.16,49.84a22.94,22.94,0,0,0,6.95,5.38l-.82,1.46a25.09,25.09,0,0,1-2.48-1.54v1.14h-8.42V55.11a25.41,25.41,0,0,1-2.55,1.6l-.8-1.47a23.16,23.16,0,0,0,7-5.39Zm4.66,14.79h-1.47v-.86h-7.49v.86h-1.47V58h10.44Zm-1.44-9.81a21.76,21.76,0,0,1-3.78-3.6,21,21,0,0,1-3.81,3.6Zm0,7.51V59.42h-7.49v2.91Z"/><path class="cls-14" d="M129.71,49.94c-.14,1-.29,2-.42,2.87h2.46v.85a18.89,18.89,0,0,1-1.38,6.77c.58.64,1.07,1.22,1.47,1.73l-1,1.14c-.34-.46-.74-.94-1.18-1.46a12.06,12.06,0,0,1-2.35,2.88l-1-1.2a10.32,10.32,0,0,0,2.29-2.82c-.61-.66-1.26-1.34-2-2,.35-1.36.66-2.82.93-4.39h-1.18V52.81h1.42c.14-1,.27-2,.4-3Zm.61,4.32H129c-.29,1.57-.59,2.9-.9,4,.42.38.79.75,1.14,1.1A16.59,16.59,0,0,0,130.31,54.26Zm4.63,2.85a21.83,21.83,0,0,1-1.78,5.54l-1.28-.82a19.56,19.56,0,0,0,1.68-5Zm-.72,7.46-.34-1.46a9.47,9.47,0,0,0,1.31.1c.32,0,.48-.16.48-.45v-9.3h-1.12a13.55,13.55,0,0,1-1.71,2.79l-.93-1.2a12.36,12.36,0,0,0,2.19-5.33l1.55.19a18.92,18.92,0,0,1-.53,2.08h5.33v1c-.16,1.06-.37,2.11-.61,3.17l-1.5-.43a16.89,16.89,0,0,0,.56-2.24H137.2v9.67a1.29,1.29,0,0,1-1.47,1.44Zm6.72-2.45-1.36.61a47.24,47.24,0,0,0-1.66-5.54l1.33-.45A45.1,45.1,0,0,1,140.94,62.12Z"/><path class="cls-14" d="M145.1,61a1.06,1.06,0,0,1,.34.82,1.12,1.12,0,0,1-.34.83,1.27,1.27,0,0,1-.85.32,1.11,1.11,0,0,1-.82-.34,1.07,1.07,0,0,1-.35-.82,1,1,0,0,1,.35-.82,1.09,1.09,0,0,1,.82-.32A1.15,1.15,0,0,1,145.1,61Zm.16-9.46-.37,8.2h-1.26l-.37-8.2Z"/></g></svg>