<svg xmlns="http://www.w3.org/2000/svg" viewBox="0 0 310 290"><defs><style>.cls-1{isolation:isolate;}.cls-2{fill:#e6e6e6;}.cls-3{fill:#162585;}.cls-4{mix-blend-mode:multiply;}.cls-5{fill:#ccc;}.cls-6{fill:#8fe1ff;}.cls-7{fill:#fff;}.cls-8{fill:#b3b3b3;}.cls-9{fill:#fbd23b;}.cls-10{fill:#81cbe6;}.cls-11{fill:#ff4a46;}.cls-12{fill:#534741;}</style></defs><title>princess-cinderalla</title><g class="cls-1"><g id="圖層_1" data-name="圖層 1"><path class="cls-2" d="M72.81,155.83c-6.42-.74-12.57-1-19-1.22a6.87,6.87,0,0,0,5.74,5.77,4.45,4.45,0,0,1,1.58.34c1,.52,1.17,1.78,1.34,2.86a22.23,22.23,0,0,0,2.5,7.15A12.77,12.77,0,0,0,69.86,176a7,7,0,0,0,6.93,0,7.57,7.57,0,0,0,2.45-2.83A11.85,11.85,0,0,0,79.66,163c-1.39-3.22-3.47-6.21-6.85-7.11"/><path class="cls-3" d="M81.31,165c-.87-4.27-3.91-8.79-8.24-10H73a1,1,0,0,0-.21-.07c-6.32-.72-12.67-1-19-1.22a1,1,0,0,0-.94,1.24,7.74,7.74,0,0,0,2.85,4.86,7.94,7.94,0,0,0,2.4,1.32c.83.28,2.32.12,2.86.85s.56,2.14.77,3.06a22.49,22.49,0,0,0,1.13,3.63,19.81,19.81,0,0,0,3.38,5.69c2.65,3,7.35,4.91,11,2.52S82.14,169.06,81.31,165ZM76.16,175.2c-3.56,2.17-7.57-.69-9.54-3.62A20.34,20.34,0,0,1,64,166.1c-.5-1.65-.47-3.69-1.38-5.17-1.07-1.74-3.16-1.23-4.77-2.08a6,6,0,0,1-2.82-3.21c5.82.21,11.63.49,17.42,1.13l.06,0c3.33,1,5.54,4.29,6.55,7.45C80.23,167.77,79.61,173.09,76.16,175.2Z"/><g class="cls-4"><path class="cls-5" d="M75.36,157.08l-5.18,5.8c-5.81-3.51-7.38-6.18-7.61-7.89-2.9-.16-5.81-.27-8.78-.38a6.87,6.87,0,0,0,5.74,5.77,4.45,4.45,0,0,1,1.58.34c1,.52,1.17,1.78,1.34,2.86a22.23,22.23,0,0,0,2.5,7.15A12.76,12.76,0,0,0,69.86,176a7,7,0,0,0,6.93,0,7.57,7.57,0,0,0,2.45-2.83A11.85,11.85,0,0,0,79.66,163,13.85,13.85,0,0,0,75.36,157.08Z"/></g><path class="cls-6" d="M60,155.12a43.59,43.59,0,0,1-7-2.1c-2.81-1-3.8,2.13-3.35,3.3C52,162.48,60.32,161,60.1,160.1c-.15-.64-.83-3.9,0-4.87"/><path class="cls-3" d="M60.93,155.73a.83.83,0,0,0-.33-1.28,1,1,0,0,0-.61-.31A19.75,19.75,0,0,1,55.86,153a14.25,14.25,0,0,0-3.78-1.14,3.69,3.69,0,0,0-3.38,4.73c1.33,4.27,7.16,6.52,11.21,4.89C62.44,160.46,59.67,157.49,60.93,155.73Zm-4.8,4.2a6.61,6.61,0,0,1-4.94-2.71,2.45,2.45,0,0,1-.53-2.33,1.47,1.47,0,0,1,2.07-.93,59.67,59.67,0,0,0,6.07,1.95,7.24,7.24,0,0,0-.06,1.75c0,.53.11,1.06.2,1.59,0,.15.05.31.08.46a6.14,6.14,0,0,1-.67.16A8.5,8.5,0,0,1,56.13,159.92Zm3.17-.3s0,0,0,0Z"/><path class="cls-7" d="M49.54,206.72,0,218.88l24.77,32.43,26.47,2.54L39.58,273.63l34.78,6.57,41.75,8.61,4-14.56,35.07-3.74,45.56-8.81L194,239.07l46.68,2.09L310,199.42s-16.93-22-19.69-20.83S49.54,206.72,49.54,206.72Z"/><path class="cls-2" d="M46.5,215.25s-6.76,4.25-7.26,11.93a15.18,15.18,0,0,0-11.66,4.29c-5.3,5.13,13.66,6.09,18.27,5.59S57.85,235.19,46.5,215.25Z"/><path class="cls-8" d="M46.5,215.25a18,18,0,0,0-5.82,6.63c.28,3.36,1.23,7.24,3.87,9.7a21.93,21.93,0,0,1-17.61.68c-2.67,4.44,14.55,5.28,18.91,4.8C50.46,236.56,57.85,235.19,46.5,215.25Z"/><path class="cls-3" d="M52.79,226.79a55,55,0,0,0-5.45-12,.88.88,0,0,0-.46-.4.83.83,0,0,0-.87,0,17.18,17.18,0,0,0-7.62,11.73,15.17,15.17,0,0,0-5,.77,16.25,16.25,0,0,0-5,2.58,6.79,6.79,0,0,0-2.6,2.89c-1.31,4.07,6.51,4.92,8.87,5.24a45,45,0,0,0,12.51.25c2.6-.4,5-1.56,5.93-4.22C53.85,231.46,53.4,229,52.79,226.79Zm-1.29,5.09c-.22,2.37-1.71,3.44-3.85,3.92a16,16,0,0,1-3.18.37,56.07,56.07,0,0,1-6.08-.14,43,43,0,0,1-6.81-.94c-1.22-.29-3.32-.76-3.91-1.78a.34.34,0,0,1,0-.33,3.14,3.14,0,0,1,.5-.72A13.46,13.46,0,0,1,33.22,229a13.15,13.15,0,0,1,6-.87c.55.07.94-.5,1-1a15.06,15.06,0,0,1,6-10.5,56.29,56.29,0,0,1,4.26,9.12A14.92,14.92,0,0,1,51.5,231.89Z"/><polygon class="cls-7" points="299.89 176.86 248.25 199.99 248.25 172.86 300.01 153.22 299.89 176.86"/><path class="cls-3" d="M301,153.22a1,1,0,0,0-1.23-.94l-17.5,6.64L254.37,169.5,248,171.92a1,1,0,0,0-.72.94V200a1,1,0,0,0,1.47.84L266.2,193,294,180.55l6.37-2.85a.77.77,0,0,0,.48-.91q.05-10.33.11-20.65Q301,154.67,301,153.22Zm-19.05,30.62-27.81,12.46-4.9,2.19v-25L266,167.16l27.88-10.58,5.14-1.95-.1,19.31q0,1.15,0,2.29Z"/><polygon class="cls-7" points="221.97 222.2 125.52 213.17 125.52 195.23 221.97 203.04 221.97 222.2"/><path class="cls-3" d="M222,202.06l-9.62-.78-23-1.86-27.91-2.26-24-1.95-8-.64c-1.24-.1-2.53-.32-3.77-.31h-.16a1,1,0,0,0-1,1v17.94a1,1,0,0,0,1,1l9.62.9,23,2.15L186,219.81l24,2.25,8,.75c1.24.12,2.53.35,3.77.35H222a.79.79,0,0,0,.88-.54,1,1,0,0,0,.1-.43V203A1,1,0,0,0,222,202.06Zm-9.62,18.26-23-2.15-27.91-2.61-24-2.25-8-.75c-.94-.09-2-.3-3-.35V196.28l8.64.7,23,1.86L186,201.1l24,1.95,8,.64c.94.08,2,.27,3,.31v17.13Z"/><polygon class="cls-7" points="221.97 203.34 125.58 195.35 158.04 186.29 247.85 192.21 221.97 203.34"/><path class="cls-3" d="M247.85,191.23l-16.07-1.06-33.91-2.23-31.05-2-7.87-.52a13.23,13.23,0,0,0-4.44.89l-28.45,7.94-.74.21a1,1,0,0,0,.26,1.92l9.64.8,22.92,1.9,27.93,2.32,24,2,8,.66c1.24.1,2.53.32,3.78.31H222a.82.82,0,0,0,.61-.19l22.54-9.7,3.22-1.39C249.31,192.63,248.71,191.29,247.85,191.23Zm-89.73-4c-.08,0-.07,0,0,0Zm63.69,15.09-9.49-.79-22.92-1.9-27.93-2.32-24-2-6.42-.53L151.84,189l5.43-1.51.89-.25h.1a56.88,56.88,0,0,0,6.1.4l29.24,1.93,34.74,2.29,12.83.84c.81.05,1.63.14,2.46.22l-18.94,8.15Z"/><polygon class="cls-7" points="299.95 186.64 222.27 222.08 222.27 203.96 299.95 170.36 299.95 186.64"/><path class="cls-3" d="M300.93,186.56v-16.2a1,1,0,0,0-1.47-.84l-7.74,3.35-18.58,8-22.37,9.67L231.35,199,225,201.73a30.37,30.37,0,0,0-3.06,1.32l-.13.06a1,1,0,0,0-.48.84v18.12a1,1,0,0,0,1.47.84l7.74-3.53L249,211l22.47-10.25,19.42-8.86,6.38-2.91c1-.45,2.09-.83,3-1.39l.14-.06A.78.78,0,0,0,300.93,186.56Zm-9.21,2.76-18.49,8.44L250.76,208l-19.43,8.86L225,219.79c-.53.24-1.13.46-1.71.7v-15.9l7.26-3.14,18.58-8,22.37-9.67,19.43-8.4,6.38-2.76c.53-.23,1.13-.44,1.72-.67V186Z"/><polygon class="cls-7" points="247.85 192.21 157.58 185.88 157.81 167.09 247.85 173.04 247.85 192.21"/><path class="cls-3" d="M247.85,172.07l-9-.59-21.5-1.42-26-1.72-22.49-1.49-7.41-.49c-1.16-.08-2.36-.26-3.52-.23h-.15a1,1,0,0,0-1,1q-.11,8.2-.21,16.4,0,1.19,0,2.39a1,1,0,0,0,1,1l9,.63L188.13,189l26,1.82,22.6,1.58,7.41.52c1.15.08,2.36.27,3.52.25h.15a.81.81,0,0,0,.86-.52.94.94,0,0,0,.12-.46V173A1,1,0,0,0,247.85,172.07ZM238.9,190.6l-21.61-1.51-26-1.82-22.6-1.58-7.41-.52c-.84-.06-1.79-.24-2.68-.27q.1-7.71.2-15.41,0-.67,0-1.35l8,.53,21.5,1.42,26,1.72,22.49,1.49,7.41.49c.84.06,1.8.23,2.69.26v17.13Z"/><polygon class="cls-7" points="248.26 173.5 158.18 166.91 205.56 156.42 298.69 154 248.26 173.5"/><path class="cls-3" d="M298.69,153l-19.84.52-39.88,1-30.36.79a21.11,21.11,0,0,0-4.06.28l-13.26,2.94-32.71,7.24-.66.15c-1.13.25-.79,1.84.26,1.92l9,.66,21.51,1.57,26,1.9,22.5,1.65,7.42.54c1.11.08,2.26.26,3.38.25a.82.82,0,0,0,.52,0,.79.79,0,0,0,.32-.12l16.77-6.48,27.16-10.51,6.21-2.4C299.91,154.57,299.87,153,298.69,153Zm-17.31,6.63-27.16,10.51-6.09,2.36-8.81-.65-21.51-1.57-26-1.9-22.5-1.65-4.38-.32,22.28-4.94L203.09,158c.83-.18,1.65-.39,2.49-.55l.36,0,1.09,0,27.41-.71,40.1-1,15.8-.41c.86,0,1.74,0,2.62,0Z"/><polygon class="cls-7" points="270.68 164.45 187.17 161.36 187.18 145.47 270.68 147.44 270.68 164.45"/><path class="cls-3" d="M271.66,147.44a1,1,0,0,0-1-1l-8.33-.2-19.88-.47-24.16-.57-20.81-.49-6.9-.16c-1.08,0-2.2-.14-3.28-.08h-.14a1,1,0,0,0-1,1q0,7.94,0,15.88a1,1,0,0,0,1,1l8.3.31,19.94.74,24.12.89,20.86.77,6.88.25c1.07,0,2.19.17,3.27.12h.14a.83.83,0,0,0,.8-.44.9.9,0,0,0,.18-.54Zm-9.28,15.73-19.94-.74-24.12-.89-20.86-.77-6.88-.25c-.75,0-1.62-.17-2.44-.17q0-6.93,0-13.86l7.35.17,19.89.47,24.16.57,20.81.49,6.9.16c.76,0,1.63.14,2.45.14v15Z"/><polygon class="cls-7" points="300.01 153.22 270.99 164.33 270.99 148.35 300.01 137.66 300.01 153.22"/><path class="cls-3" d="M299.75,136.71l-25.44,9.38-3.58,1.32a1,1,0,0,0-.72.94v16a1,1,0,0,0,1.24.94l25.47-9.75,3.55-1.36.09-.05a.89.89,0,0,0,.63-.89V137.66A1,1,0,0,0,299.75,136.71ZM274.28,162l-2.32.89V149l24.72-9.11,2.35-.87v13.5Z"/><polygon class="cls-7" points="270.68 147.74 187.78 145.32 225.21 135.44 300.15 137.27 270.68 147.74"/><path class="cls-3" d="M300.15,136.3l-15.88-.39-32-.78-24.53-.6a11.84,11.84,0,0,0-3.33.11l-10.27,2.71-26.12,6.9-.54.14a1,1,0,0,0,.26,1.92l8.24.24,19.79.58,23.94.7,20.71.6,6.83.2c1,0,2.12.14,3.17.1a.88.88,0,0,0,.49,0l.06,0,.15-.05,25.58-9.09,3.69-1.31A1,1,0,0,0,300.15,136.3Zm-29.61,10.47-8.09-.24-19.79-.58-23.94-.7L198,144.64l-3.46-.1,16.36-4.32,12.51-3.3,1.53-.4c.15,0,.54-.08.46-.1l1.06,0,22.11.54,32.32.79,12.56.31,1.32.06-20.68,7.35Z"/><path class="cls-3" d="M226.56,214l.25,5.38c0,.83,1.34.84,1.3,0q-.13-2.69-.25-5.38c0-.83-1.34-.84-1.3,0Z"/><path class="cls-3" d="M230.22,212.25l.22,4.89c0,.83,1.34.84,1.3,0q-.11-2.45-.22-4.89c0-.83-1.34-.84-1.3,0Z"/><path class="cls-3" d="M234.18,210.65l.22,4.89c0,.83,1.34.84,1.3,0q-.11-2.44-.22-4.89c0-.83-1.34-.84-1.3,0Z"/><path class="cls-3" d="M238.14,209l.22,4.89c0,.83,1.34.84,1.3,0q-.11-2.44-.22-4.89c0-.83-1.34-.84-1.3,0Z"/><path class="cls-3" d="M242.11,207.45l.22,4.89c0,.83,1.34.84,1.3,0q-.11-2.44-.22-4.89c0-.83-1.34-.84-1.3,0Z"/><path class="cls-3" d="M246.07,205.48l.22,4.89c0,.83,1.34.84,1.3,0l-.22-4.89c0-.83-1.34-.84-1.3,0Z"/><path class="cls-3" d="M250,203.7l.22,4.89c0,.83,1.34.84,1.3,0q-.11-2.44-.22-4.89c0-.83-1.34-.84-1.3,0Z"/><path class="cls-3" d="M254,201.73l.22,4.89c0,.83,1.34.84,1.3,0q-.11-2.44-.22-4.89c0-.83-1.34-.84-1.3,0Z"/><path class="cls-3" d="M258,200.13l.22,4.89c0,.83,1.34.84,1.3,0l-.22-4.89c0-.83-1.34-.84-1.3,0Z"/><path class="cls-3" d="M261.92,198.35q.11,2.44.22,4.89c0,.83,1.34.84,1.3,0l-.22-4.89c0-.83-1.34-.84-1.3,0Z"/><path class="cls-3" d="M265.89,196.57l.22,4.89c0,.83,1.34.84,1.3,0l-.22-4.89c0-.84-1.34-.84-1.3,0Z"/><path class="cls-3" d="M269.85,194.79l.22,4.89c0,.83,1.34.84,1.3,0l-.22-4.89c0-.83-1.34-.84-1.3,0Z"/><path class="cls-3" d="M273.81,193q.11,2.44.22,4.89c0,.83,1.34.84,1.3,0l-.22-4.89c0-.83-1.34-.84-1.3,0Z"/><path class="cls-3" d="M277.77,191.22q.11,2.44.22,4.89c0,.83,1.34.84,1.3,0l-.22-4.89c0-.83-1.34-.84-1.3,0Z"/><path class="cls-3" d="M281.74,189.26q.11,2.44.22,4.89c0,.83,1.34.84,1.3,0l-.22-4.89c0-.83-1.34-.84-1.3,0Z"/><path class="cls-3" d="M285.7,187.29q.11,2.44.22,4.89c0,.83,1.34.84,1.3,0l-.22-4.89c0-.84-1.34-.84-1.3,0Z"/><path class="cls-3" d="M289.66,185.69l.22,4.89c0,.83,1.34.84,1.3,0l-.22-4.89c0-.83-1.34-.84-1.3,0Z"/><path class="cls-3" d="M293.63,183.73l.22,4.89c0,.83,1.34.84,1.3,0l-.22-4.89c0-.83-1.34-.84-1.3,0Z"/><path class="cls-3" d="M252.87,185.72l.22,4.89c0,.83,1.34.84,1.3,0l-.22-4.89c0-.83-1.34-.84-1.3,0Z"/><path class="cls-3" d="M256.83,183.75l.22,4.89c0,.83,1.34.84,1.3,0l-.22-4.89c0-.83-1.34-.84-1.3,0Z"/><path class="cls-3" d="M260.79,182.16,261,187c0,.83,1.34.84,1.3,0q-.11-2.44-.22-4.89c0-.83-1.34-.84-1.3,0Z"/><path class="cls-3" d="M264.75,180.37l.22,4.89c0,.83,1.34.84,1.3,0q-.11-2.44-.22-4.89c0-.83-1.34-.84-1.3,0Z"/><path class="cls-3" d="M268.72,178.59l.22,4.89c0,.83,1.34.84,1.3,0l-.22-4.89c0-.83-1.34-.84-1.3,0Z"/><path class="cls-3" d="M272.68,176.81l.22,4.89c0,.83,1.34.84,1.3,0l-.22-4.89c0-.83-1.34-.84-1.3,0Z"/><path class="cls-3" d="M276.64,175l.22,4.89c0,.83,1.34.84,1.3,0q-.11-2.44-.22-4.89c0-.83-1.34-.84-1.3,0Z"/><path class="cls-3" d="M280.61,173.24l.22,4.89c0,.83,1.34.84,1.3,0l-.22-4.89c0-.83-1.34-.84-1.3,0Z"/><path class="cls-3" d="M284.57,171.28q.11,2.44.22,4.89c0,.83,1.34.84,1.3,0l-.22-4.89c0-.83-1.34-.84-1.3,0Z"/><path class="cls-3" d="M288.53,169.31l.22,4.89c0,.83,1.34.84,1.3,0q-.11-2.44-.22-4.89c0-.83-1.34-.84-1.3,0Z"/><path class="cls-3" d="M292.49,167.71q.11,2.44.22,4.89c0,.83,1.34.84,1.3,0q-.11-2.44-.22-4.89c0-.83-1.34-.84-1.3,0Z"/><path class="cls-3" d="M296.46,165.75l.22,4.89c0,.83,1.34.84,1.3,0l-.22-4.89c0-.83-1.34-.84-1.3,0Z"/><path class="cls-3" d="M275.83,157.77l.17,4.89c0,.84,1.33.84,1.3,0l-.16-4.89c0-.83-1.33-.84-1.3,0Z"/><path class="cls-3" d="M279.81,156l.16,4.89c0,.84,1.33.84,1.3,0q-.08-2.44-.17-4.89c0-.83-1.33-.84-1.3,0Z"/><path class="cls-3" d="M283.79,154.11,284,159c0,.84,1.33.84,1.3,0l-.16-4.89c0-.83-1.33-.84-1.3,0Z"/><path class="cls-3" d="M287.78,152.19l.16,4.89c0,.84,1.33.84,1.3,0l-.16-4.89c0-.84-1.33-.84-1.3,0Z"/><path class="cls-3" d="M291.76,150.63q.08,2.44.17,4.89c0,.83,1.33.84,1.3,0l-.16-4.89c0-.83-1.33-.84-1.3,0Z"/><path class="cls-3" d="M295.74,148.71q.08,2.44.17,4.89c0,.84,1.33.84,1.3,0q-.08-2.45-.17-4.89c0-.84-1.33-.84-1.3,0Z"/><path class="cls-6" d="M208.54,166.12a9.78,9.78,0,0,0-.41,2.64c.67.47,3.79-.17,4.2-.88s.1-3.52.07-4.34c0-1-.55-.61-.82-1.59a10.14,10.14,0,0,0-2.8,4.16"/><path class="cls-3" d="M207.6,165.86c-.27,1.11-1.12,3.35.38,3.9a6.11,6.11,0,0,0,4.16-.55c1.38-.65,1.41-1.95,1.37-3.32,0-.73-.07-1.47-.13-2.2a2.83,2.83,0,0,0-.24-1.17c-.17-.31-.5-.49-.61-.82a1,1,0,0,0-1.63-.43,11.7,11.7,0,0,0-3,4.59c-.44,1.18,1.45,1.69,1.88.52a9.61,9.61,0,0,1,2.55-3.72l-1.63-.43c.27.76.76,1.12.82,1.93a21.41,21.41,0,0,1,.1,2.65c0,.73-.09.66-.9.9-.47.13-1.58.49-2,.24l.45.58a6.5,6.5,0,0,1,.41-2.12c.29-1.22-1.59-1.74-1.88-.52Z"/><path class="cls-6" d="M208,156.85a19,19,0,0,0-11.48,5.45,6.2,6.2,0,0,0-1.54,2.14,2.83,2.83,0,0,0,.21,2.6,3.27,3.27,0,0,0,1.59,1,13.88,13.88,0,0,0,11.42-.9,8.13,8.13,0,0,0,3.29-3c1.2-2.15.77-5.36-1.21-6.66a3.59,3.59,0,0,0-2.24-.59"/><path class="cls-3" d="M208,155.88a20.06,20.06,0,0,0-10.1,3.94c-2.2,1.66-6,5.31-3.2,8.16,1.17,1.18,3.26,1.55,4.84,1.76a15,15,0,0,0,5.57-.32c3.22-.8,7-2.85,7.8-6.32s-1.07-7.31-4.89-7.2c-1.25,0-1.26,2,0,2,3.6-.1,3.79,4.64,1.94,6.73-2.3,2.61-6.36,3.59-9.71,3.29-1.29-.12-4.11-.4-4.49-1.89-.43-1.67,1.67-3.29,2.77-4.19a18,18,0,0,1,9.47-4c1.24-.13,1.25-2.08,0-2Z"/><path class="cls-3" d="M206.59,164.47c-2.2,1-4.55.45-5.24-1.3s.53-4,2.73-5,4.55-.44,5.24,1.3S208.79,163.45,206.59,164.47Z"/><path class="cls-3" d="M292.09,98.45h0a.32.32,0,0,0-.3-.2h-5a1,1,0,0,0-.69.27l-75.61,28s-3.41,2.48-1.21,7.27l5.4.21h0l1.75-1.43a3.41,3.41,0,0,1,.37-2.22,10.75,10.75,0,0,1,2.46-1.12v66a1.89,1.89,0,0,0-.95.51h0s-1,.64-.78,2.79c0,.56,1.6,1,3.57,1h0c2,0,3.56-.45,3.56-1h0c.2-2.15-.78-2.79-.78-2.79h0a1.88,1.88,0,0,0-.95-.51V128s0-.08,0-.12c5.53-2,14.24-5,23.63-8.36V166.3a1.88,1.88,0,0,0-.95.51h0s-1,.64-.78,2.79c0,.56,1.6,1,3.57,1h0c2,0,3.56-.45,3.57-1h0c.2-2.15-.78-2.79-.78-2.79h0a1.88,1.88,0,0,0-.95-.51v-48c7.44-2.64,15.1-5.41,21.81-8v29.22a1.88,1.88,0,0,0-.95.51h0s-1,.64-.78,2.79c0,.56,1.6,1,3.57,1h0c2,0,3.56-.45,3.57-1h0c.2-2.15-.78-2.79-.78-2.79h0a1.88,1.88,0,0,0-.95-.51V108.89c8.19-3.2,14.4-5.93,16-7.44a1.54,1.54,0,0,0,.48-1.12V98.62A.29.29,0,0,0,292.09,98.45Z"/><path class="cls-3" d="M226,97h0a.32.32,0,0,0-.3-.2h-5a1,1,0,0,0-.69.27l-75.61,28s-3.41,2.48-1.21,7.27l5.4.21h0l1.75-1.43a3.41,3.41,0,0,1,.37-2.22,10.74,10.74,0,0,1,2.46-1.12v66a1.88,1.88,0,0,0-.95.51h0s-1,.64-.78,2.79c0,.56,1.6,1,3.57,1h0c2,0,3.56-.45,3.57-1h0c.2-2.15-.78-2.79-.78-2.79h0a1.88,1.88,0,0,0-.95-.51V126.62s0-.08,0-.12c5.1-1.86,12.88-4.57,21.42-7.58v43a1.92,1.92,0,0,0-.95.48h0s-1,.61-.78,2.65c0,.53,1.6,1,3.57,1h0c2,0,3.56-.43,3.56-1h0c.2-2-.78-2.65-.78-2.65h0a1.91,1.91,0,0,0-.95-.49V117.63c10-3.55,20.71-7.4,29-10.69v31.16a1.88,1.88,0,0,0-.95.51h0s-1,.64-.78,2.79c0,.56,1.6,1,3.57,1h0c2,0,3.56-.45,3.57-1h0c.2-2.15-.78-2.79-.78-2.79h0a1.88,1.88,0,0,0-.95-.51V105.47c5.64-2.32,9.72-4.25,11-5.44a1.54,1.54,0,0,0,.48-1.12V97.21A.29.29,0,0,0,226,97Z"/><path class="cls-3" d="M235.59,138.17c2.31-4.61,6.43-9.74,11.86-10.55,1.38-.21.79-2.3-.58-2.09-3.17.47-6,2.46-8.23,4.67a24.68,24.68,0,0,0-2.65,3.13,6.45,6.45,0,0,0-.42-1.47s0,0,.05-.08a10.3,10.3,0,0,0,2.69-2.28,8.86,8.86,0,0,0,1.69-2.81c.31-.87.73-2.32.26-3.2A1.1,1.1,0,0,0,239,123c-1.47.42-2.75,2.07-3.6,3.26a12.35,12.35,0,0,0-1.74,3.28c-3.19-2-7.75,1.68-9.73,4.16-.86,1.08.66,2.63,1.53,1.53a13,13,0,0,1,3.72-3.38c1.26-.7,3.14-1.16,4.06.3.81,1.29.64,3.16.3,4.57a11.47,11.47,0,0,1-2.18,4.47c-.73.91-2.08,2.37-3.41,2.13s-1.09-2.09-.82-3a6,6,0,0,1,2.13-3.36c.62-.41,1.2-.5,1.1.41a3.12,3.12,0,0,1-.81,1.75c-.95,1,.58,2.56,1.53,1.53a5,5,0,0,0,1.32-4.52c-.57-1.93-2.79-2-4.25-1.05-2.47,1.59-4.49,6-2.89,8.8a3.47,3.47,0,0,0,4,1.51,5.69,5.69,0,0,0,1.84-.91,17,17,0,0,0-.21,5.32,7.4,7.4,0,0,0,1.82,4.17,6.15,6.15,0,0,0-1,.58c-.43.32-.85.66-1.25,1a5.31,5.31,0,0,0-1.17-1.8,2.71,2.71,0,0,0-2.36-.7,3.7,3.7,0,0,0-2.35,1.3c-.72,1.28.63,3.4,1.64,4.14a3.77,3.77,0,0,0,1.15.57,15.63,15.63,0,0,0-2.08,4.39c-.75,2.61-1.77,7.58,1.57,8.86,3.11,1.18,6-2.08,7.35-4.47a9.61,9.61,0,0,0,1.47-5.56c-.18-1.47-1.16-2.66-2.75-2.43-2.86.42-5.37,5.25-3,7.5,1,1,2.54-.57,1.53-1.53s1.35-4.52,2-3.65c.24.32.06,1.27,0,1.6a9,9,0,0,1-.52,1.73,10.64,10.64,0,0,1-2,3.23,4.44,4.44,0,0,1-2.61,1.63c-1.3.12-1.56-1.12-1.57-2.17a14.22,14.22,0,0,1,2-7.38,15.89,15.89,0,0,1,2.18-2.68c1-1,2.06-2.23,3.47-2.55,2.12-.48,3.2,1.48,3.54,3.25.9,4.64-1.62,9.8-4.24,13.47a17.82,17.82,0,0,1-6.28,5.73,9.88,9.88,0,0,1-4,1.17c-1.45,0-2.13-1-2.3-2.36s-2.35-1.38-2.17,0a5.24,5.24,0,0,0,1.92,3.82c1.39,1,3.15.77,4.71.35a17.25,17.25,0,0,0,8.82-6.14,27.55,27.55,0,0,0,5-9.44c.88-3,1.27-6.61-.29-9.46a5.2,5.2,0,0,0-1-1.27,15.24,15.24,0,0,0,6.86-5.6,13.25,13.25,0,0,0,2.19-9.33c-.55-3.08-3.11-5.32-6.28-4.13s-5.43,4.57-6,7.82a4.85,4.85,0,0,0,1.19,4.55,3.45,3.45,0,0,0,4.29,0,5.42,5.42,0,0,0,2.46-4.52,2.05,2.05,0,0,0-3.29-1.63c-1.12.81,0,2.69,1.09,1.87l0,0,0,.06c-.11.23-.1.58-.22.83a4,4,0,0,1-1.16,1.51c-.77.61-1.74.79-2.19-.25-.85-2,.74-4.89,2-6.35s4-3.15,5.38-.79c1.1,1.94.63,4.58-.06,6.58a12.19,12.19,0,0,1-4.69,6c-1.6,1.12-4.69,3-6.16.78-1.19-1.83-1-4.51-.69-6.57A24.91,24.91,0,0,1,235.59,138.17Z"/><path class="cls-3" d="M154.68,169.51a4.9,4.9,0,0,0,1.61,3.37,4.7,4.7,0,0,0,4.16.53,15.32,15.32,0,0,0,8.21-5.62,24.34,24.34,0,0,0,4.57-8.72c.73-2.67,1-6-.54-8.47s-4.65-2.57-6.91-.83a15.45,15.45,0,0,0-5.55,7.86c-.68,2.39-1.57,7,1.59,8,2.86,1,5.43-2,6.64-4.18a8.3,8.3,0,0,0,1.23-5.11,2.25,2.25,0,0,0-2.64-2c-2.61.48-4.77,4.78-2.67,6.86,1,1,2.53-.55,1.53-1.53-.49-.49,0-1.69.31-2.16a2.39,2.39,0,0,1,.86-.89c.44-.23.45-.26.47.21a8.12,8.12,0,0,1-2.48,5.64c-.56.57-1.46,1.35-2.34,1.22-1.09-.15-1-1.6-1-2.42a12.53,12.53,0,0,1,2-6.21,15.78,15.78,0,0,1,1.94-2.27,6.45,6.45,0,0,1,2.75-2c1.88-.46,2.8,1.35,3.07,2.91.71,4.06-1.47,8.5-3.75,11.71a15.81,15.81,0,0,1-5.46,5,8.23,8.23,0,0,1-3.77,1.07c-1.09,0-1.57-1-1.7-2-.18-1.36-2.35-1.38-2.17,0Z"/><path class="cls-3" d="M179.39,123.86c-6.15.94-10.63,7.21-12.76,12.57a18.45,18.45,0,0,0-1.43,9.28c.4,2.75,2.15,5.14,5.2,4.65s6.2-3.08,7.84-5.67a11.54,11.54,0,0,0,1.7-8.69c-.74-2.84-3.3-4.28-6-3.05a9.41,9.41,0,0,0-5,7.19,4.13,4.13,0,0,0,1.34,4,3.23,3.23,0,0,0,3.81-.22,4.81,4.81,0,0,0,2.17-4.21,1.92,1.92,0,0,0-3.08-1.42c-1.14.79-.06,2.67,1.09,1.87l-.14-.16a1.14,1.14,0,0,1-.07.5,2.7,2.7,0,0,1-.38.77,3.3,3.3,0,0,1-.92.94c-.82.53-1.5.24-1.68-.73-.34-1.81.87-4,2.07-5.3,1.35-1.42,3.7-2.43,4.61-.05a8.23,8.23,0,0,1-.44,5.72,11.14,11.14,0,0,1-4.64,5.28c-1.43.89-3.72,2-4.76,0-.93-1.74-.73-4.07-.38-5.94a22.56,22.56,0,0,1,2.18-6.27c2.05-3.95,5.63-8.28,10.3-9,1.38-.21.79-2.3-.58-2.09Z"/><path class="cls-3" d="M160.53,132.67a11.62,11.62,0,0,1,3.19-2.93c1-.58,2.59-1.08,3.44,0s.64,2.76.38,4a10,10,0,0,1-1.87,4c-.61.79-1.82,2.17-3,2s-.87-1.66-.68-2.43a5.61,5.61,0,0,1,1.68-2.89c.39-.32,1-.77,1,0a2.59,2.59,0,0,1-.69,1.56c-.94,1,.59,2.57,1.53,1.53a4.54,4.54,0,0,0,1.22-4.1c-.47-1.64-2.3-1.93-3.65-1.21-2.44,1.29-4.32,5.41-3,8a3.14,3.14,0,0,0,3.55,1.6,7.08,7.08,0,0,0,3.92-3c2-2.64,3.48-7.2,1.39-10.19-2.78-4-7.89,0-10,2.57-.86,1.08.66,2.62,1.53,1.53Z"/><path class="cls-3" d="M168.5,129.12a2.31,2.31,0,0,1,.16-1.2,10,10,0,0,1,3.94-5.24s.09,0,.12,0,0,.1,0,.18a8.17,8.17,0,0,1-.31,1.78,6.69,6.69,0,0,1-1.4,2.33,13.29,13.29,0,0,1-1.87,1.65,1.16,1.16,0,0,1-.44.25.21.21,0,0,1-.25-.25"/><path class="cls-3" d="M169.58,129.12c-.13-1,.67-2.29,1.22-3.13.44-.68,1.37-2.06,2.2-2.3l-1.22-.5c-.25-.48-.11-.3-.18.19a5.77,5.77,0,0,1-.16.75,5.08,5.08,0,0,1-.84,1.62,7,7,0,0,1-2.42,2.14l.84-.11-.18,0,.76.76-.07-.2c-.43-1.32-2.52-.76-2.09.58.81,2.5,3.6-.29,4.47-1.3a7.85,7.85,0,0,0,1.57-2.68,4.08,4.08,0,0,0,.17-2.79,1.1,1.1,0,0,0-1.22-.5c-1.35.39-2.53,1.9-3.29,3s-1.91,3-1.73,4.53,2.34,1.38,2.17,0Z"/><path class="cls-3" d="M164.47,152.44a1.47,1.47,0,0,1-.94.45c-1.55.2-2.75-.89-3-2.71a.27.27,0,0,1,0-.15.32.32,0,0,1,.16-.15,4.41,4.41,0,0,1,1.36-.57,1.49,1.49,0,0,1,1.45.7,6,6,0,0,1,.73,1.76,1.12,1.12,0,0,1,.06.49.73.73,0,0,1-.29.5"/><path class="cls-3" d="M163.7,151.67c-.93.84-2.13-.81-2.06-1.64l-.32.77a1,1,0,0,1,1.22-.26,1.68,1.68,0,0,1,.4.71q.1.27.18.54c0,.29,0,.36.13.21-1,1,.51,2.49,1.53,1.53,1.26-1.17.26-3.6-.79-4.6a2.53,2.53,0,0,0-2.22-.65,3.39,3.39,0,0,0-2.16,1.21c-.68,1.2.54,3.13,1.49,3.84a3.28,3.28,0,0,0,4.13-.11c1-.94-.5-2.47-1.53-1.53Z"/><path class="cls-3" d="M262,124.16c1.87-3.57,5.1-7.47,9.33-8.12,1.38-.21.79-2.3-.58-2.09-3.55.55-6.5,3-8.69,6a5.3,5.3,0,0,0-.2-.63,8.8,8.8,0,0,0,2.16-1.86,7.13,7.13,0,0,0,1.49-2.64,3.61,3.61,0,0,0,.1-2.46,1.1,1.1,0,0,0-1.22-.5c-1.27.37-2.36,1.76-3.08,2.79a10.81,10.81,0,0,0-1.32,2.42c-2.64-1.4-6.3,1.49-7.93,3.53-.86,1.08.66,2.62,1.53,1.53s4.33-4.83,6-2.63c.7,1,.54,2.51.29,3.57a9.2,9.2,0,0,1-1.7,3.56c-.53.67-1.5,1.77-2.46,1.72s-.88-1.31-.72-2a5.07,5.07,0,0,1,1.5-2.67c.28-.23.64-.57.79-.26s-.37,1.27-.61,1.54c-.94,1,.59,2.57,1.53,1.53a4.26,4.26,0,0,0,1.14-3.83,2.28,2.28,0,0,0-3.34-1.24c-2.35,1.12-4.13,5-3,7.43a2.94,2.94,0,0,0,3.2,1.62,4.35,4.35,0,0,0,1.56-.6,13.48,13.48,0,0,0,0,4.47,5.58,5.58,0,0,0,1.29,2.79,5.54,5.54,0,0,0-.75.48c-.23.17-.44.36-.66.54a4.4,4.4,0,0,0-.88-1.29,2.41,2.41,0,0,0-2.12-.62,3.18,3.18,0,0,0-2,1.15c-.65,1.14.48,3,1.38,3.63a3.21,3.21,0,0,0,.76.41,12.84,12.84,0,0,0-1.64,3.64c-.59,2.2-1.32,6.29,1.56,7.24,2.71.9,5.15-1.89,6.26-4a7.56,7.56,0,0,0,1-4.65,2.15,2.15,0,0,0-2.59-1.88c-2.42.54-4.35,4.46-2.4,6.41a1,1,0,0,0,1.55-.08,7.69,7.69,0,0,1-1.13,1.32c-.48.44-1.42,1.16-2.12.79s-.54-1.74-.48-2.42a11.3,11.3,0,0,1,1.89-5.44,16,16,0,0,1,1.91-2.14c.73-.71,1.64-1.62,2.73-1.6,1.54,0,2.1,1.83,2.23,3.09.38,3.65-1.49,7.47-3.57,10.34a14.1,14.1,0,0,1-5,4.5c-1.64.81-4.41,1.79-4.75-.81-.18-1.36-2.35-1.38-2.17,0a4.55,4.55,0,0,0,1.53,3.17,4.26,4.26,0,0,0,3.66.52,13.87,13.87,0,0,0,7.58-5,22.5,22.5,0,0,0,4.32-8.06c.7-2.47,1-5.52-.37-7.82a4.55,4.55,0,0,0-.55-.73,12.6,12.6,0,0,0,5.67-4.93c1.39-2.31,2.22-5.53,1.33-8.16a3.92,3.92,0,0,0-5.69-2.43,8.75,8.75,0,0,0-4.53,6.94c-.23,2.89,2.39,5,4.95,3.14a4.44,4.44,0,0,0,2-4,1.86,1.86,0,0,0-3-1.3,1.11,1.11,0,0,0,.77,2,5.81,5.81,0,0,1-.23.56,3,3,0,0,1-.88,1c-.69.47-1.26.28-1.43-.56-.35-1.69.85-3.78,2-4.92s3.21-1.95,4,.11a7.57,7.57,0,0,1-.46,5.2,10.17,10.17,0,0,1-4.22,4.71c-1.3.8-3.3,1.75-4.21,0a8.71,8.71,0,0,1-.3-5.33A20.62,20.62,0,0,1,262,124.16Zm-3.48,22.53c-.4-.4.05-1.46.29-1.85a2.18,2.18,0,0,1,.83-.83c.28-.15.24-.14.23.27a7.14,7.14,0,0,1-1.14,3.57A1,1,0,0,0,258.49,146.69Z"/><path class="cls-3" d="M199.68,120.61c2.4-3.4,6.22-6.94,10.63-7,1.43,0,1.12-2.24-.31-2.21-3.7.08-7,2.2-9.69,5a5.58,5.58,0,0,0-.12-.67,9.07,9.07,0,0,0,2.46-1.6,7.34,7.34,0,0,0,1.88-2.49,3.73,3.73,0,0,0,.43-2.5,1.13,1.13,0,0,0-1.18-.67c-1.35.2-2.65,1.48-3.52,2.44a11.13,11.13,0,0,0-1.67,2.29c-2.51-1.79-6.63.67-8.58,2.54-1,1,.32,2.77,1.36,1.77s5.08-4.35,6.43-1.88c.59,1.07.21,2.63-.19,3.69a9.44,9.44,0,0,1-2.22,3.41c-.63.62-1.77,1.61-2.75,1.42s-.73-1.46-.46-2.15a5.23,5.23,0,0,1,1.89-2.52c.31-.2.73-.49.84-.15s-.55,1.25-.83,1.49c-1.1.93.26,2.71,1.36,1.77a4.39,4.39,0,0,0,1.68-3.75,2.35,2.35,0,0,0-3.24-1.72c-2.55.83-4.89,4.52-4,7.19a3,3,0,0,0,3.05,2.09,4.49,4.49,0,0,0,1.68-.4,13.87,13.87,0,0,0-.62,4.56,5.76,5.76,0,0,0,.94,3,5.76,5.76,0,0,0-.84.39c-.25.15-.5.31-.75.47a4.55,4.55,0,0,0-.72-1.43,2.48,2.48,0,0,0-2.08-.92,3.28,3.28,0,0,0-2.23.9c-.81,1.08.09,3.09.92,3.89a3.28,3.28,0,0,0,.72.52,13.23,13.23,0,0,0-2.17,3.49c-.9,2.17-2.2,6.24.62,7.61,2.65,1.29,5.52-1.24,6.94-3.25a7.78,7.78,0,0,0,1.7-4.6,2.21,2.21,0,0,0-2.4-2.27c-2.54.23-5,4-3.32,6.23a1.06,1.06,0,0,0,1.59.14,7.94,7.94,0,0,1-1.33,1.19c-.55.38-1.61,1-2.27.52s-.32-1.85-.16-2.53a11.62,11.62,0,0,1,2.67-5.3,16.46,16.46,0,0,1,2.24-1.93c.84-.63,1.89-1.43,3-1.26,1.57.24,1.89,2.15,1.86,3.46-.11,3.78-2.53,7.43-5,10.08a14.54,14.54,0,0,1-5.7,3.92c-1.78.6-4.74,1.24-4.74-1.47,0-1.42-2.21-1.73-2.22-.29a4.68,4.68,0,0,0,1.14,3.45,4.4,4.4,0,0,0,3.67,1,14.29,14.29,0,0,0,8.42-4.08,23.18,23.18,0,0,0,5.5-7.65c1-2.43,1.77-5.5.68-8a4.69,4.69,0,0,0-.46-.82,13,13,0,0,0,6.46-4.27c1.73-2.17,3-5.34,2.47-8.16a4,4,0,0,0-5.48-3.26A9,9,0,0,0,198,125.7c-.63,2.92,1.76,5.47,4.63,3.88,1.3-.72,2.62-2.21,2.54-3.78a1.91,1.91,0,0,0-2.84-1.73,1.14,1.14,0,0,0,.52,2.17,6,6,0,0,1-.31.54,3.1,3.1,0,0,1-1,.89c-.77.38-1.33.12-1.39-.76-.12-1.77,1.39-3.75,2.7-4.76s3.54-1.55,4,.65a7.78,7.78,0,0,1-1.17,5.25,10.48,10.48,0,0,1-4.95,4.24c-1.44.65-3.61,1.34-4.3-.6-.6-1.71-.13-3.82.42-5.48A21.2,21.2,0,0,1,199.68,120.61Zm-6.6,22.54c-.36-.47.25-1.48.55-1.85a2.24,2.24,0,0,1,1-.74c.31-.11.26-.11.2.31a7.36,7.36,0,0,1-1.65,3.49A1,1,0,0,0,193.08,143.15Z"/><circle class="cls-9" cx="145.79" cy="128.63" r="4.63"/><path class="cls-3" d="M145.79,134a5.39,5.39,0,1,1,5.39-5.39A5.4,5.4,0,0,1,145.79,134Zm0-9.27a3.87,3.87,0,1,0,3.88,3.87A3.88,3.88,0,0,0,145.79,124.75Z"/><circle class="cls-9" cx="222.91" cy="98.33" r="4.63"/><path class="cls-3" d="M222.91,103.72a5.39,5.39,0,1,1,5.39-5.39A5.4,5.4,0,0,1,222.91,103.72Zm0-9.27a3.87,3.87,0,1,0,3.87,3.87A3.88,3.88,0,0,0,222.91,94.45Z"/><circle class="cls-9" cx="211.7" cy="130.34" r="4.63"/><path class="cls-3" d="M211.7,135.73a5.39,5.39,0,1,1,5.39-5.39A5.4,5.4,0,0,1,211.7,135.73Zm0-9.27a3.87,3.87,0,1,0,3.87,3.87A3.88,3.88,0,0,0,211.7,126.46Z"/><circle class="cls-9" cx="289.32" cy="99.85" r="4.63"/><path class="cls-3" d="M289.32,105.25a5.39,5.39,0,1,1,5.39-5.39A5.4,5.4,0,0,1,289.32,105.25Zm0-9.27a3.87,3.87,0,1,0,3.87,3.87A3.88,3.88,0,0,0,289.32,96Z"/><path class="cls-8" d="M62.55,245.42s-5.37-5.91-2.36-6.12,26.92,26,76.32,13.56c0,0,5.39,2,1.12,5.75C135.39,260.55,97.93,275.92,62.55,245.42Z"/><path class="cls-3" d="M63.24,244.73a12.82,12.82,0,0,1-3-4.52c-.05-.17,0,0,0,.06s-.24-.12.07,0-.16-.1.15.06l.49.27c2.29,1.32,4.42,2.94,6.66,4.34a79.8,79.8,0,0,0,29.9,11.17,90.83,90.83,0,0,0,23.47.48,113.29,113.29,0,0,0,13.88-2.37l.95-.23c.11,0,.84-.29.44-.23.13,0-.18-.08,0,0a5,5,0,0,1,1.09.64,1.69,1.69,0,0,1,.26,2.75,5.41,5.41,0,0,1-.76.74c.29-.23.11-.09,0,0l-.46.27c-.43.23-.87.44-1.32.63a43,43,0,0,1-4.46,1.59,66.49,66.49,0,0,1-15.46,2.68,72.08,72.08,0,0,1-45.84-13.53c-2.13-1.51-4.17-3.13-6.15-4.83-.95-.81-2.34.56-1.38,1.38C75.71,258,93,265.23,111.38,265.17a70.94,70.94,0,0,0,17.72-2.28c2.89-.76,6.23-1.6,8.76-3.26,2.22-1.45,3.3-4.35,1.16-6.35a5.57,5.57,0,0,0-2.22-1.36c-.85-.2-2,.34-2.83.54q-2,.47-4.08.87A96.09,96.09,0,0,1,103,254.87a78.18,78.18,0,0,1-33.44-11c-2.53-1.53-4.91-3.32-7.45-4.83a3.14,3.14,0,0,0-2.43-.63c-3,.81-.24,4.63.75,5.92.47.61,1,1.21,1.47,1.79C62.7,247,64.08,245.66,63.24,244.73Z"/><path class="cls-6" d="M129.85,256.16s-2.76.44,3.12,1.53c4.32.8,10.45-13.77,20.34-24.53,10-10.92,17.78-17.15,7.18-42.18C160.49,191,123.75,195.77,129.85,256.16Z"/><path class="cls-3" d="M161.43,190.72c-.15-.36-.49-.78-.94-.72-4.48.59-8.91,2.82-12.57,5.36-9.46,6.57-15.07,17.09-17.65,28.12-2.45,10.48-2.48,21.41-1.46,32.08a1.18,1.18,0,0,0,.19,2.08,10.21,10.21,0,0,0,4.12,1.06,3.89,3.89,0,0,0,2.31-.7c2.1-1.37,3.62-3.66,5-5.67,2.14-3,4.13-6.15,6.24-9.19a91.37,91.37,0,0,1,7.76-9.79c1.79-1.93,3.61-3.84,5.3-5.85,3.16-3.76,5.74-8,6.48-12.89C167.49,206.44,164.54,198.11,161.43,190.72Zm-31.62,66.46h0S129.79,257.18,129.81,257.17Zm30.44-33.43c-3,4.21-6.94,7.7-10.21,11.71-4.41,5.4-7.94,11.41-12.07,17a24.21,24.21,0,0,1-2.46,2.94,4.19,4.19,0,0,1-2,1.32,6.71,6.71,0,0,1-1.7-.28c-.27-.06-.62-.2-1-.31-1.59-16-1.09-33.76,7.59-47.84a36.69,36.69,0,0,1,17.9-15.17,27.28,27.28,0,0,1,3.21-1l.39-.08c2.53,6.1,4.83,12.69,4.69,19.36A21.62,21.62,0,0,1,160.25,223.75Z"/><path class="cls-2" d="M44.55,198.09c-.26,1.79-.43,3.57-.52,5.32h0c-1.18,21.84,9.24,40.31,9.24,40.31,32.86,29.58,76.93,11.1,76.93,11.1a121.25,121.25,0,0,1,3.82-30C74.47,222.91,51.59,205.44,44.55,198.09Z"/><path class="cls-8" d="M123.63,257a63.55,63.55,0,0,0,6.57-2.19,121.25,121.25,0,0,1,3.82-30l.12-.45c0-.16.09-.3.14-.46-4.67-.24-9.55-.94-12.18-1.36C121.27,236.66,123.33,250.84,123.63,257Z"/><path class="cls-8" d="M50.2,223.75s4.11,5.08,11.78.94,2.6-8.46-1.68-5.6-7,1.89-7.72.68S46.82,220.1,50.2,223.75Z"/><path class="cls-2" d="M45.47,193q-.11.5-.21,1c6.29,6.92,28.68,25.34,89.79,27.36l.11-.32c-33-5.23-51.72-20.05-51.72-20.05A51.58,51.58,0,0,1,45.47,193Z"/><path class="cls-6" d="M54.83,173.07C49.4,179.34,47,185.61,45.47,193a51.58,51.58,0,0,0,38,8s18.72,14.82,51.72,20.05q.59-1.79,1.23-3.43a55.06,55.06,0,0,1,5.26-10.37C113.45,169.83,69.2,171.42,54.83,173.07Z"/><path class="cls-10" d="M130.32,195c-5.48,7-7.62,17.28-8.23,27.57,2.63.42,7.51,1.11,12.18,1.36.25-.88.51-1.74.78-2.58l.11-.32q.59-1.79,1.23-3.43a55.05,55.05,0,0,1,5.26-10.37l.16-.23C137.9,202.45,132.73,197.34,130.32,195Z"/><path class="cls-6" d="M161.37,192.71c-.07-6.8-47.16-62.93-94.2-30.34a65.18,65.18,0,0,0-12.35,10.7c14.38-1.65,58.62-3.24,86.83,34.16C150.55,193.7,161.37,192.71,161.37,192.71Z"/><path class="cls-10" d="M161.37,192.71c-.05-5-25.69-36.88-58-40.16,40.56,15,42.47,33.62,42.47,33.62A23,23,0,0,0,130.32,195c2.41,2.34,7.57,7.45,11.49,12C150.67,193.69,161.37,192.71,161.37,192.71Z"/><path class="cls-3" d="M160.7,188.63a50.84,50.84,0,0,0-4.48-6.14A96.88,96.88,0,0,0,140,167.13a82.73,82.73,0,0,0-23.7-12.77,56,56,0,0,0-28.38-2.07c-11.61,2.29-22.34,8.77-30.78,16.93q-1.57,1.51-3,3.16a44.87,44.87,0,0,0-9.61,20.35h0a9,9,0,0,0-.17.92.82.82,0,0,0,0,.08c-.16.8-.31,1.6-.45,2.41a8.45,8.45,0,0,0-.3,1.95h0c-1.65,12.21.28,24.66,4.48,36.19a78.52,78.52,0,0,0,3.9,9.06,6.45,6.45,0,0,0,1.83,2.14,66.72,66.72,0,0,0,7.5,5.58A67.86,67.86,0,0,0,91.9,261.2a88.06,88.06,0,0,0,25.94-1.74,74.68,74.68,0,0,0,12.44-3.62l.18-.07a1,1,0,0,0,.72-.94A121.12,121.12,0,0,1,135,225.09c.32-1.17.67-2.33,1-3.48l.11-.32a58.46,58.46,0,0,1,6.39-13.56,34.55,34.55,0,0,1,12.84-12A22.6,22.6,0,0,1,159.8,194c.42-.11.85-.2,1.28-.29l.27,0h0a1,1,0,0,0,.21-.06.86.86,0,0,0,.76-.91A9,9,0,0,0,160.7,188.63Zm-31.47,65.53a69,69,0,0,1-9,2.74,88.88,88.88,0,0,1-23.53,2.63,68,68,0,0,1-29.83-7.45,63.42,63.42,0,0,1-7.44-4.59q-1.87-1.34-3.64-2.82A11.6,11.6,0,0,1,54,243.14a12,12,0,0,1-1-2q-1-2.1-1.9-4.27c-4.3-10.54-6.76-22.05-6.14-33.47.06-1.08.16-2.16.27-3.24l.3.29c.26.24.53.46.79.69a64,64,0,0,0,13,8.74l.24.13.54.27.7.36.46.23,1.43.7.73.34,1.75.79.48.21,2,.84.31.13,2.1.84.25.1,2.14.8.26.09,2.12.74.35.12,2,.66.48.15,1.89.58.68.2,1.7.49.9.25,1.5.4,1.12.29,1.29.32,1.34.32,1.09.25,1.53.34.92.2,1.65.34.86.17,1.65.32.9.17,1.52.27.66.12.27,0,.65.11,1.9.3,1.92.3,2,.29,2.29.32,1.07.13c7.89,1,15.83,1.57,23.78,1.86h.05A124.21,124.21,0,0,0,129.23,254.15ZM49.16,196.42q1.25.68,2.54,1.29l.14.07a50.74,50.74,0,0,0,5.26,2.12l.14,0q1.3.44,2.62.81l.31.08A53.61,53.61,0,0,0,65.47,202l.41.07q1.27.2,2.54.34l.48,0c.87.09,1.74.16,2.6.21h0q1.49.08,3,.07c.79,0,1.57,0,2.36-.08l.56,0c1.94-.12,3.87-.34,5.79-.65a67.35,67.35,0,0,0,8,5.09l.11.06q2.82,1.59,5.72,3a128.34,128.34,0,0,0,18,7.15q2.28.72,4.59,1.35c1.52.42,3.05.81,4.58,1.17h0q-2.63-.18-5.26-.41l-.45,0q-2.58-.23-5.15-.52l-.67-.08q-5.13-.59-10.23-1.42l-.88-.15q-2.47-.42-4.93-.9l-.61-.12q-2.27-.45-4.53-1l-.76-.17q-2.38-.55-4.75-1.18l-1-.27c-1.61-.44-3.22-.9-4.82-1.39h0c-9.75-3-19.39-7.07-27.65-13.14l-.55-.42c-.91-.69-1.81-1.4-2.68-2.16Zm85.35,23.51-1.94-.33q-2.85-.51-5.68-1.14-1.42-.31-2.83-.66-3.24-.79-6.44-1.74-1.92-.56-3.82-1.19-3.76-1.23-7.43-2.69-4.19-1.67-8.25-3.65-1.31-.64-2.61-1.32T93.14,206l-1.4-.78q-1-.56-1.93-1.13-1.92-1.15-3.77-2.41-.92-.63-1.83-1.3l-.18-.11h0l-.23-.13-.06,0a1,1,0,0,0-.29-.07,2.12,2.12,0,0,0-.4,0c-.28,0-.57.1-.84.17l-.4.08q-.94.14-1.88.24-1.88.2-3.76.27a50.9,50.9,0,0,1-13-1.2,49.07,49.07,0,0,1-16.54-7A42.61,42.61,0,0,1,55.33,174h0a108.56,108.56,0,0,1,13.43-.63h.11q1.62,0,3.24.1l.53,0c.94,0,1.89.1,2.83.17l1.24.11c.71.06,1.41.12,2.11.2q1.68.18,3.36.42a92,92,0,0,1,38.31,14.1q1.44,1,2.84,2c.53.39,1,.79,1.56,1.19s.8.6,1.19.91c.69.55,1.37,1.13,2,1.7l.6.5c.78.68,1.54,1.38,2.3,2.08l.24.22q1.23,1.16,2.41,2.37l0,0a86.73,86.73,0,0,1,6.73,7.78l0,0A60.32,60.32,0,0,0,134.51,219.93Zm19.84-25.88a35.78,35.78,0,0,0-12.75,11.55q-1.81-2.31-3.76-4.48h0q-1-1.08-2-2.12l0,0q-1-1-2-2l-.08-.07q-1-1-2-1.91l-.14-.13q-1-.91-2-1.78l-.22-.18q-1-.84-2-1.65l-.31-.24c-.65-.52-1.31-1-2-1.52l-.42-.31c-.64-.47-1.27-.93-1.92-1.38l-.54-.37c-.62-.42-1.23-.84-1.86-1.24l-.69-.43c-.59-.37-1.18-.75-1.78-1.1l-.84-.49c-.56-.33-1.12-.65-1.68-1l-1-.55c-.51-.28-1-.56-1.55-.82l-1.28-.63-1.36-.67c-.54-.25-1.08-.49-1.62-.73l-1.08-.48q-1.37-.58-2.76-1.12a104.17,104.17,0,0,0-36.36-6.72c-1,0-2,0-3,0l-1.53,0-1.35,0-2,.1-.75,0-2.31.18h-.07a67.93,67.93,0,0,1,12.9-10.3A55.17,55.17,0,0,1,84.88,155a52.45,52.45,0,0,1,27.84.31,77.13,77.13,0,0,1,23.62,11.55,97.29,97.29,0,0,1,16.78,15,61.1,61.1,0,0,1,5,6.29,27.71,27.71,0,0,1,1.52,2.48c.17.32.34.65.48,1,0,0,.07.18.11.27v0A22.42,22.42,0,0,0,154.35,194.06Zm7-.36Z"/><path class="cls-3" d="M49.21,223.86a11.06,11.06,0,0,0,5.45,3.06,10.49,10.49,0,0,0,9-1.78c1-.74,0-2.43-1-1.69A8.66,8.66,0,0,1,54.9,225a9.12,9.12,0,0,1-4.31-2.48c-.83-.95-2.2.44-1.38,1.38Z"/><path class="cls-3" d="M81.09,237c-.93-.28-.53-1.46.37-1.36s.83-1.21,0-1.3a2,2,0,0,0-.71,3.92c.8.25,1.15-1,.35-1.25Z"/><path class="cls-3" d="M61.88,224.74a17.57,17.57,0,0,1-1.72-3.17c-.31-.76-1.57-.43-1.25.35a19.17,19.17,0,0,0,1.85,3.49c.47.69,1.59,0,1.12-.66Z"/><path class="cls-3" d="M59.95,225.27a9.08,9.08,0,0,1-1.6-2.64c-.3-.77-1.56-.43-1.26.35A10.93,10.93,0,0,0,59,226.19c.55.63,1.47-.29.92-.92Z"/><path class="cls-3" d="M57.7,225.79a13.7,13.7,0,0,1-1.58-2.33c-.4-.74-1.52-.08-1.12.66a15.41,15.41,0,0,0,1.79,2.6c.54.64,1.46-.29.92-.92Z"/><path class="cls-7" d="M76.58,224.39a6,6,0,0,0,2.68,4.21,10.33,10.33,0,0,0,4.83,1.61,5.69,5.69,0,0,0,3.86-.69,2.54,2.54,0,0,0,.77-3.49,3.36,3.36,0,0,0-3.2-.75,7.48,7.48,0,0,1-3.41.22c-1.8-.55-2.62-2.69-4.26-3.61-.36-.2-.88-.31-1.15,0a1,1,0,0,0-.15.66v1.93"/><path class="cls-3" d="M76,224.56A7.32,7.32,0,0,0,81,230.2c2.3.82,5.93,1.38,7.8-.62a2.89,2.89,0,0,0-1.25-4.95c-1.42-.33-2.76.22-4.17.32-1.65.11-2.53-1-3.52-2.14-.7-.78-1.78-2-3-1.76-1.46.28-1,2.38-1,3.42a.65.65,0,0,0,1.3,0c0-.4-.17-1.86.16-2s1.05.63,1.33.92a15.09,15.09,0,0,0,2.11,2.13,4.35,4.35,0,0,0,3.19.65c1.16-.15,2.62-.73,3.75-.14,1.59.84.36,2.8-.85,3.27a7.54,7.54,0,0,1-4.1,0c-2.69-.57-5.2-2.23-5.6-5.13-.11-.83-1.37-.47-1.25.35Z"/><path class="cls-3" d="M81.19,222.34A6.43,6.43,0,0,0,83,223.88a4.05,4.05,0,0,0,2.45.23c.82-.16.47-1.42-.35-1.25a2.67,2.67,0,0,1-1.8-.27c-.54-.29-.79-.76-1.22-1.16-.61-.57-1.53.35-.92.92Z"/><path class="cls-9" d="M96,252.59C80.62,242,61,238.36,50.4,237.65a62.27,62.27,0,0,0,2.86,6.08c32.86,29.58,76.93,11.1,76.93,11.1.08-4.72.34-9.08.76-13.11C114.89,239.15,96,252.59,96,252.59Z"/><path class="cls-3" d="M98.88,261.39h0A73.56,73.56,0,0,1,76,257.88a64.72,64.72,0,0,1-23.28-13.51.86.86,0,0,1-.17-.22A62.8,62.8,0,0,1,49.6,238a.87.87,0,0,1,.86-1.2c12.79.86,31.4,5.19,45.55,14.76,2.85-1.94,16.93-11,30.68-11a27.92,27.92,0,0,1,4.4.34.87.87,0,0,1,.72.95c-.43,4.11-.68,8.49-.76,13a.86.86,0,0,1-.53.79A91.09,91.09,0,0,1,98.88,261.39ZM53.95,243.18c12.2,10.93,27.32,16.48,44.93,16.48a90.37,90.37,0,0,0,30.46-5.42c.08-4.08.31-8,.67-11.77a26.91,26.91,0,0,0-3.31-.2c-14.5,0-30,10.93-30.17,11a.87.87,0,0,1-1,0c-13.41-9.25-31.12-13.62-43.77-14.69C52.85,241.12,53.71,242.74,53.95,243.18Z"/><circle class="cls-8" cx="58.46" cy="263.82" r="6.07" transform="translate(-206.51 210.81) rotate(-66.19)"/><path class="cls-3" d="M63.32,258.71a7.05,7.05,0,1,0,1.54,8.05,1,1,0,0,0,0-.14,1,1,0,0,0,.06-.1A7.1,7.1,0,0,0,63.32,258.71Zm-6.77,9.84a5.1,5.1,0,1,1,6.57-2.67A5.15,5.15,0,0,1,56.55,268.55Z"/><path class="cls-7" d="M61.24,266.36,58,259.85a4.7,4.7,0,0,1,3.89,1.92C63.3,263.83,61.24,266.36,61.24,266.36Z"/><path class="cls-3" d="M72.66,224.18a21,21,0,0,1,1-3.59c.27-.72-.88-1-1.15-.31a21,21,0,0,0-1,3.59c-.14.75,1,1.07,1.15.31Z"/><path class="cls-3" d="M70.13,223.74a49,49,0,0,0,1.26-5.16c.14-.75-1-1.07-1.14-.31A49.46,49.46,0,0,1,69,223.42a.59.59,0,0,0,1.14.31Z"/><path class="cls-3" d="M67.22,224,69,217a.59.59,0,0,0-1.15-.31l-1.83,6.9a.59.59,0,0,0,1.14.31Z"/><path class="cls-3" d="M64.74,224.78a29.22,29.22,0,0,1,1.07-5c.22-.73-.92-1-1.14-.31a30.92,30.92,0,0,0-1.11,5.32c-.09.76,1.1.76,1.19,0Z"/><path class="cls-3" d="M101.82,234.07l2.81-9.22c.22-.73-.92-1-1.15-.31l-2.81,9.22c-.22.73.92,1,1.14.31Z"/><path class="cls-3" d="M99.74,231.9q.66-3.47,1.61-6.87a.59.59,0,0,0-1.14-.31q-.95,3.4-1.61,6.87c-.14.75,1,1.07,1.15.31Z"/><path class="cls-3" d="M97.32,231a31,31,0,0,0,1.18-4.21c.15-.75-1-1.06-1.15-.31a30.77,30.77,0,0,1-1.18,4.21c-.26.72.89,1,1.15.31Z"/><path class="cls-3" d="M104.76,246.87a4.69,4.69,0,0,0,1.44-4.35c-.14-.75-1.3-.5-1.16.26A3.45,3.45,0,0,1,104,246c-.56.52.23,1.4.79.88Z"/><path class="cls-3" d="M57,226.73a9.32,9.32,0,0,0-.27,5.43.59.59,0,0,0,1.16-.26,8.18,8.18,0,0,1,.25-4.82c.26-.72-.88-1.07-1.13-.35Z"/><path class="cls-7" d="M91.87,245.89a5.24,5.24,0,0,0,3.5,1,8.39,8.39,0,0,0,7.7-5.82,7.42,7.42,0,0,0-3.94-8.6,12.45,12.45,0,0,0-3.71-.79A8.8,8.8,0,0,0,91,232a7,7,0,0,0-3.81,6.88c.4,2.59,1.89,6.31,4.64,7"/><path class="cls-3" d="M99.58,231.39c-5-2.17-11.43-1.16-13.22,4.51-1.24,3.94,1,9.59,5,11.06,4.21,2.75,10.18.14,12.3-4.09A8.6,8.6,0,0,0,99.58,231.39ZM101.43,242c-1.6,3-5.92,4.94-9,2.91a1.15,1.15,0,0,0-.49-.19c-2.51-1-4-5-3.51-7.46.94-4.73,6.36-5.3,10.14-3.64A6.15,6.15,0,0,1,101.43,242Z"/><path class="cls-7" d="M64.89,239.27a5.24,5.24,0,0,0,3.5,1,8.39,8.39,0,0,0,7.7-5.82,7.41,7.41,0,0,0-3.94-8.6,12.47,12.47,0,0,0-3.71-.79,8.82,8.82,0,0,0-4.37.35,7,7,0,0,0-3.81,6.88c.4,2.59,1.89,6.31,4.64,7"/><path class="cls-3" d="M72.6,224.76c-5-2.17-11.43-1.16-13.22,4.51-1.24,3.94,1,9.59,5,11.06,4.21,2.75,10.18.14,12.3-4.09A8.59,8.59,0,0,0,72.6,224.76Zm1.85,10.57c-1.6,3-5.92,4.94-9,2.91A1.15,1.15,0,0,0,65,238c-2.51-1-4-5-3.51-7.46.94-4.73,6.35-5.3,10.14-3.64A6.15,6.15,0,0,1,74.45,235.33Z"/><path class="cls-3" d="M70,239.06a5,5,0,0,0-2.3,4.41.46.46,0,0,1-.05.31.3.3,0,0,1-.41,0,.82.82,0,0,1-.21-.4,6.71,6.71,0,0,1-.31-2,2.89,2.89,0,0,1,.26-1.22,1.55,1.55,0,0,1,.91-.82,8.3,8.3,0,0,1,2.1-.24"/><path class="cls-3" d="M67.94,239.17a8.89,8.89,0,0,1,2-.22.11.11,0,0,1,.11.08.11.11,0,0,1,0,.12,5,5,0,0,0-2.25,4.32.54.54,0,0,1-.08.38.34.34,0,0,1-.23.13.46.46,0,0,1-.33-.11.9.9,0,0,1-.24-.45,6.76,6.76,0,0,1-.31-2.08,3,3,0,0,1,.27-1.27,1.64,1.64,0,0,1,1-.87Zm1.68,0a7.1,7.1,0,0,0-1.71.23,1.43,1.43,0,0,0-.85.76,2.76,2.76,0,0,0-.25,1.18,6.52,6.52,0,0,0,.3,2,.72.72,0,0,0,.18.35.23.23,0,0,0,.17.05.12.12,0,0,0,.08,0,.39.39,0,0,0,0-.23A5.11,5.11,0,0,1,69.62,239.18Z"/><path class="cls-3" d="M65.6,239.43a4.2,4.2,0,0,0-3.07,2.81.38.38,0,0,1-.13.22.25.25,0,0,1-.32-.11A.68.68,0,0,1,62,242a5.59,5.59,0,0,1,.34-1.7,2.41,2.41,0,0,1,.55-.89,1.3,1.3,0,0,1,1-.38,6.93,6.93,0,0,1,1.72.41"/><path class="cls-3" d="M63.5,238.95a1.2,1.2,0,0,1,.39,0,7.09,7.09,0,0,1,1.75.42.11.11,0,0,1,.07.11.1.1,0,0,1-.09.1,4.13,4.13,0,0,0-3,2.74.48.48,0,0,1-.18.29.29.29,0,0,1-.23,0,.39.39,0,0,1-.24-.19.76.76,0,0,1-.07-.43,5.67,5.67,0,0,1,.35-1.73,2.5,2.5,0,0,1,.58-.93A1.51,1.51,0,0,1,63.5,238.95Zm1.72.47a5.83,5.83,0,0,0-1.35-.29,1.18,1.18,0,0,0-.87.35,2.29,2.29,0,0,0-.53.85,5.43,5.43,0,0,0-.34,1.66.59.59,0,0,0,0,.31.18.18,0,0,0,.11.08h.06a.31.31,0,0,0,.08-.17A4.29,4.29,0,0,1,65.22,239.42Z"/><path class="cls-3" d="M62,237.1a4.2,4.2,0,0,0-4,1.25.38.38,0,0,1-.21.15c-.13,0-.23-.11-.24-.24a.68.68,0,0,1,.11-.36,5.57,5.57,0,0,1,1-1.39,6.9,6.9,0,0,1,1.34-1.14c.33-.11.25.46.56.63A7,7,0,0,1,62,237.1"/><path class="cls-3" d="M60.08,235.26c.26-.07.36.17.42.33a.57.57,0,0,0,.2.32A7.09,7.09,0,0,1,62.11,237a.11.11,0,0,1,0,.13.11.11,0,0,1-.12.05,4.12,4.12,0,0,0-3.87,1.21.45.45,0,0,1-.28.18.29.29,0,0,1-.23-.07.39.39,0,0,1-.14-.27.76.76,0,0,1,.12-.42,5.71,5.71,0,0,1,1-1.42l.16-.15a5.1,5.1,0,0,1,1.23-1Zm1.61,1.68a5.73,5.73,0,0,0-1.1-.84.74.74,0,0,1-.3-.43c-.08-.21-.11-.22-.17-.2a5.66,5.66,0,0,0-1.14,1l-.16.16a5.5,5.5,0,0,0-1,1.37.59.59,0,0,0-.1.3.18.18,0,0,0,.06.12l.06,0s.1-.06.15-.12A4.29,4.29,0,0,1,61.69,236.93Z"/><path class="cls-3" d="M88.23,243a5,5,0,0,1-1.46,4.76.45.45,0,0,0-.18.26.29.29,0,0,0,.29.29.81.81,0,0,0,.43-.14A6.65,6.65,0,0,0,89,246.87a2.88,2.88,0,0,0,.67-1.05,1.55,1.55,0,0,0-.08-1.22A8.26,8.26,0,0,0,88.23,243"/><path class="cls-3" d="M89.66,244.55a1.65,1.65,0,0,1,.09,1.31,3,3,0,0,1-.7,1.09,6.74,6.74,0,0,1-1.68,1.26.89.89,0,0,1-.49.15.45.45,0,0,1-.31-.16.33.33,0,0,1-.08-.25.55.55,0,0,1,.21-.32A5,5,0,0,0,88.13,243a.11.11,0,0,1,.05-.12.11.11,0,0,1,.13,0,8.84,8.84,0,0,1,1.3,1.59Zm-2.81,3.24c-.07.06-.13.12-.14.19a.12.12,0,0,0,0,.09.24.24,0,0,0,.16.08.73.73,0,0,0,.37-.12,6.5,6.5,0,0,0,1.63-1.22,2.74,2.74,0,0,0,.65-1,1.43,1.43,0,0,0-.07-1.13,7.09,7.09,0,0,0-1.06-1.36A5.11,5.11,0,0,1,86.84,247.79Z"/><path class="cls-3" d="M91.1,246.29a4.2,4.2,0,0,1,.21,4.16.38.38,0,0,0-.07.25.25.25,0,0,0,.31.14.68.68,0,0,0,.3-.23,5.62,5.62,0,0,0,.95-1.45,2.39,2.39,0,0,0,.23-1,1.29,1.29,0,0,0-.41-.94,6.94,6.94,0,0,0-1.52-.92"/><path class="cls-3" d="M93.13,248.14a2.48,2.48,0,0,1-.24,1.07,5.65,5.65,0,0,1-1,1.48.77.77,0,0,1-.35.26.39.39,0,0,1-.3,0,.3.3,0,0,1-.14-.19.48.48,0,0,1,.07-.33,4.12,4.12,0,0,0-.21-4,.1.1,0,0,1,0-.13.11.11,0,0,1,.13,0,7.11,7.11,0,0,1,1.54.93,1.21,1.21,0,0,1,.25.3A1.5,1.5,0,0,1,93.13,248.14Zm-1.73,2.36a.33.33,0,0,0-.06.18.09.09,0,0,0,0,0,.18.18,0,0,0,.13,0,.6.6,0,0,0,.25-.2,5.42,5.42,0,0,0,.93-1.42,2.29,2.29,0,0,0,.22-1,1.18,1.18,0,0,0-.37-.86,5.78,5.78,0,0,0-1.17-.74A4.29,4.29,0,0,1,91.41,250.5Z"/><path class="cls-3" d="M95.27,247.14a4.2,4.2,0,0,1,2,3.68.38.38,0,0,0,0,.26.25.25,0,0,0,.34,0,.68.68,0,0,0,.17-.34A5.64,5.64,0,0,0,98,249a6.89,6.89,0,0,0-.16-1.76c-.16-.31-.5.16-.84.06a6.92,6.92,0,0,0-1.76-.19"/><path class="cls-3" d="M98,247.21a5.07,5.07,0,0,1,.16,1.58c0,.09,0,.16,0,.22a5.64,5.64,0,0,1-.25,1.75.75.75,0,0,1-.21.39.39.39,0,0,1-.29.09.3.3,0,0,1-.21-.11.46.46,0,0,1-.07-.33,4.12,4.12,0,0,0-1.9-3.58.11.11,0,0,1,.06-.2,7.16,7.16,0,0,1,1.79.19.57.57,0,0,0,.36-.08c.16-.07.39-.18.53.05Zm-.64,3.6a.31.31,0,0,0,0,.18.08.08,0,0,0,.06,0,.18.18,0,0,0,.13,0,.58.58,0,0,0,.14-.28,5.46,5.46,0,0,0,.24-1.68c0-.06,0-.13,0-.22a5.7,5.7,0,0,0-.14-1.49c0-.06-.05-.08-.26,0a.74.74,0,0,1-.51.1,5.83,5.83,0,0,0-1.37-.17A4.29,4.29,0,0,1,97.33,250.82Z"/><rect class="cls-11" x="235.7" y="29.48" width="70.63" height="42.29"/><path class="cls-3" d="M306.33,72.63H235.7a.87.87,0,0,1-.87-.87V29.48a.87.87,0,0,1,.87-.87h70.63a.87.87,0,0,1,.87.87V71.76A.87.87,0,0,1,306.33,72.63ZM236.56,70.9h68.89V30.34H236.56Z"/><path class="cls-9" d="M256.54,39a.69.69,0,0,1,.29-.59L258.27,37a.5.5,0,0,1,.37-.16.78.78,0,0,1,.45.14.42.42,0,0,1,.2.37v9.5a.41.41,0,0,1-.22.37,1,1,0,0,1-1,0,.42.42,0,0,1-.21-.37v-8l-.48.63a.42.42,0,0,1-.3.14.43.43,0,0,1-.35-.19A.68.68,0,0,1,256.54,39Z"/><path class="cls-9" d="M260.59,46.82V45.43a2.11,2.11,0,0,1,.45-1.26A5.44,5.44,0,0,1,262.15,43l1.33-1a6,6,0,0,0,1.13-1.1,2,2,0,0,0,.46-1.2,1.59,1.59,0,0,0-.38-1.05,1.37,1.37,0,0,0-1.11-.45,1.43,1.43,0,0,0-1,.36,1.36,1.36,0,0,0-.39,1.05.5.5,0,0,1-.21.4.87.87,0,0,1-.56.17q-.66,0-.66-.85a2.29,2.29,0,0,1,.84-1.83,3.15,3.15,0,0,1,4.09.09,2.69,2.69,0,0,1,.86,2.07,3,3,0,0,1-.46,1.61,4.9,4.9,0,0,1-1.12,1.28q-.66.52-1.31,1a8.14,8.14,0,0,0-1.12.94,1.35,1.35,0,0,0-.46.92V46h4.06a.42.42,0,0,1,.34.19.76.76,0,0,1,.14.47.83.83,0,0,1-.14.48.41.41,0,0,1-.34.21h-4.88a.77.77,0,0,1-.43-.14A.42.42,0,0,1,260.59,46.82Z"/><path class="cls-9" d="M267.9,42.75a.77.77,0,0,1,0-1.12.85.85,0,0,1,.61-.23.83.83,0,0,1,.59.23.73.73,0,0,1,.25.56.74.74,0,0,1-.25.55.82.82,0,0,1-.59.24A.85.85,0,0,1,267.9,42.75Zm0,4.42a.77.77,0,0,1,0-1.12.85.85,0,0,1,.61-.23.83.83,0,0,1,.59.23.75.75,0,0,1,0,1.11.82.82,0,0,1-.59.24A.85.85,0,0,1,267.9,47.17Z"/><path class="cls-9" d="M270.71,44.2V40a3.15,3.15,0,0,1,.84-2.42,3.73,3.73,0,0,1,4.55,0A3.13,3.13,0,0,1,277,40V44.2a3.13,3.13,0,0,1-.85,2.43,3.73,3.73,0,0,1-4.55,0A3.15,3.15,0,0,1,270.71,44.2Zm1.46,0q0,1.85,1.66,1.85a1.6,1.6,0,0,0,1.23-.46,2,2,0,0,0,.43-1.39V40a2,2,0,0,0-.43-1.39,1.61,1.61,0,0,0-1.23-.46q-1.66,0-1.66,1.85Zm1.22-1.65a.59.59,0,0,1-.17-.44.57.57,0,0,1,.17-.43.63.63,0,0,1,.45-.16.6.6,0,0,1,.44.16.58.58,0,0,1,.17.43.6.6,0,0,1-.17.44.59.59,0,0,1-.44.17A.61.61,0,0,1,273.4,42.56Z"/><path class="cls-9" d="M278.32,44.2V40a3.14,3.14,0,0,1,.84-2.42,3.73,3.73,0,0,1,4.55,0,3.13,3.13,0,0,1,.85,2.42V44.2a3.14,3.14,0,0,1-.85,2.43,3.73,3.73,0,0,1-4.55,0A3.14,3.14,0,0,1,278.32,44.2Zm1.46,0q0,1.85,1.66,1.85a1.6,1.6,0,0,0,1.23-.46,2,2,0,0,0,.43-1.39V40a2,2,0,0,0-.43-1.39,1.6,1.6,0,0,0-1.23-.46q-1.66,0-1.66,1.85ZM281,42.56a.59.59,0,0,1-.17-.44.57.57,0,0,1,.17-.43.63.63,0,0,1,.45-.16.61.61,0,0,1,.44.16.58.58,0,0,1,.17.43.61.61,0,0,1-.17.44.59.59,0,0,1-.44.17A.62.62,0,0,1,281,42.56Z"/><path class="cls-7" d="M241.43,63.77V54.54a3.63,3.63,0,0,1,1.1-2.65,4,4,0,0,1,2.93-1.11,5.15,5.15,0,0,1,2,.36c.59.24.88.53.88.86a1.67,1.67,0,0,1-.19.67c-.13.27-.28.4-.47.4a.83.83,0,0,1-.4-.17,3.79,3.79,0,0,0-.71-.34,3,3,0,0,0-1.06-.17,2.24,2.24,0,0,0-1.66.58,2,2,0,0,0-.57,1.48v1.4h1.94a.42.42,0,0,1,.36.21,1,1,0,0,1,0,1,.42.42,0,0,1-.36.21h-1.94v6.51a.51.51,0,0,1-.28.44,1.24,1.24,0,0,1-.66.17,1.11,1.11,0,0,1-.63-.17A.52.52,0,0,1,241.43,63.77Zm5.7,0V56.46a.52.52,0,0,1,.25-.44,1.11,1.11,0,0,1,.63-.17,1.22,1.22,0,0,1,.67.17.51.51,0,0,1,.27.44v7.29a.55.55,0,0,1-.28.43,1.11,1.11,0,0,1-.66.2,1,1,0,0,1-.62-.2A.55.55,0,0,1,247.13,63.75Z"/><path class="cls-7" d="M250.83,63.75V56.46a.52.52,0,0,1,.25-.44,1.14,1.14,0,0,1,.65-.17,1,1,0,0,1,.58.17.53.53,0,0,1,.23.45v.65a2.41,2.41,0,0,1,.89-1,2.57,2.57,0,0,1,1.43-.4,2.71,2.71,0,0,1,2.12,1,3.72,3.72,0,0,1,.89,2.5v4.46a.52.52,0,0,1-.27.46,1.19,1.19,0,0,1-.65.17,1.17,1.17,0,0,1-.62-.17.52.52,0,0,1-.28-.46V59.3a1.88,1.88,0,0,0-.52-1.29,1.61,1.61,0,0,0-1.23-.57,1.58,1.58,0,0,0-1.16.51,1.85,1.85,0,0,0-.5,1.35v4.45a.54.54,0,0,1-.28.43,1.07,1.07,0,0,1-.64.2,1,1,0,0,1-.64-.2A.55.55,0,0,1,250.83,63.75Z"/><path class="cls-7" d="M259.19,62.15a2.09,2.09,0,0,1,1-2,6.42,6.42,0,0,1,3-.57H264v-.33a2.34,2.34,0,0,0-.42-1.4,1.49,1.49,0,0,0-1.29-.59,2.76,2.76,0,0,0-1.31.3,4,4,0,0,1-.62.3.54.54,0,0,1-.48-.3,1.24,1.24,0,0,1-.18-.66q0-.47.84-.81a4.68,4.68,0,0,1,1.78-.34,3.29,3.29,0,0,1,2.64,1,3.69,3.69,0,0,1,.86,2.49v4.52a.54.54,0,0,1-.25.44,1,1,0,0,1-.63.19.93.93,0,0,1-.59-.19.55.55,0,0,1-.24-.44v-.63a3.36,3.36,0,0,1-2.61,1.4,2.18,2.18,0,0,1-2.3-2.37Zm1.84-.23a1.15,1.15,0,0,0,.31.87,1.13,1.13,0,0,0,.81.3,1.8,1.8,0,0,0,1.26-.58,1.69,1.69,0,0,0,.6-1.22v-.67h-.43a9.11,9.11,0,0,0-1.27.07,1.84,1.84,0,0,0-.88.38A1,1,0,0,0,261,61.91Z"/><path class="cls-7" d="M267.83,63.75V51.39a.51.51,0,0,1,.25-.44,1.13,1.13,0,0,1,.65-.17,1.2,1.2,0,0,1,.65.17.51.51,0,0,1,.27.44V63.75a.54.54,0,0,1-.28.43,1.08,1.08,0,0,1-.64.2,1,1,0,0,1-.64-.2A.55.55,0,0,1,267.83,63.75Z"/><path class="cls-7" d="M274.73,62.4a1.17,1.17,0,0,1,.24-.68.68.68,0,0,1,.55-.34.77.77,0,0,1,.46.23c.18.15.35.32.53.5a2.5,2.5,0,0,0,.79.5,2.93,2.93,0,0,0,1.19.23,2.42,2.42,0,0,0,1.58-.49,1.74,1.74,0,0,0,.6-1.43,2,2,0,0,0-.58-1.45,4.33,4.33,0,0,0-1.4-.92q-.82-.34-1.65-.74a3.71,3.71,0,0,1-1.41-1.19,3.29,3.29,0,0,1-.58-2,3.61,3.61,0,0,1,.35-1.65,2.62,2.62,0,0,1,1-1.08,4.48,4.48,0,0,1,1.27-.55,5.69,5.69,0,0,1,1.41-.17,8,8,0,0,1,1,.06,6.6,6.6,0,0,1,1,.2,2.3,2.3,0,0,1,.83.41.77.77,0,0,1,.33.61,1.31,1.31,0,0,1-.21.68.63.63,0,0,1-.55.34,1,1,0,0,1-.47-.17,4.54,4.54,0,0,0-.79-.34,3.42,3.42,0,0,0-1.13-.17,2.73,2.73,0,0,0-1.58.41,1.41,1.41,0,0,0-.59,1.24,1.44,1.44,0,0,0,.31.93,2.45,2.45,0,0,0,.8.64c.33.17.7.33,1.1.5a11.63,11.63,0,0,1,1.2.57,6.27,6.27,0,0,1,1.09.75,3.08,3.08,0,0,1,.8,1.17,4.38,4.38,0,0,1,.31,1.72,3.62,3.62,0,0,1-1.08,2.83,4.12,4.12,0,0,1-2.87,1,5,5,0,0,1-2.71-.69Q274.73,63.14,274.73,62.4Z"/><path class="cls-7" d="M283.52,62.15a2.09,2.09,0,0,1,1-2,6.42,6.42,0,0,1,3-.57h.76v-.33a2.34,2.34,0,0,0-.42-1.4,1.49,1.49,0,0,0-1.29-.59,2.76,2.76,0,0,0-1.31.3,4.16,4.16,0,0,1-.61.3.54.54,0,0,1-.48-.3,1.24,1.24,0,0,1-.18-.66q0-.47.84-.81a4.67,4.67,0,0,1,1.78-.34,3.29,3.29,0,0,1,2.64,1,3.7,3.7,0,0,1,.86,2.49v4.52a.54.54,0,0,1-.25.44,1,1,0,0,1-.63.19.93.93,0,0,1-.59-.19.55.55,0,0,1-.24-.44v-.63a3.36,3.36,0,0,1-2.62,1.4,2.17,2.17,0,0,1-2.3-2.37Zm1.84-.23a1.15,1.15,0,0,0,.31.87,1.13,1.13,0,0,0,.81.3,1.8,1.8,0,0,0,1.26-.58,1.69,1.69,0,0,0,.6-1.22v-.67h-.43a9.16,9.16,0,0,0-1.27.07,1.84,1.84,0,0,0-.88.38A1,1,0,0,0,285.36,61.91Z"/><path class="cls-7" d="M292.16,63.75V51.39a.52.52,0,0,1,.25-.44,1.14,1.14,0,0,1,.65-.17,1.19,1.19,0,0,1,.65.17.51.51,0,0,1,.27.44V63.75a.55.55,0,0,1-.28.43,1.08,1.08,0,0,1-.64.2,1,1,0,0,1-.64-.2A.55.55,0,0,1,292.16,63.75Z"/><path class="cls-7" d="M295.73,60.94V59.23a3.32,3.32,0,0,1,1.06-2.46,3.51,3.51,0,0,1,2.55-1,3.46,3.46,0,0,1,2.43.94,3.08,3.08,0,0,1,1,2.36,2.72,2.72,0,0,1-.12.89.83.83,0,0,1-.38.48,1.57,1.57,0,0,1-.48.17,3.69,3.69,0,0,1-.59,0h-3.65V61a1.8,1.8,0,0,0,.62,1.44,2.41,2.41,0,0,0,1.63.53,2.77,2.77,0,0,0,1.34-.34,2.78,2.78,0,0,1,.77-.34.61.61,0,0,1,.5.29,1,1,0,0,1,.21.56q0,.45-.83.9a4.76,4.76,0,0,1-4.94-.54A3.28,3.28,0,0,1,295.73,60.94Zm1.82-1.53h2.88a.85.85,0,0,0,.51-.11.54.54,0,0,0,.13-.42,1.63,1.63,0,0,0-.5-1.2,1.7,1.7,0,0,0-1.25-.5,1.8,1.8,0,0,0-1.25.47,1.54,1.54,0,0,0-.52,1.2Z"/><path class="cls-3" d="M33.22,236.15a15.23,15.23,0,0,0,.3-3.22.65.65,0,0,0-1.3,0,13.65,13.65,0,0,1-.25,2.87c-.16.82,1.09,1.17,1.25.35Z"/><path class="cls-3" d="M36.8,236.87a9.62,9.62,0,0,0,.08-2.94.67.67,0,0,0-.65-.65.65.65,0,0,0-.65.65,8.6,8.6,0,0,1,0,2.59c-.14.82,1.11,1.17,1.25.35Z"/><path class="cls-3" d="M39.58,237.17a7.24,7.24,0,0,0,.35-3.55c-.11-.83-1.37-.47-1.25.35a5.88,5.88,0,0,1-.35,2.85c-.29.79,1,1.13,1.25.35Z"/><path class="cls-3" d="M43.36,236.54q0-1.44,0-2.89a.65.65,0,0,0-1.3,0q0,1.44,0,2.89a.65.65,0,0,0,1.3,0Z"/><path class="cls-3" d="M47.16,236.54a8.46,8.46,0,0,0-.25-3.21.65.65,0,0,0-1.26.35,7.47,7.47,0,0,1,.2,2.86c-.1.83,1.21.82,1.3,0Z"/><circle class="cls-7" cx="91.65" cy="159.8" r="2.44"/><circle class="cls-7" cx="100.65" cy="170.15" r="2.44"/><circle class="cls-7" cx="111.32" cy="161.39" r="2.44"/><circle class="cls-7" cx="78.49" cy="164.99" r="2.44"/><circle class="cls-7" cx="117.7" cy="176.39" r="2.44"/><circle class="cls-7" cx="134.01" cy="184.63" r="2.44"/><circle class="cls-7" cx="143.37" cy="181.73" r="2.44"/><circle class="cls-7" cx="143.19" cy="192.99" r="2.44"/><circle class="cls-7" cx="128.56" cy="172.59" r="2.44"/><path class="cls-2" d="M168.24,204s-4.31,15.8-15.52,15.78c0,0-7.86.78-8-6.16s8.4-21.76,17-20.35c0,0,11.6-.65,13.23-2.28,0,0,2.24-3.83,5.71-2.53s2.15,7.33-2.35,9.58C175.29,199.57,175.51,205.31,168.24,204Z"/><path class="cls-8" d="M157.58,211.52c-6.51,6.38-10.71,4.22-12.81,2.06,0,0,0,0,0,.05.09,6.93,8,6.16,8,6.16,11.21,0,15.52-15.78,15.52-15.78,7.27,1.3,7-4.45,10.08-6a8.09,8.09,0,0,0,3.56-3.53c-4.82,2.75-10.88,3.44-13.21,3.93C165.2,199.17,167.37,201.92,157.58,211.52Z"/><path class="cls-3" d="M183.12,189.41a4.54,4.54,0,0,0-5.84-1.75,6.77,6.77,0,0,0-2.4,1.84,8.6,8.6,0,0,0-.62.82l-.05.09-.08,0c-3.43,1.31-7.29,1.52-10.93,1.79-1.36.1-2.5-.1-3.86.11a12.5,12.5,0,0,0-6,2.95,29.12,29.12,0,0,0-8.38,12.57c-1.37,3.82-2.16,8.93,1.75,11.55,2.33,1.56,5.53,1.64,8.21,1.19,7.36-1.24,11.89-8.92,14-15.49a7.43,7.43,0,0,0,5.68-1.36c1.33-1.08,2-2.62,3.1-3.9a9.31,9.31,0,0,1,2.08-1.5,9.29,9.29,0,0,0,2.68-2.83C183.53,193.73,184.11,191.32,183.12,189.41Zm-4.55,7.38a10,10,0,0,0-2,1.41A13,13,0,0,0,175.2,200c-.85,1.26-1.73,2.54-3.25,3a7.46,7.46,0,0,1-3.45.09,1,1,0,0,0-.24,0,.88.88,0,0,0-1,.67c-1.4,5.1-4.47,10.78-9.12,13.54a11.75,11.75,0,0,1-7.72,1.43,5.76,5.76,0,0,1-3.8-2c-1.11-1.49-1-3.52-.71-5.26a27.49,27.49,0,0,1,5.91-12,17.52,17.52,0,0,1,5-4.3,8.94,8.94,0,0,1,5-1A28.59,28.59,0,0,0,165,194c1.93-.17,3.87-.39,5.78-.71a12,12,0,0,0,4.38-1.25c1-.63,1.45-1.83,2.54-2.45,1.71-1,3.86-.17,3.93,1.91A6.49,6.49,0,0,1,178.57,196.79Z"/><path class="cls-3" d="M155.82,218.21,153.44,214a.65.65,0,0,0-1.12.66l2.38,4.18a.65.65,0,0,0,1.12-.66Z"/><path class="cls-3" d="M159.31,217,157,213.71c-.48-.68-1.61,0-1.12.66l2.34,3.33c.48.68,1.61,0,1.12-.66Z"/><path class="cls-3" d="M161.93,215l-2.48-3.9c-.45-.7-1.57-.05-1.12.66l2.48,3.9c.45.71,1.57.05,1.12-.66Z"/><path class="cls-3" d="M164.1,212.82a14.38,14.38,0,0,0-1.8-3.27c-.49-.66-1.62,0-1.12.66a13.08,13.08,0,0,1,1.67,3c.31.77,1.57.43,1.25-.35Z"/><path class="cls-3" d="M166.13,209.7a10.82,10.82,0,0,0-1.77-3.94c-.48-.67-1.61,0-1.12.66a9.88,9.88,0,0,1,1.64,3.63c.19.82,1.44.47,1.25-.35Z"/><path class="cls-3" d="M167.83,206.13a16.6,16.6,0,0,0-1.4-2.67c-.46-.7-1.58,0-1.12.66a14.68,14.68,0,0,1,1.27,2.36.67.67,0,0,0,.8.45.65.65,0,0,0,.45-.8Z"/><path class="cls-3" d="M175,202.13l-.6-2.36a.65.65,0,0,0-1.25.35l.6,2.36a.65.65,0,0,0,1.25-.35Z"/><path class="cls-3" d="M172.77,203.45l-.6-2.36a.65.65,0,0,0-1.26.35l.6,2.36a.65.65,0,0,0,1.25-.35Z"/><path class="cls-8" d="M102.78,234.55s1.61,6.33,10.3,5.79,5.9-6.59.83-5.79-7.17-1.23-7.3-2.62S101.24,229.82,102.78,234.55Z"/><path class="cls-3" d="M102.1,233.88a5.77,5.77,0,0,1,.27.68c.15.4.31.81.49,1.2a8.06,8.06,0,0,0,1.7,2.47c2.56,2.49,6.45,2.91,9.84,2.89a1,1,0,0,0,0-2c-3,0-6.53-.24-8.68-2.54-1-1.12-1.27-2.42-1.94-3.73-.57-1.12-2.26-.13-1.69,1Z"/><path class="cls-8" d="M103.38,265.1c-4-.78-8.94-1.22-12.95-2-.23,0-.57,5.15-1.41,7,1-.21,5,2.76,5.05-2.34,0-.27,9.25.77,10.73,1.12C104.8,268.92,105.52,265.51,103.38,265.1Z"/><path class="cls-3" d="M103.64,264.16c-2.4-.46-4.82-.77-7.24-1.1-1.19-.16-2.39-.33-3.57-.52-.78-.12-2.18-.7-2.9-.27s-.74,2.2-.85,3a18.47,18.47,0,0,1-1,4.62c-.33.78.57,1.29,1.2,1.2-.39.05.2.11.38.16s.66.22,1,.31a4.3,4.3,0,0,0,2.31.12,2.66,2.66,0,0,0,1.68-1.54,4.54,4.54,0,0,0,.38-1.36,63.72,63.72,0,0,1,9.54,1.09,1,1,0,0,0,1.2-.68C106.13,267.27,105.86,264.72,103.64,264.16Zm-9,2.64c-.54,0-1.13,0-1.44.52-.39.69.13,2.09-.79,2.48a3.18,3.18,0,0,1-2.16-.31,23.06,23.06,0,0,0,.58-3.08c.09-.64.18-1.28.27-1.92l0-.25.59.1,1.47.23c1.14.17,2.28.33,3.42.48,2.16.29,4.33.59,6.47,1,.72.18.86,1,.84,1.74-1.26-.21-2.54-.33-3.8-.47C98.34,267.09,96.5,266.84,94.67,266.79Z"/><circle class="cls-8" cx="92.36" cy="274.85" r="6.07" transform="translate(-189.64 342.31) rotate(-84.88)"/><path class="cls-3" d="M98.69,271.77a7,7,0,1,0-1.24,7.94A7.08,7.08,0,0,0,98.69,271.77Zm-1.27,3.62a5.1,5.1,0,1,1-4.53-5.61A5.16,5.16,0,0,1,97.43,275.39Z"/><path class="cls-7" d="M88.69,275.73l6-4.13a4.7,4.7,0,0,0-4.34-.2C88.11,272.52,88.69,275.73,88.69,275.73Z"/><path class="cls-8" d="M54.52,246.12s-5.37-5.91-2.36-6.12,28.08,25.51,77.48,13.1c0,0,4.23,2.48,0,6.2C127.37,261.24,89.91,276.62,54.52,246.12Z"/><path class="cls-3" d="M131.74,253.79c-.44-.63-1.26-1.62-2.11-1.66a7.4,7.4,0,0,0-1.79.41L126,253q-1.94.43-3.88.79a97.88,97.88,0,0,1-26.83,1.37,82.32,82.32,0,0,1-33.71-10.8c-2.54-1.48-4.95-3.2-7.51-4.64a3.1,3.1,0,0,0-2.53-.55c-2.8.92-.1,4.62.88,5.89.47.61,1,1.21,1.47,1.79,13.75,11.8,30.89,19,49.13,19.05a71.17,71.17,0,0,0,17.77-2.19c3-.77,6.35-1.63,9-3.28C131.92,259,133.36,256.11,131.74,253.79Zm-79.55-13Zm-.11.15a.39.39,0,0,0,.12,0S52.17,241,52.08,241Zm78.3,15.78a3.93,3.93,0,0,1-.79,1.2c-.08.08-.64.6-.7.67l-.18.12-.45.25c-.43.23-.88.43-1.33.62a53.27,53.27,0,0,1-9.88,2.93,70.25,70.25,0,0,1-36.62-2.37,77.5,77.5,0,0,1-25.23-14.72,23,23,0,0,1-1.56-1.91,12.93,12.93,0,0,1-1.07-1.67,4.4,4.4,0,0,1-.29-.66c0-.06,0-.11,0-.17l.18.05.29.14.6.33c2.78,1.63,5.42,3.46,8.22,5a84.63,84.63,0,0,0,36.3,10.7,105.23,105.23,0,0,0,31.59-3.13,3.06,3.06,0,0,1,.94,1.15A1.89,1.89,0,0,1,130.39,256.73Z"/><path class="cls-8" d="M74.78,259.49c3.88,1.26,8.41,3.26,12.3,4.51.22.07-2,4.78-2.17,6.85-.77-.67-5.71,0-3.29-4.49.13-.24-8.47-3.79-9.93-4.21C71.68,262.15,72.71,258.82,74.78,259.49Z"/><path class="cls-3" d="M87.86,263.43c-.47-.64-1.84-.81-2.57-1.07-1.13-.41-2.26-.84-3.38-1.27-2.28-.88-4.55-1.78-6.87-2.54-2.22-.58-3.7,1.46-4.3,3.34a1,1,0,0,0,.68,1.2A47.32,47.32,0,0,1,76,264.87q1.43.59,2.85,1.21c.47.21,1,.51,1.47.73a4.5,4.5,0,0,0-.36,1.52,2.63,2.63,0,0,0,.91,2.11,4.63,4.63,0,0,0,2,.9,7,7,0,0,1,1.47.36c.66.49,1.4-.2,1.47-.84a17.7,17.7,0,0,1,1.33-4.26C87.52,265.8,88.48,264.26,87.86,263.43Zm-2.79,3.35a23.59,23.59,0,0,0-.91,2.82,3.17,3.17,0,0,1-2-.67c-.6-.68.29-1.63.44-2.3s-.35-1.1-.9-1.4c-1.6-.85-3.33-1.51-5-2.2-1.21-.5-2.43-1-3.67-1.47.34-.67.85-1.3,1.54-1.12,2.08.68,4.11,1.47,6.15,2.26l3,1.17,1.4.51.77.27-.08.21C85.56,265.49,85.31,266.13,85.07,266.78Z"/><path class="cls-7" d="M78.49,255.81s16.74,8.12,48.21.37c0,0,2.14-.13,1.56,1.18S97,267.25,78.49,255.81Z"/><path class="cls-3" d="M126.52,237.62l4.44.46c.83.09.83-1.22,0-1.3l-4.44-.46c-.83-.09-.83,1.21,0,1.3Z"/><path class="cls-3" d="M127.06,233.83l4.44.46c.83.09.83-1.21,0-1.3l-4.44-.46c-.83-.09-.83,1.21,0,1.3Z"/><path class="cls-3" d="M127.33,230l4.3,1.17a.65.65,0,0,0,.35-1.25l-4.3-1.17a.65.65,0,0,0-.35,1.26Z"/><path class="cls-3" d="M130.53,216.36l5.1,1.78c.79.28,1.13-1,.35-1.25l-5.1-1.78c-.79-.28-1.13,1-.35,1.25Z"/><path class="cls-3" d="M131.79,212.42q2.31,1.32,4.7,2.47c.75.36,1.41-.76.66-1.12q-2.4-1.15-4.7-2.47a.65.65,0,0,0-.66,1.12Z"/><path class="cls-3" d="M134.48,209a9.56,9.56,0,0,1,3.8,2.86c.53.65,1.44-.28.92-.92a10.82,10.82,0,0,0-4.38-3.2c-.78-.32-1.11.94-.35,1.25Z"/><path class="cls-3" d="M140.47,202.16a20,20,0,0,1,2.2,2.29c.53.65,1.45-.28.92-.92a19.85,19.85,0,0,0-2.2-2.29c-.62-.55-1.55.36-.92.92Z"/><path class="cls-3" d="M142.4,198.79l2.6,2.61a.65.65,0,0,0,.92-.92l-2.6-2.61a.65.65,0,0,0-.92.92Z"/><path class="cls-3" d="M145.35,195.83a12.78,12.78,0,0,1,2.43,2.55c.48.68,1.61,0,1.12-.66a13.94,13.94,0,0,0-2.63-2.81c-.65-.52-1.57.4-.92.92Z"/><path class="cls-3" d="M149.06,194.09a18.56,18.56,0,0,1,2.31,1.8c.62.56,1.54-.35.92-.92a20.52,20.52,0,0,0-2.57-2c-.7-.46-1.35.66-.66,1.12Z"/><path class="cls-3" d="M151.91,192a31,31,0,0,0,2.36,2.27c.63.54,1.55-.37.92-.92a30.63,30.63,0,0,1-2.36-2.27c-.57-.61-1.49.31-.92.92Z"/><path class="cls-2" d="M277.55,273.52H278a.33.33,0,0,0,0-.65h-.43a.33.33,0,0,0,0,.65Z"/><path class="cls-8" d="M132.24,253c1.44-4.1,4-7.67,6.44-11.16a7.5,7.5,0,0,1,2-2.17,2.35,2.35,0,0,1,2.72,0,2.71,2.71,0,0,1,.65,2.67,7.8,7.8,0,0,1-1.34,2.53L135.4,255.4a3.55,3.55,0,0,1-2,1.74c-.89.15-1.63-3.34-1.11-4.12"/><path class="cls-3" d="M144.91,240.26a3,3,0,0,0-3.37-1.91c-1.64.28-2.69,1.6-3.6,2.88a48.17,48.17,0,0,0-6.6,11.45c-.64,1.48-.11,5,1.65,5.4,1.55.37,2.76-1.48,3.5-2.53l3.79-5.42c1.24-1.77,2.53-3.51,3.71-5.31A5.16,5.16,0,0,0,144.91,240.26Zm-2.42,3.27c-2,3.2-4.32,6.21-6.46,9.29-.55.78-1.07,1.6-1.65,2.35-.18.23-.71.61-.81.84l-.06,0c-.1-.7-.81-1.79-.42-2.53a.94.94,0,0,0,0-.14,1,1,0,0,0,.06-.09,40.54,40.54,0,0,1,5.25-9.38c.78-1.11,1.72-3,3.06-3.52a1.13,1.13,0,0,1,1.67.81A3.33,3.33,0,0,1,142.49,243.53Z"/><path class="cls-2" d="M176.34,248.26s2.1-4.55,5-3c1.23.65-1,4.08-2.07,4.89"/><path class="cls-3" d="M177.18,248.75c.5-1.07,1.45-2.63,2.72-2.84a1.4,1.4,0,0,1,.54,0c.46.1.23.23.26-.05a3.18,3.18,0,0,1-.36,1.14,7.51,7.51,0,0,1-1.78,2.41c-1,.81.42,2.19,1.38,1.38,1.68-1.41,4.54-6,.92-6.78-2.43-.55-4.44,1.76-5.37,3.75-.53,1.13,1.15,2.12,1.69,1Z"/><path class="cls-2" d="M185.86,249.88c-.44-1.32-4.37-.63-4.37-.63v.32c-3.57-2.44-6.3-.74-6.3-.74l0,0a14.64,14.64,0,0,0-3-1.8s-8.76-5.31-12.47-11.9c-3.9-6.94-17.87-10.36-20.21,2.77s18.43,19.31,29.83,18.13a21.3,21.3,0,0,0,4.83-1,4.32,4.32,0,0,0,1.06.17,9.86,9.86,0,0,0,7.86-3.58C184.54,251.36,186.16,250.78,185.86,249.88Z"/><path class="cls-8" d="M184.23,249.09c-4.43,4-10.62,4-10.62,4-19.53,1.12-29.83-9.62-34-15.59l-.09.47c-2.33,13.13,18.43,19.31,29.83,18.13a21.3,21.3,0,0,0,4.83-1,4.32,4.32,0,0,0,1.06.17,9.86,9.86,0,0,0,7.86-3.58c1.46-.34,3.08-.91,2.78-1.82C185.69,249.37,185,249.16,184.23,249.09Z"/><path class="cls-3" d="M186.8,249.62a.82.82,0,0,0-.28-.49c-1-1.48-3.79-1.08-5.26-.83a7.39,7.39,0,0,0-4.5-1,6.45,6.45,0,0,0-1.62.37c-1-.69-2.13-1.24-3.18-1.92q-1.93-1.26-3.74-2.71a40.31,40.31,0,0,1-4.95-4.63c-1.43-1.61-2.37-3.5-3.69-5.16-3.63-4.59-11.25-7.12-16.4-3.57-3.08,2.12-4.61,6-4.83,9.6a12.32,12.32,0,0,0,3.56,9.1c5.14,5.49,13.43,7.84,20.68,8.59a34.15,34.15,0,0,0,5.91.13,28.87,28.87,0,0,0,4-.54,14,14,0,0,1,1.73-.45c.66,0,1.37.17,2.05.12a10.77,10.77,0,0,0,6.44-2.78,11.1,11.1,0,0,1,.89-.88c.22-.15.95-.27,1.38-.45C186.11,251.68,187,250.94,186.8,249.62Zm-3,.86a4,4,0,0,0-1.48.57c-.5.43-.91,1-1.44,1.38a8.17,8.17,0,0,1-6.18,1.81,7.46,7.46,0,0,0-2.77.45,25.14,25.14,0,0,1-3.45.48,33,33,0,0,1-4.71,0c-6.67-.48-14.17-2.48-19.3-7a11.23,11.23,0,0,1-4.18-7.56c-.2-3.14.94-6.84,3.43-8.9,4.29-3.55,11.21-1.19,14.35,2.79.54.68.92,1.46,1.4,2.19a26,26,0,0,0,2.1,2.77,39.22,39.22,0,0,0,5,4.82c1.33,1.08,2.7,2.1,4.12,3,1.2.8,2.54,1.34,3.68,2.23a1,1,0,0,0,1.38,0c-.19.23-.05,0,.15,0a5.8,5.8,0,0,1,1-.26,5.93,5.93,0,0,1,4,1.15.93.93,0,0,0,1.27-.29,6.51,6.51,0,0,1,2.41,0l-.15.1A4.73,4.73,0,0,1,183.83,250.48Z"/><path class="cls-3" d="M145.54,248.71l1.81-4.45c.31-.78-.94-1.11-1.25-.35l-1.81,4.45c-.31.78.94,1.11,1.26.35Z"/><path class="cls-3" d="M148.18,250.17l1.16-3.9a.65.65,0,0,0-1.25-.35l-1.16,3.9a.65.65,0,0,0,1.25.35Z"/><path class="cls-3" d="M151.5,252.2l1.53-4.36c.28-.79-1-1.13-1.25-.35l-1.53,4.36c-.28.79,1,1.13,1.25.35Z"/><path class="cls-3" d="M154.83,253.47a14.38,14.38,0,0,0,1.44-3.44.65.65,0,0,0-1.25-.35,13.11,13.11,0,0,1-1.3,3.13.65.65,0,0,0,1.12.66Z"/><path class="cls-3" d="M157.61,255a11.13,11.13,0,0,0,2.09-4,.65.65,0,0,0-1.25-.35,9.53,9.53,0,0,1-1.75,3.4c-.52.65.39,1.57.92.92Z"/><path class="cls-3" d="M162.1,254.94a16.59,16.59,0,0,0,1.21-2.76c.27-.8-1-1.14-1.25-.35a14.73,14.73,0,0,1-1.08,2.45c-.41.73.72,1.39,1.12.66Z"/><path class="cls-3" d="M165.24,255.42a5.75,5.75,0,0,0,1.83-3.23c.15-.82-1.1-1.17-1.25-.35a4.61,4.61,0,0,1-1.5,2.66c-.63.56.3,1.48.92.92Z"/><path class="cls-3" d="M169.8,255.68l1.7-2.48c.47-.69-.65-1.34-1.12-.66l-1.7,2.48c-.47.69.65,1.34,1.12.66Z"/><path class="cls-7" d="M125.83,117.63h-86c-19.81,0-36-15.75-36-35h0c0-19.25,16.21-35,36-35h86c19.81,0,36,15.75,36,35h0C161.85,101.88,145.65,117.63,125.83,117.63Z"/><circle class="cls-7" cx="44.71" cy="132.16" r="5.05"/><path class="cls-12" d="M30.57,67.69V66.34h1.55v1.34h5.47V66.34h1.55v1.34h2.64v1.42H39.15v6.95h2.95v1.41H27.64V76.06h2.93V69.11H27.93V67.69Zm3,10.92a19.29,19.29,0,0,1-4.74,2.51l-1-1.23a20.09,20.09,0,0,0,4.62-2.24Zm4-8.07V69.11H32.12v1.42Zm0,2.72V71.83H32.12v1.42Zm0,2.8v-1.5H32.12v1.5Zm4.26,3.75L41,81.12a23,23,0,0,0-4.75-2.26L37,77.71A26.56,26.56,0,0,1,41.85,79.81Z"/><path class="cls-12" d="M55.48,69.29l-.14,1.42h2.4v1.22H55.23l-.13,1.42H46l.21-1.42H44V70.71h2.45l.21-1.42Zm.26,4.64v5.23h-2a31.22,31.22,0,0,1,3.57.86l-.48,1.2A29.49,29.49,0,0,0,52,79.87l.37-.7H49.19l.5.67a17.12,17.12,0,0,1-4.85,1.39l-.69-1.17a25,25,0,0,0,4.13-.9H46V73.93Zm1.79-3.73H56.11V68.65H45.61V70.2H44.18V67.43h5.91a9.74,9.74,0,0,0-.4-.9l1.52-.26q.22.53.43,1.15h5.89Zm-3.22,5.22V74.8h-6.9v.62Zm0,1.39v-.59h-6.9v.59Zm0,.8h-6.9v.61h6.9ZM50,72.48l.11-.7H47.64l-.11.7Zm.26-1.57.11-.72H47.91l-.13.72Zm1.07,1.57h2.5l.08-.7H51.42Zm.26-1.57H54l.08-.72H51.69Z"/><path class="cls-12" d="M67.87,72.92a2.11,2.11,0,0,1,.4,1.31,3.37,3.37,0,0,1-.72,2.15,3.59,3.59,0,0,1-1.92,1.23v-1a2.35,2.35,0,0,0,1.09-.75,2,2,0,0,0,.4-1.12,1.19,1.19,0,0,1-.38.06,1.14,1.14,0,0,1-.83-.35,1.16,1.16,0,0,1-.34-.85,1.12,1.12,0,0,1,.35-.86,1.24,1.24,0,0,1,.91-.34A1.27,1.27,0,0,1,67.87,72.92Z"/><path class="cls-12" d="M78.46,68.43V66.36h1.46v2.07H82.2v1.34H79.91v2H82.1V73.2H80.25v1.94h1.94v1.38H80.25V79l.18.06a26,26,0,0,0,6.48.48c1.46,0,2.54,0,3.25-.08l-.26,1.5H87.24c-4.1,0-6.67-.24-7.71-.69a5.54,5.54,0,0,1-2.13-1.82,20.05,20.05,0,0,1-.8,2.72l-1.1-1a20.79,20.79,0,0,0,1.09-6.11l1.3.16c0,.83-.08,1.62-.18,2.37A6.25,6.25,0,0,0,78.82,78V73.2H76V71.82h2.46v-2H76.13V68.43Zm4.18,0V67h7c0,2.85-.18,4.55-.46,5.11a1.62,1.62,0,0,1-1.55.85c-.34,0-.74,0-1.22-.08L86,71.58l1.26.11a.69.69,0,0,0,.7-.56,14.34,14.34,0,0,0,.18-2.69h-2A9.57,9.57,0,0,1,85.27,71a6.73,6.73,0,0,1-2,2.13l-1-1.25A5.68,5.68,0,0,0,84,70.28a6,6,0,0,0,.69-1.84Zm6.72,5.2V78.8H83V73.64ZM88,75H84.41v2.51H88Z"/><path class="cls-12" d="M95.58,70.28v1.18a22.25,22.25,0,0,1-1.79,2.48h2v1a15.33,15.33,0,0,1-.8,2.95l.37.29a5.79,5.79,0,0,0,1.47,1,6.9,6.9,0,0,0,2,.3c.86,0,1.86,0,3,0s2.66,0,4.5-.13l-.34,1.44h-4c-1.12,0-2.21,0-3.23-.06a7.74,7.74,0,0,1-2.48-.37,5.24,5.24,0,0,1-1.81-1.17.58.58,0,0,0-.38-.16c-.32,0-.82.69-1.5,2.07l-1.1-1a5,5,0,0,1,2.1-2.45,15.11,15.11,0,0,0,.75-2.45H92V74.08a19.78,19.78,0,0,0,1.92-2.42H91.7V70.28Zm0-1.55-1,1a17.07,17.07,0,0,0-2.48-2.29l1-1A20.17,20.17,0,0,1,95.56,68.73Zm10.16,2.77v6c0,.9-.53,1.34-1.57,1.34h-1.36l-.34-1.28,1.28.06c.35,0,.53-.16.53-.45V72.83h-6.5v5.86H96.3V71.5h1.06V66.79h7.27V71.5Zm-2.54-3.39H98.79V71.5h1.42V69.19h3Zm0,5.38v3.57H98.83V73.48Zm-1.26,1.17h-1.79V75.9h1.79Zm1.3-3.15V70.35h-1.73V71.5Z"/><path class="cls-12" d="M112.76,79.47h-1.44v-1h-1.86v1.39H108V67.48h4.75Zm-1.44-7.25V68.86h-1.86v3.36Zm0,4.83V73.6h-1.86v3.46Zm7.17-10.58V68h2.82v1.39h-2.82v1.52h3.66V72.3h-8.8V70.89H117V69.37h-2.88V68H117v-1.5Zm.27,7.46V72.81h1.47v1.12H122v1.42h-1.76v3.89c0,1.18-.51,1.79-1.52,1.79h-1.94l-.32-1.44a16.63,16.63,0,0,0,1.75.11c.37,0,.56-.29.56-.83V75.36h-5V73.93ZM117,78.17l-1.2.85a20.48,20.48,0,0,0-1.86-2.51l1.18-.74A21.82,21.82,0,0,1,117,78.17Z"/><path class="cls-12" d="M130.18,72.44h-4.42v8.67h-1.5V66.83h5.92Zm-1.5-4.27h-2.91V69h2.91Zm-2.91,2.91h2.91v-.9h-2.91Zm8.15,2.34v6.42h-6.15V73.42ZM132.47,76V74.67h-3.25V76Zm0,1.2h-3.25v1.36h3.25Zm-1.06-4.77V66.81h6V79.68A1.25,1.25,0,0,1,136,81.1q-.77,0-1.54,0l-.4-1.46c.5,0,1,.08,1.39.08s.45-.18.45-.5V72.44Zm4.53-4.26h-3v.88h3Zm-3,2.9h3v-.87h-3Z"/><path class="cls-12" d="M53.39,86.31v3.62l4.82-1.07a37.55,37.55,0,0,1-1,7.6L55.74,96a32.56,32.56,0,0,0,.94-5.23l-3.3.7v5.79H51.9V91.8l-3.07.66v5.65a1,1,0,0,0,1.07,1.07h6.85A1.94,1.94,0,0,0,58,98.86a4.61,4.61,0,0,0,.46-2.29l1.39.46c-.13,1.7-.37,2.72-.74,3.09a3.2,3.2,0,0,1-2.08.51H49.53c-1.47,0-2.19-.77-2.19-2.31V92.78l-2.4.51V91.82l2.4-.53V87.58h1.49V91l3.07-.69v-4Z"/><path class="cls-12" d="M64.57,92.6l-1.1,1.09a16.51,16.51,0,0,0-2.61-2.3l1.09-1.06A19.09,19.09,0,0,1,64.57,92.6Zm.38,2.7a46.88,46.88,0,0,1-2.4,5.68L61,100.32a44.43,44.43,0,0,0,2.56-5.55ZM65,88.76l-1.09,1.07a16.22,16.22,0,0,0-2.71-2.24l1.09-1A19.05,19.05,0,0,1,65,88.76Zm9.28,4.45V94.6a8.32,8.32,0,0,1-2.53,3.54,21.44,21.44,0,0,0,4.08,1.62L75,101.1A21.54,21.54,0,0,1,70.55,99a19,19,0,0,1-5.31,2.16l-.83-1.28a19.31,19.31,0,0,0,4.82-1.84,7.82,7.82,0,0,1-2.51-3.39h-1V93.21Zm-4.74-6.64c-.11.42-.22.82-.35,1.2h5.06a14.11,14.11,0,0,1-.43,4c-.27.5-.86.75-1.79.77-.51,0-1.09,0-1.75-.06l-.45-1.38c.8.06,1.47.1,2,.1.38,0,.64-.13.74-.32a5.84,5.84,0,0,0,.14-1.7H68.63a10.6,10.6,0,0,1-2.72,3.59l-1-1.23a9.66,9.66,0,0,0,3.15-5.27Zm.83,10.72a8,8,0,0,0,2.32-2.62H68.15A6.36,6.36,0,0,0,70.39,97.29Z"/><path class="cls-12" d="M83.82,91.27H82.76a12.38,12.38,0,0,1-1.59,1.79L82.54,93c.22-.27.46-.56.72-.85l1,.4a16.82,16.82,0,0,1-2.66,2.56l1.49-.21c-.06-.24-.14-.46-.21-.67l.9-.29c.21.59.4,1.28.59,2.07l-.94.22c0-.18-.08-.34-.11-.48q-1.73.24-3.22.38l-.22-.9a6.22,6.22,0,0,0,1.81-1.34L80,94l-.21-.91a5.78,5.78,0,0,0,1.71-1.81H79v9.88H77.65V86.89h6.16ZM82.44,88H79v.64h3.39ZM79,90.23h3.39v-.69H79Zm2.55,6.23v1.34h1.15a1.64,1.64,0,0,0,0-.26V96.3H84v1.25a3.59,3.59,0,0,1-.8,2.23A5.09,5.09,0,0,1,80.79,101l-.69-1.07A4.82,4.82,0,0,0,82.18,99l.11-.14H80.39v-2.4Zm5.84-5.17a10.46,10.46,0,0,1-1.55,1.76l1.33-.1.74-.85,1,.4a17.2,17.2,0,0,1-2.66,2.54l1.5-.21c-.08-.22-.16-.45-.22-.66l.9-.29A18.73,18.73,0,0,1,89.15,96l-.94.24c0-.21-.1-.4-.14-.58q-1.78.24-3.26.38l-.22-.9a6.2,6.2,0,0,0,1.81-1.34L84.65,94l-.21-.91a5.76,5.76,0,0,0,1.7-1.78H84.81v-4.4H91V99.69a1.25,1.25,0,0,1-1.42,1.39c-.61,0-1.2,0-1.78,0l-.34-1.26c.58,0,1.1,0,1.6,0s.53-.19.53-.58v-8Zm-1.33,5v1.52h1.14V96.49h1.2v2.37H86.11v2.08H84.79V96.28ZM89.6,88H86.19v.64H89.6Zm-3.41,2.26H89.6v-.69H86.19Z"/><path class="cls-12" d="M97.85,86.91a19,19,0,0,1-1.55,3.5v10.77H94.81V92.62a21.67,21.67,0,0,1-1.49,1.71l-.5-1.62a17.83,17.83,0,0,0,3.59-6.48Zm2.69,10.34a15,15,0,0,1-2.27,3.27l-1.15-.82a11.72,11.72,0,0,0,2.21-3Zm5.2-10.08a18.88,18.88,0,0,1-2.95,1.3c-1,.34-2.42.71-4.21,1.1l-.77-1.23a26.67,26.67,0,0,0,3.89-.83,17,17,0,0,0,2.83-1.09Zm-5.36,13.91-.32-1.38a7.68,7.68,0,0,0,1.15.1c.42,0,.62-.18.62-.51V95.82L98.22,96l-.3-1.26.5-.13a15.8,15.8,0,0,0,3.83-2c-1.17,0-2.38.1-3.67.13l-.3-1.17a3.78,3.78,0,0,0,.46-.13A15.89,15.89,0,0,0,103,88.63l1.38.53a33.45,33.45,0,0,1-3.43,2.35l2.9-.11,1.65-1.3,1.41.53a50.32,50.32,0,0,1-6,4.08c1.41-.08,2.82-.16,4.19-.26-.29-.42-.59-.8-.88-1.17l1.18-.51a15.75,15.75,0,0,1,2.08,3l-1.18.62q-.24-.46-.48-.86l-2.53.16v3.89q0,1.44-1.54,1.44Zm7.28-1.38-1.14.8a25.51,25.51,0,0,0-2.4-3.2l1.12-.7A23.77,23.77,0,0,1,107.66,99.69Z"/><path class="cls-12" d="M111.35,97.55a1.19,1.19,0,0,1,.35.86,1.23,1.23,0,0,1-.35.85,1.27,1.27,0,0,1-.85.32,1.12,1.12,0,0,1-.83-.32,1.16,1.16,0,0,1-.35-.85,1.12,1.12,0,0,1,.35-.86,1.08,1.08,0,0,1,.83-.34A1.21,1.21,0,0,1,111.35,97.55Z"/><path class="cls-12" d="M115.7,97.55a1.18,1.18,0,0,1,.35.86,1.23,1.23,0,0,1-.35.85,1.27,1.27,0,0,1-.85.32,1.12,1.12,0,0,1-.83-.32,1.16,1.16,0,0,1-.35-.85,1.12,1.12,0,0,1,.35-.86,1.07,1.07,0,0,1,.83-.34A1.21,1.21,0,0,1,115.7,97.55Z"/><path class="cls-12" d="M120.05,97.55a1.19,1.19,0,0,1,.35.86,1.23,1.23,0,0,1-.35.85,1.27,1.27,0,0,1-.85.32,1.12,1.12,0,0,1-.83-.32,1.16,1.16,0,0,1-.35-.85,1.12,1.12,0,0,1,.35-.86,1.08,1.08,0,0,1,.83-.34A1.21,1.21,0,0,1,120.05,97.55Z"/></g></g></svg>